<svg version="1.2" xmlns="http://www.w3.org/2000/svg" viewBox="0 0 1080 1080" width="1080" height="1080">
	<style>
		.s0 { fill: #c55b29 } 
	</style>
	<path id="Shape 2" fill-rule="evenodd" class="s0" d="m444 370c-93.46 0-169-75.54-169-169 0-93.46 75.54-169 169-169 93.46 0 169 75.54 169 169 0 67.21-39.07 125.16-95.78 152.4l43.76 204.6q0.51 0 1.02 0c134.93 0 244 109.07 244 244 0 134.93-109.07 244-244 244-134.93 0-244-109.07-244-244 0-111.3 74.22-205.01 175.94-234.41l-43.54-197.71q-3.19 0.12-6.4 0.12zm115-168c0-63.59-51.4-115-115-115-63.6 0-115 51.41-115 115 0 63.6 51.4 115 115 115 63.6 0 115-51.4 115-115zm177.84 599c0-96.69-78.15-174.84-174.84-174.84-96.69 0-174.84 78.15-174.84 174.84 0 96.69 78.15 174.84 174.84 174.84 96.69 0 174.84-78.15 174.84-174.84z"/>
</svg>