<svg xmlns="http://www.w3.org/2000/svg" width="256" height="256" viewBox="0 0 256 256">
  <defs>
    <style>
      .cls-1 {
        fill: #606161;
      }

      .cls-2 {
        fill: #fff;
        opacity: 0.63;
      }

      .cls-2, .cls-3 {
        fill-rule: evenodd;
      }

      .cls-3 {
        fill: none;
        stroke: #fff;
        stroke-linecap: round;
        stroke-width: 5px;
      }
    </style>
  </defs>
  <circle class="cls-1" cx="128" cy="128" r="125"/>
  <path class="cls-2" d="M71,82S50.044,47.614,10,49L55,161s19.567,34.447,66,39C121,200,93.22,121.433,71,82Z"/>
  <path id="Shape_3_copy" data-name="Shape 3 copy" class="cls-2" d="M134,82S113.044,47.614,73,49l45,112s19.567,34.447,66,39C184,200,156.22,121.433,134,82Z"/>
  <path id="Shape_3_copy_2" data-name="Shape 3 copy 2" class="cls-2" d="M196,82s-20.956-34.386-61-33l45,112s19.567,34.447,66,39C246,200,218.22,121.433,196,82Z"/>
  <path class="cls-3" d="M70.58,79.783S51.432,47.931,10.007,48.116l44,109.915s21.541,41.794,68.49,41.978"/>
  <path class="cls-3" d="M84.02,107.216L112.558,178.1"/>
  <path id="Shape_1_copy" data-name="Shape 1 copy" class="cls-3" d="M133.437,80.185S114.238,48.308,72.7,48.493l44.119,110s21.6,41.827,68.67,42.011"/>
  <path id="Shape_2_copy" data-name="Shape 2 copy" class="cls-3" d="M146.912,107.64l28.613,70.94"/>
  <path id="Shape_1_copy_2" data-name="Shape 1 copy 2" class="cls-3" d="M195.437,80.185s-19.2-31.877-60.733-31.693l44.119,110s21.6,41.827,68.67,42.011"/>
  <path id="Shape_2_copy_2" data-name="Shape 2 copy 2" class="cls-3" d="M208.912,107.64l28.613,70.94"/>
</svg>
