<?xml version="1.0" encoding="utf-8" ?><svg xmlns="http://www.w3.org/2000/svg" xmlns:xlink="http://www.w3.org/1999/xlink" width="1122" height="522" viewBox="0 0 1122 522"><path fill="#DEEBFA" d="M445.661 124.797C445.899 124.976 446.136 125.155 446.374 125.335L446.75 125.591C452.154 129.32 467.345 129.338 473.989 129.758C512.081 132.164 545.449 111.395 571.868 85.8888C582.654 75.4755 593.259 63.7918 605.984 54.8086C628.054 39.2295 655.154 29.5818 681.981 26.9675C738.934 21.4171 796.073 42.8567 839.587 79.3407C843.104 82.7195 846.402 85.6265 850.028 88.8356C852.852 91.3344 855.408 94.7644 858.316 97.1499C860.592 99.9258 863.376 103.574 865.428 106.219C868.27 109.88 876.841 125.04 879.655 126.714C879.74 126.647 879.829 126.584 879.911 126.513C886.193 121.095 883.691 93.6647 908.128 94.8515C913.075 95.0918 917.591 97.193 920.892 100.891C927.163 107.919 929.826 120.395 929.226 129.58C928.7 137.644 923.88 151.221 926.457 158.512C933.931 151.962 944.746 149.858 950.462 143.259C960.73 131.251 965.461 102.574 986.385 103.744C1006.19 104.851 1004.41 123.263 1004.17 136.969C1003.93 151.089 968.148 193.827 990.337 200.55C971.011 215.525 952.666 239.758 941.961 261.649C937.726 270.31 935.049 278.924 931.554 287.662L929.997 284.662C928.881 287.823 928.885 288.957 926.489 291.576C923.173 295.199 918.931 297.321 915.974 291.914C909.905 297.135 907.186 299.545 904.309 307.116L894.23 304.372C891.606 311.739 890.078 319.942 887.849 327.503C886.731 332.143 885.46 337.057 884.434 341.693C882.971 347.223 881.269 353.188 880.091 358.749C880.672 360.967 881.081 361.987 882.749 363.685C890.843 369.492 896.681 368.022 903.041 370.926L909.493 372.77C910.136 374.817 910.303 375.524 911.488 377.301C908.859 384.187 906.068 392.252 903.237 398.91L900.055 408.087C892.33 427.25 889.77 446.909 885.335 467.001C884.69 469.926 882.452 479.48 883.099 481.739L884.24 482.811C886.418 483.154 890.945 484.663 892.724 485.905C892.144 487.956 891.399 490.309 891.117 492.392L889.284 498.684L888.303 499.365C883.231 499.861 878.315 498.723 873.342 497.764C867.411 498.723 855.279 498.399 848.798 498.393C833.987 498.392 819.175 498.305 804.365 498.133C789.287 499.791 778.565 499.535 763.431 499.296C755.411 499.17 747.8 500.341 739.03 500.041C725.994 500.757 671.393 496.207 663.787 500.345C659.982 501.816 658.763 502.62 654.76 501.784C653.274 501.339 651.336 501.351 649.738 501.28L644.795 501.334C620.597 500.904 596.142 501.457 571.956 501.319C565.706 501.284 541.439 501.856 536.981 500.541C531.203 498.598 529.433 498.332 523.316 498.035C510.015 498.451 492.879 498.614 479.63 498.132C473.182 497.951 472.746 502.356 467.474 502.082C450.639 501.209 434.763 498.309 417.836 498.386L414.764 491.19C418.508 486.355 420.29 482.195 417.244 476.383C416 474.387 414.162 472.691 412.496 471.01L409.317 469.376C403.551 468.938 399.386 471.19 393.706 471.249C394.831 472.758 395.919 473.514 395.442 475.418C394.496 479.195 392.29 486.013 396.381 489.032C398.767 494.053 396.227 494.184 395.89 498.564C377.925 497.184 352.307 502.286 333.01 502.475C327.472 504.845 323.41 501.753 319.65 498.011C316.482 498.117 300.439 498.102 298.939 498.948C297.68 500.957 297.069 501.958 295.492 503.706C290.242 505.989 287.127 506.597 281.385 505.806C276.454 504.47 264.611 503.465 259.27 503.118C255.838 501.936 242.497 502.246 237.898 502.23C234.589 503.632 226.926 504.47 222.957 505.073C219.768 505.196 214.247 505.584 211.362 504.792L211.014 504.694C208.289 503.951 206.751 502.418 204.593 500.607C205.676 498.393 205.965 497.65 207.656 495.897C205.863 494.56 195.356 492.578 191.272 490.453C185.394 487.393 179.95 484 177.491 477.3L176.652 475.031L176.309 470.83C176.597 469.022 176.599 468.525 176.518 466.707C177.348 466.351 180.43 462.646 181.243 461.711L181.836 461.561C183.538 460.419 184.062 460.193 185.976 459.432C189.601 453.761 190.093 448.757 187.816 442.438C184.773 441.096 182.244 439.443 179.42 437.702C178.387 436.251 177.516 434.449 176.685 432.851C175.163 433.417 156.135 433.442 153.427 433.112C149.045 422.774 146.153 407.008 145.553 395.897C144.752 394.472 145.09 384.401 145.108 382.067C136.701 367.255 129.513 358.202 118.201 345.509C116.887 344.609 115.042 342.841 113.851 341.713C106.98 335.207 99.8684 329.509 92.3302 323.801C94.7834 304.281 83.7894 295.616 72.4442 281.771C64.5121 272.09 52.4087 258.75 51.4217 245.919C50.654 235.939 53.9517 225.093 65.8291 224.986C76.4418 224.89 85.441 233.897 92.5392 240.62C97.5242 236.952 95.0373 235.049 103.733 232.515C112.961 234.234 117.415 239.632 125.646 243.123C130.536 244.695 132.536 240.419 132.767 236.039C133.732 217.783 105.545 159.038 124.58 145.508C147.227 129.411 159.036 178.737 162.799 192.08C164.736 198.948 165.159 208.68 167.725 215.572C174.598 235.738 185.804 215.902 196.219 207.634C199.491 198.8 201.385 189.741 204.803 180.63C228.008 118.765 327.192 75.3739 388.596 106.472C400.817 109.875 405.734 108.588 418.006 109.1C428.337 109.532 438.596 110.19 449.023 110.154C453.416 110.138 459.338 109.668 463.477 109.957C458.064 115.685 449.138 118.095 445.661 124.797Z"/><path fill="#DEEBFA" d="M196.219 207.634C199.491 198.8 201.385 189.741 204.803 180.63C228.008 118.765 327.192 75.3739 388.596 106.472C400.817 109.875 405.734 108.588 418.006 109.1C428.337 109.532 438.596 110.19 449.023 110.154C453.416 110.138 459.338 109.668 463.477 109.957C458.064 115.685 449.138 118.095 445.661 124.797C432.963 135.266 416.879 145.77 404.995 155.882C408.757 166.828 411.646 178.148 415.333 189.2L409.614 194.113C408.988 213.417 409.375 234.728 409.376 254.153L409.375 358.438L440.741 358.408C440.595 374.826 440.534 391.244 440.558 407.663L409.337 407.606C409.368 426.903 410.029 450.475 409.317 469.376C403.551 468.938 399.386 471.19 393.706 471.249C394.831 472.758 395.919 473.514 395.442 475.418C394.496 479.195 392.29 486.013 396.381 489.032C398.767 494.053 396.227 494.184 395.89 498.564C377.925 497.184 352.307 502.286 333.01 502.475C327.472 504.845 323.41 501.753 319.65 498.011C316.482 498.117 300.439 498.102 298.939 498.948C297.68 500.957 297.069 501.958 295.492 503.706C290.242 505.989 287.127 506.597 281.385 505.806C276.454 504.47 264.611 503.465 259.27 503.118C255.838 501.936 242.497 502.246 237.898 502.23C234.589 503.632 226.926 504.47 222.957 505.073C219.768 505.196 214.247 505.584 211.362 504.792L211.014 504.694C208.289 503.951 206.751 502.418 204.593 500.607C205.676 498.393 205.965 497.65 207.656 495.897C205.863 494.56 195.356 492.578 191.272 490.453C185.394 487.393 179.95 484 177.491 477.3L176.652 475.031L176.309 470.83C176.597 469.022 176.599 468.525 176.518 466.707C177.348 466.351 180.43 462.646 181.243 461.711L181.836 461.561C183.538 460.419 184.062 460.193 185.976 459.432C189.601 453.761 190.093 448.757 187.816 442.438C184.773 441.096 182.244 439.443 179.42 437.702C178.387 436.251 177.516 434.449 176.685 432.851C175.163 433.417 156.135 433.442 153.427 433.112C149.045 422.774 146.153 407.008 145.553 395.897C144.752 394.472 145.09 384.401 145.108 382.067C136.701 367.255 129.513 358.202 118.201 345.509C116.887 344.609 115.042 342.841 113.851 341.713C106.98 335.207 99.8684 329.509 92.3302 323.801C94.7834 304.281 83.7894 295.616 72.4442 281.771C64.5121 272.09 52.4087 258.75 51.4217 245.919C50.654 235.939 53.9517 225.093 65.8291 224.986C76.4418 224.89 85.441 233.897 92.5392 240.62C97.5242 236.952 95.0373 235.049 103.733 232.515C112.961 234.234 117.415 239.632 125.646 243.123C130.536 244.695 132.536 240.419 132.767 236.039C133.732 217.783 105.545 159.038 124.58 145.508C147.227 129.411 159.036 178.737 162.799 192.08C164.736 198.948 165.159 208.68 167.725 215.572C174.598 235.738 185.804 215.902 196.219 207.634Z"/><path fill="#336EBF" d="M308.706 223.663C338.917 222.02 363.037 216.157 391.199 204.104C396.954 201.641 403.718 196.983 409.614 194.113C408.988 213.417 409.375 234.728 409.376 254.153L409.375 358.438L440.741 358.408C440.595 374.826 440.534 391.244 440.558 407.663L409.337 407.606C409.368 426.903 410.029 450.475 409.317 469.376C403.551 468.938 399.386 471.19 393.706 471.249C394.831 472.758 395.919 473.514 395.442 475.418C394.496 479.195 392.29 486.013 396.381 489.032C398.767 494.053 396.227 494.184 395.89 498.564C377.925 497.184 352.307 502.286 333.01 502.475C327.472 504.845 323.41 501.753 319.65 498.011C316.482 498.117 300.439 498.102 298.939 498.948C297.68 500.957 297.069 501.958 295.492 503.706C290.242 505.989 287.127 506.597 281.385 505.806C276.454 504.47 264.611 503.465 259.27 503.118C255.838 501.936 242.497 502.246 237.898 502.23C234.589 503.632 226.926 504.47 222.957 505.073C219.768 505.196 214.247 505.584 211.362 504.792L211.014 504.694C208.289 503.951 206.751 502.418 204.593 500.607C205.676 498.393 205.965 497.65 207.656 495.897C205.863 494.56 195.356 492.578 191.272 490.453C185.394 487.393 179.95 484 177.491 477.3L176.652 475.031L176.309 470.83C176.597 469.022 176.599 468.525 176.518 466.707C177.348 466.351 180.43 462.646 181.243 461.711L181.836 461.561C183.538 460.419 184.062 460.193 185.976 459.432C189.601 453.761 190.093 448.757 187.816 442.438C184.773 441.096 182.244 439.443 179.42 437.702C178.387 436.251 177.516 434.449 176.685 432.851C174.494 417.612 185.366 399.765 188.837 385.931C193.021 377.994 197.343 369.854 207.251 368.333C208.184 367.836 211.436 366.888 212.625 366.515C215.569 365.584 216.515 365.303 219.218 363.62C222.025 366.759 224.487 368.798 228.188 370.906C228.972 370.131 230.91 368.307 231.414 367.507L233.41 364.298C233.401 363.958 233.864 361.254 233.946 360.732C242.348 352.678 243.941 344.737 239.878 333.885C241.575 333.719 242.508 333.544 244.168 333.178C243.859 331.056 243.375 327.88 243.813 325.855C246.363 324.66 249.374 323.462 252.003 322.352C254.058 321.814 260.11 318.841 262.464 317.857C259.941 316.862 258.83 316.387 256.518 314.99C263.177 301.747 273.509 284.782 280.998 271.671C289.639 256.542 299.521 238.229 308.706 223.663Z"/><path fill="#203159" d="M219.218 363.62C222.025 366.759 224.487 368.798 228.188 370.906C228.972 370.131 230.91 368.307 231.414 367.507L233.41 364.298L238.518 366.838C240.822 368.109 240.522 367.483 241.326 369.528L241.962 368.679C244.419 369.166 246.601 371.392 249.179 372.308C256.721 384.671 260.409 389.332 266.278 403.715L299.651 403.686C304.999 403.685 313.094 403.449 318.248 403.91C319.194 405.223 318.85 405.581 318.842 407.5C316.802 413.966 305.351 454.998 302.41 456.42C301.895 456.669 301.36 456.848 300.815 457.014C304.252 458.947 306.393 461.104 307.38 465C311.498 481.255 284.274 486.258 276.267 493.035C274.752 493.561 274.194 493.746 272.761 494.59C271.334 494.613 264.229 493.529 262.407 493.281C260.752 496.136 259.892 499.867 259.27 503.118C255.838 501.936 242.497 502.246 237.898 502.23C234.589 503.632 226.926 504.47 222.957 505.073C219.768 505.196 214.247 505.584 211.362 504.792L211.014 504.694C208.289 503.951 206.751 502.418 204.593 500.607C205.676 498.393 205.965 497.65 207.656 495.897C205.863 494.56 195.356 492.578 191.272 490.453C185.394 487.393 179.95 484 177.491 477.3L176.652 475.031L176.309 470.83C176.597 469.022 176.599 468.525 176.518 466.707C177.348 466.351 180.43 462.646 181.243 461.711L181.836 461.561C183.538 460.419 184.062 460.193 185.976 459.432C189.601 453.761 190.093 448.757 187.816 442.438C184.773 441.096 182.244 439.443 179.42 437.702C178.387 436.251 177.516 434.449 176.685 432.851C174.494 417.612 185.366 399.765 188.837 385.931C193.021 377.994 197.343 369.854 207.251 368.333C208.184 367.836 211.436 366.888 212.625 366.515C215.569 365.584 216.515 365.303 219.218 363.62Z"/><path fill="#82B9F1" d="M266.278 403.715L299.651 403.686C304.999 403.685 313.094 403.449 318.248 403.91C319.194 405.223 318.85 405.581 318.842 407.5C316.802 413.966 305.351 454.998 302.41 456.42C301.895 456.669 301.36 456.848 300.815 457.014C291.003 457.807 276.699 456.491 265.577 457.274C257.9 456.256 217.485 458.982 214.848 455.951C214.806 454.033 214.582 454.69 215.488 453.262C220.793 452.676 231.831 453.003 237.838 452.887L239.706 453.185C241.585 452.008 242.224 448.408 242.913 446.092C244.67 439.34 247.444 431.354 249.433 424.527C251.248 418.299 253.639 409.569 256.062 403.854L266.278 403.715Z"/><path fill="#F8F8FA" d="M280.111 426.396C282.055 425.307 284.513 425.992 285.614 427.929C286.714 429.865 286.044 432.327 284.114 433.439C282.167 434.56 279.679 433.883 278.569 431.93C277.459 429.977 278.151 427.494 280.111 426.396Z"/><path fill="#254171" d="M181.836 461.561C184.991 461.983 189.683 458.601 193.872 459.649C212.55 464.323 229.799 476.725 247.072 485.203C250.363 487.229 260.9 491.91 262.407 493.281C260.752 496.136 259.892 499.867 259.27 503.118C255.838 501.936 242.497 502.246 237.898 502.23C234.589 503.632 226.926 504.47 222.957 505.073C219.768 505.196 214.247 505.584 211.362 504.792L211.014 504.694C208.289 503.951 206.751 502.418 204.593 500.607C205.676 498.393 205.965 497.65 207.656 495.897C205.863 494.56 195.356 492.578 191.272 490.453C185.394 487.393 179.95 484 177.491 477.3L176.652 475.031L176.309 470.83C176.597 469.022 176.599 468.525 176.518 466.707C177.348 466.351 180.43 462.646 181.243 461.711L181.836 461.561Z"/><path fill="#203159" d="M207.656 495.897L208.524 494.887C210.258 494.793 216.647 496.341 217.68 497.305C217.53 502.607 217.941 503.359 222.957 505.073C219.768 505.196 214.247 505.584 211.362 504.792L211.014 504.694C208.289 503.951 206.751 502.418 204.593 500.607C205.676 498.393 205.965 497.65 207.656 495.897Z"/><path fill="#FB9F86" d="M217.68 497.305C224.307 499.378 231.06 501.023 237.898 502.23C234.589 503.632 226.926 504.47 222.957 505.073C217.941 503.359 217.53 502.607 217.68 497.305Z"/><path fill="#254171" d="M265.577 457.274C276.699 456.491 291.003 457.807 300.815 457.014C304.252 458.947 306.393 461.104 307.38 465C311.498 481.255 284.274 486.258 276.267 493.035C274.752 493.561 274.194 493.746 272.761 494.59C271.334 494.613 264.229 493.529 262.407 493.281C260.9 491.91 250.363 487.229 247.072 485.203C251.506 483.569 269.139 470.765 274.361 467.483C279.155 464.469 285.446 460.648 290.43 457.657C282.718 457.336 273.006 458.038 265.577 457.274Z"/><path fill="#F2BA64" d="M219.218 363.62C222.025 366.759 224.487 368.798 228.188 370.906C228.972 370.131 230.91 368.307 231.414 367.507L233.41 364.298L238.518 366.838C240.822 368.109 240.522 367.483 241.326 369.528C240.182 381.742 238.819 392.952 234.228 404.453C224.43 393.448 215.291 380.677 207.251 368.333C208.184 367.836 211.436 366.888 212.625 366.515C215.569 365.584 216.515 365.303 219.218 363.62Z"/><path fill="#F8F8FA" d="M219.218 363.62C222.025 366.759 224.487 368.798 228.188 370.906C228.972 370.131 230.91 368.307 231.414 367.507L233.41 364.298L238.518 366.838C235.213 371.528 235.912 381.294 233.599 384.66C232.946 382.878 232.324 380.47 231.783 378.604C230.516 377.802 230.183 377.498 228.658 377.492C227.264 378.519 227.681 378.125 227.213 380.158L227.042 380.158C226.862 382.017 226.925 385.584 226.897 387.573C224.557 384.801 213.831 369.358 212.625 366.515C215.569 365.584 216.515 365.303 219.218 363.62Z"/><path fill="#262D3E" d="M227.042 380.158C226.998 378.077 224.83 374.036 228.358 371.942C231.532 372.583 232.088 375.819 231.783 378.604C230.516 377.802 230.183 377.498 228.658 377.492C227.264 378.519 227.681 378.125 227.213 380.158L227.042 380.158Z"/><path fill="#203159" d="M227.213 380.158C227.681 378.125 227.264 378.519 228.658 377.492C230.183 377.498 230.516 377.802 231.783 378.604C232.324 380.47 232.946 382.878 233.599 384.66C234.256 387.547 233.07 392.681 232.432 395.586C230.526 392.837 228.927 390.274 227.178 387.422L227.213 380.158Z"/><path fill="#FB9F86" d="M229.648 443.816C234.838 443.749 238.946 442.938 242.913 446.092C242.224 448.408 241.585 452.008 239.706 453.185L237.838 452.887C234.83 452.231 231.07 451.784 227.959 451.341L229.648 443.816Z"/><path fill="#C9A157" d="M187.816 442.438C188.686 442.768 191.273 443.665 191.592 444.553C193.037 448.575 192.859 451.983 191.109 455.86C189.798 458.765 188.97 458.621 185.976 459.432C189.601 453.761 190.093 448.757 187.816 442.438Z"/><path fill="#DEEBFA" d="M318.842 407.5C328.32 407.63 337.799 407.664 347.278 407.603L347.265 467.238C362.725 468.793 378.368 469.628 393.706 471.249C394.831 472.758 395.919 473.514 395.442 475.418C394.496 479.195 392.29 486.013 396.381 489.032C398.767 494.053 396.227 494.184 395.89 498.564C377.925 497.184 352.307 502.286 333.01 502.475C327.472 504.845 323.41 501.753 319.65 498.011C316.482 498.117 300.439 498.102 298.939 498.948C297.68 500.957 297.069 501.958 295.492 503.706C290.242 505.989 287.127 506.597 281.385 505.806C276.454 504.47 264.611 503.465 259.27 503.118C259.892 499.867 260.752 496.136 262.407 493.281C264.229 493.529 271.334 494.613 272.761 494.59C274.194 493.746 274.752 493.561 276.267 493.035C284.274 486.258 311.498 481.255 307.38 465C306.393 461.104 304.252 458.947 300.815 457.014C301.36 456.848 301.895 456.669 302.41 456.42C305.351 454.998 316.802 413.966 318.842 407.5Z"/><path fill="#F0D9BA" d="M331.675 465.712C334.566 465.969 345.151 467.263 347.265 467.238C362.725 468.793 378.368 469.628 393.706 471.249C394.831 472.758 395.919 473.514 395.442 475.418C394.496 479.195 392.29 486.013 396.381 489.032C398.767 494.053 396.227 494.184 395.89 498.564C377.925 497.184 352.307 502.286 333.01 502.475C338.533 495.602 341.097 484.612 338.418 476.105L337.077 472.808C335.874 470.221 333.625 467.757 331.675 465.712Z"/><path fill="#F2BA64" d="M319.65 498.011C313.636 488.044 315.864 463.847 331.675 465.712C333.625 467.757 335.874 470.221 337.077 472.808L338.418 476.105C341.097 484.612 338.533 495.602 333.01 502.475C327.472 504.845 323.41 501.753 319.65 498.011Z"/><path fill="#CEA57E" d="M329.629 477C334.153 481.907 335.114 493.417 328.722 495.065C321.754 493.492 319.773 483.173 321.168 477.263C323.072 469.191 331.55 471.297 337.077 472.808L338.418 476.105L338.039 476.552C336.475 477.211 331.589 477.001 329.629 477Z"/><path fill="#FB9F86" d="M262.407 493.281C264.229 493.529 271.334 494.613 272.761 494.59C278.97 495.688 291.908 497.442 281.385 505.806C276.454 504.47 264.611 503.465 259.27 503.118C259.892 499.867 260.752 496.136 262.407 493.281Z"/><path fill="#203159" d="M276.267 493.035C283.902 491.635 294.404 491.492 298.939 498.948C297.68 500.957 297.069 501.958 295.492 503.706C290.242 505.989 287.127 506.597 281.385 505.806C291.908 497.442 278.97 495.688 272.761 494.59C274.194 493.746 274.752 493.561 276.267 493.035Z"/><path fill="#6E2C46" d="M244.168 333.178L244.907 334.659C250.921 348.325 246.355 350.727 245.436 363.151C246.864 366.291 248.164 368.999 249.179 372.308C246.601 371.392 244.419 369.166 241.962 368.679L241.326 369.528C240.522 367.483 240.822 368.109 238.518 366.838L233.41 364.298C233.401 363.958 233.864 361.254 233.946 360.732C242.348 352.678 243.941 344.737 239.878 333.885C241.575 333.719 242.508 333.544 244.168 333.178Z"/><path fill="#DEEBFA" d="M252.003 322.352C249.652 326.778 247.724 330.474 244.907 334.659L244.168 333.178C243.859 331.056 243.375 327.88 243.813 325.855C246.363 324.66 249.374 323.462 252.003 322.352Z"/><path fill="#DEEBFA" d="M348.136 240.286C349.271 241.434 348.643 245.935 348.548 247.632C346.496 284.445 347.274 321.495 347.345 358.38L288.359 358.602L287.943 358.053C290.709 352.175 295.857 343.888 299.112 337.861C307.818 321.744 317.313 305.688 325.75 289.432C330.531 280.048 335.017 270.516 339.202 260.851C341.717 254.938 345.243 245.692 348.136 240.286Z"/><path fill="#728AE0" d="M103.733 232.515C112.961 234.234 117.415 239.632 125.646 243.123C130.536 244.695 132.536 240.419 132.767 236.039C133.732 217.783 105.545 159.038 124.58 145.508C147.227 129.411 159.036 178.737 162.799 192.08C164.736 198.948 165.159 208.68 167.725 215.572C174.598 235.738 185.804 215.902 196.219 207.634C195.09 223.84 196.449 239.62 195.08 255.739C192.946 280.859 182.394 296.88 167.744 316.386C166.893 316.082 167.18 316.353 166.778 315.645C166.315 316.852 166.203 317.597 165.118 318.235C165.515 320.638 154.598 340.132 152.584 346.282C146.321 365.404 145.27 376.199 145.553 395.897C144.752 394.472 145.09 384.401 145.108 382.067C136.701 367.255 129.513 358.202 118.201 345.509C116.887 344.609 115.042 342.841 113.851 341.713C106.98 335.207 99.8684 329.509 92.3302 323.801C94.7834 304.281 83.7894 295.616 72.4442 281.771C64.5121 272.09 52.4087 258.75 51.4217 245.919C50.654 235.939 53.9517 225.093 65.8291 224.986C76.4418 224.89 85.441 233.897 92.5392 240.62C97.5242 236.952 95.0373 235.049 103.733 232.515Z"/><path fill="#C9A157" d="M92.3302 323.801C94.7834 304.281 83.7894 295.616 72.4442 281.771C64.5121 272.09 52.4087 258.75 51.4217 245.919C50.654 235.939 53.9517 225.093 65.8291 224.986C76.4418 224.89 85.441 233.897 92.5392 240.62C90.1481 245.2 92.5511 256.215 94.1297 260.855C102.568 285.655 119.43 306.867 128.248 331.503C129.879 336.06 130.111 343.506 124.535 345.442C123.004 345.976 119.958 345.634 118.201 345.509C116.887 344.609 115.042 342.841 113.851 341.713C106.98 335.207 99.8684 329.509 92.3302 323.801Z"/><path fill="#F8F8FA" d="M165.118 318.235C159.357 280.093 153.82 241.82 144.381 204.268C143.984 202.69 143.729 202.067 143.944 200.425L144.643 199.971C146.784 201.854 149.987 220.28 150.843 224.158C157.456 254.09 163.203 285.183 166.778 315.645C166.315 316.852 166.203 317.597 165.118 318.235Z"/><path fill="#203159" d="M327.423 104.17C334.083 104.944 347.113 105.144 354.172 105.428C364.079 105.828 379.082 106.995 388.596 106.472C400.817 109.875 405.734 108.588 418.006 109.1C428.337 109.532 438.596 110.19 449.023 110.154C453.416 110.138 459.338 109.668 463.477 109.957C458.064 115.685 449.138 118.095 445.661 124.797C432.963 135.266 416.879 145.77 404.995 155.882C408.757 166.828 411.646 178.148 415.333 189.2L409.614 194.113C403.718 196.983 396.954 201.641 391.199 204.104C363.037 216.157 338.917 222.02 308.706 223.663C300.758 223.115 297.623 197.806 294.349 189.891L294.214 189.572C281.443 189.245 268.24 188.248 255.377 187.754C255.31 177.964 255.081 167.651 255.417 157.908C256.949 157.185 261.569 153.288 263.168 151.996C265.017 151.278 276.848 142.11 279.183 140.42C295.351 128.718 311.26 115.79 327.423 104.17Z"/><path fill="#254171" d="M290.573 175.315C298.451 166.48 315.217 157.858 326.354 153.06C345.27 144.821 365.644 140.447 386.275 140.197C405.055 139.887 398.851 141.711 404.798 155.437L404.995 155.882C408.757 166.828 411.646 178.148 415.333 189.2L409.614 194.113C403.718 196.983 396.954 201.641 391.199 204.104C363.037 216.157 338.917 222.02 308.706 223.663C300.758 223.115 297.623 197.806 294.349 189.891L294.214 189.572C293.267 184.994 291.785 179.878 290.573 175.315Z"/><path fill="#203159" d="M228.062 304.521C236.816 307.173 248.153 312.767 256.518 314.99C258.83 316.387 259.941 316.862 262.464 317.857C260.11 318.841 254.058 321.814 252.003 322.352C249.374 323.462 246.363 324.66 243.813 325.855C243.375 327.88 243.859 331.056 244.168 333.178C242.508 333.544 241.575 333.719 239.878 333.885C236.164 333.516 232.148 333.679 228.434 333.897C223.895 333.07 214.366 334.725 209.361 335.456C209.351 333.337 210.085 330.937 209.237 329.054L203.486 327.219L203.123 326.885L201.532 327.123L201.261 326.678C201.616 324.726 201.466 318.774 201.455 316.49L202.959 316.007C204.82 314.424 224.667 305.975 228.062 304.521Z"/><path fill="#254171" d="M210.161 322.175C221.727 318.751 231.117 316.555 243.16 319.121C243.158 321.432 242.99 323.702 243.813 325.855C243.375 327.88 243.859 331.056 244.168 333.178C242.508 333.544 241.575 333.719 239.878 333.885C236.164 333.516 232.148 333.679 228.434 333.897C223.895 333.07 214.366 334.725 209.361 335.456C209.351 333.337 210.085 330.937 209.237 329.054C210.344 327.037 210.13 324.515 210.161 322.175Z"/><path fill="#C9A157" d="M202.959 316.007C202.853 318.752 202.466 324.377 203.123 326.885L201.532 327.123L201.261 326.678C201.616 324.726 201.466 318.774 201.455 316.49L202.959 316.007Z"/><path fill="#C9A157" d="M251.975 157.583C254.709 152.636 257.782 151.959 263.168 151.996C261.569 153.288 256.949 157.185 255.417 157.908C255.081 167.651 255.31 177.964 255.377 187.754L255.671 231.455C262.057 235.881 260.894 239.581 257.177 245.038C261.533 256.016 263.188 258.958 261.755 270.707C256.77 272.115 249.545 273.021 244.278 273.835C244.607 271.414 244.631 266.417 244.752 263.795C245.108 256.046 246.673 251.787 249.493 244.67C245.254 239.313 245.581 235.809 251.029 231.522C251.028 216.84 251.131 202.159 251.336 187.478C251.577 178.833 251.43 169.889 251.393 161.217L251.975 157.583Z"/><path fill="#FB9F86" d="M228.434 333.897C232.148 333.679 236.164 333.516 239.878 333.885C243.941 344.737 242.348 352.678 233.946 360.732C233.864 361.254 233.401 363.958 233.41 364.298L231.414 367.507C230.91 368.307 228.972 370.131 228.188 370.906C224.487 368.798 222.025 366.759 219.218 363.62C219.057 358.255 219.52 355.907 218.329 350.567C216.043 348.3 211.897 344.885 213.929 341.594C216.973 340.394 216.56 341.514 219.282 341.415C222.44 341.301 226.434 336.178 228.434 333.897Z"/><path fill="#E78672" d="M231.414 367.507C228.332 361.655 223.617 363.698 220.227 355.87C224.92 360.038 227.389 362.91 233.946 360.732C233.864 361.254 233.401 363.958 233.41 364.298L231.414 367.507Z"/><path fill="#6E2C46" d="M209.361 335.456C214.366 334.725 223.895 333.07 228.434 333.897C226.434 336.178 222.44 341.301 219.282 341.415C216.56 341.514 216.973 340.394 213.929 341.594C211.897 344.885 216.043 348.3 218.329 350.567C219.52 355.907 219.057 358.255 219.218 363.62C216.515 365.303 215.569 365.584 212.625 366.515C211.436 366.888 208.184 367.836 207.251 368.333C197.343 369.854 193.021 377.994 188.837 385.931C183.15 365.807 195.996 367.245 204.105 355.667C205.387 353.837 205.429 345.172 206.15 341.419C207.469 339.256 208.269 337.743 209.361 335.456Z"/><path fill="#203159" d="M251.393 161.217C251.43 169.889 251.577 178.833 251.336 187.478C240.648 187.373 229.169 186.569 218.439 186.001C227.463 178.515 241.716 168.018 251.393 161.217Z"/><path fill="#F8F8FA" d="M203.486 327.219L209.237 329.054C210.085 330.937 209.351 333.337 209.361 335.456C208.269 337.743 207.469 339.256 206.15 341.419L204.728 340.903C204.045 337.893 201.911 329.842 203.486 327.219Z"/><path fill="#203159" d="M201.455 316.49C201.466 318.774 201.616 324.726 201.261 326.678C197.204 325.28 193.113 323.761 189.07 322.303C193.287 320.133 197.137 318.399 201.455 316.49Z"/><path fill="#F2BA64" d="M203.123 326.885L203.486 327.219C201.911 329.842 204.045 337.893 204.728 340.903C204.075 343.397 204.146 344.247 201.533 344.829L200.773 344.162C199.285 340.547 200.97 331.349 201.532 327.123L203.123 326.885Z"/><path fill="#728AE0" d="M223.19 268.242C227.657 274.784 223.806 274.596 233.342 278.066C226.557 280.378 226.148 280.444 223.887 287.224L223.095 287.033C220.611 279.883 220.642 280.479 213.447 278.227C220.577 275.513 221.096 275.589 223.19 268.242Z"/><path fill="#336EBF" d="M791.721 189.164C817.519 189.843 845.706 189.284 871.683 189.268L871.701 321.209C876.298 323.376 884.481 325.59 887.849 327.503C886.731 332.143 885.46 337.057 884.434 341.693C882.971 347.223 881.269 353.188 880.091 358.749C880.672 360.967 881.081 361.987 882.749 363.685C890.843 369.492 896.681 368.022 903.041 370.926L909.493 372.77C910.136 374.817 910.303 375.524 911.488 377.301C908.859 384.187 906.068 392.252 903.237 398.91L900.055 408.087C897.707 407.216 875.848 407.624 871.614 407.657L871.648 476.446C852.983 476.48 827.917 477.244 809.79 476.176C809.541 453.458 809.803 430.397 809.867 407.655L689.742 407.708C689.76 401.29 689.112 368.354 690.466 364.852C694.325 354.871 708.353 332.794 714.423 322.229L791.721 189.164Z"/><path fill="#F2BA64" d="M868.352 320.434L871.701 321.209C876.298 323.376 884.481 325.59 887.849 327.503C886.731 332.143 885.46 337.057 884.434 341.693C881.223 340.931 874.774 336.162 871.691 334.104C869.597 332.634 866.687 330.119 864.622 328.426C866.045 325.65 867.262 323.374 868.352 320.434Z"/><path fill="#DEEBFA" d="M871.691 334.104C874.774 336.162 881.223 340.931 884.434 341.693C882.971 347.223 881.269 353.188 880.091 358.749C878.189 358.772 873.8 358.326 871.721 358.166L871.691 334.104Z"/><path fill="#FB9F86" d="M864.622 328.426C860.142 326.541 853.085 324.208 851.631 319.151C852.361 314.429 856.461 313.58 860.674 313.103C862.43 312.904 866.491 318.785 868.352 320.434C867.262 323.374 866.045 325.65 864.622 328.426Z"/><path fill="#DEEBFA" d="M903.041 370.926L909.493 372.77C910.136 374.817 910.303 375.524 911.488 377.301C908.859 384.187 906.068 392.252 903.237 398.91C902.577 395.819 903.003 374.943 903.041 370.926Z"/><path fill="#DEEBFA" d="M810.571 240.294L810.983 240.701C811.644 242.942 810.217 265.026 810.125 268.96C809.428 298.772 809.753 328.669 809.799 358.482L751.19 358.597L750.577 357.968C751.65 354.838 759.426 341.439 761.334 337.929C769.771 322.406 778.975 306.964 787.144 291.29C791.921 282.047 796.394 272.65 800.557 263.115C803.589 256.052 807.072 246.92 810.571 240.294Z"/><path fill="#C9A157" d="M926.457 158.512C933.931 151.962 944.746 149.858 950.462 143.259C960.73 131.251 965.461 102.574 986.385 103.744C1006.19 104.851 1004.41 123.263 1004.17 136.969C1003.93 151.089 968.148 193.827 990.337 200.55C971.011 215.525 952.666 239.758 941.961 261.649C937.726 270.31 935.049 278.924 931.554 287.662L929.997 284.662C928.881 287.823 928.885 288.957 926.489 291.576C923.173 295.199 918.931 297.321 915.974 291.914L917.262 290.204C915.953 288.381 915.644 288.231 913.66 287.145C907.13 287.285 905.329 279.117 904.14 274.131C904.45 272.419 903.989 265.212 904.213 261.953C901.23 259.437 897.445 255.268 899.14 251.216C902.758 247.739 908.258 249.491 912.7 249.388C914.185 249.354 917.464 248.356 919.011 247.905C919.85 246.143 923.417 241.838 924.829 240.053C936.589 225.264 953.441 204.097 940.48 184.887C933.987 175.265 927.146 171.039 926.457 158.512Z"/><path fill="#FB9F86" d="M919.011 247.905C928.242 248.112 925.285 251.789 934.317 254.938L935.885 257.968C935.81 262.897 935.976 268.746 932.916 272.941C932.515 273.659 930.865 276.489 930.734 277.073C931.054 279.016 930.536 282.779 929.997 284.662C928.881 287.823 928.885 288.957 926.489 291.576C923.173 295.199 918.931 297.321 915.974 291.914L917.262 290.204C915.953 288.381 915.644 288.231 913.66 287.145C907.13 287.285 905.329 279.117 904.14 274.131C904.45 272.419 903.989 265.212 904.213 261.953C901.23 259.437 897.445 255.268 899.14 251.216C902.758 247.739 908.258 249.491 912.7 249.388C914.185 249.354 917.464 248.356 919.011 247.905Z"/><path fill="#203159" d="M919.011 247.905C928.242 248.112 925.285 251.789 934.317 254.938L935.885 257.968C935.81 262.897 935.976 268.746 932.916 272.941C931.941 271.694 932.091 272.02 930.468 271.35C929.168 269.96 928.877 269.689 927.276 268.634L926.017 269.021C925.208 270.373 924.822 270.862 923.842 272.043C922.29 269.203 923.728 266.558 922.037 263.697C918.563 261.474 910.727 263.351 904.213 261.953C901.23 259.437 897.445 255.268 899.14 251.216C902.758 247.739 908.258 249.491 912.7 249.388C914.185 249.354 917.464 248.356 919.011 247.905Z"/><path fill="#CEA57E" d="M923.842 272.043C924.822 270.862 925.208 270.373 926.017 269.021L927.276 268.634C928.877 269.689 929.168 269.96 930.468 271.35C932.091 272.02 931.941 271.694 932.916 272.941C932.515 273.659 930.865 276.489 930.734 277.073C929.172 278.61 929.395 278.866 927.558 279.31L926.235 278.339C926.416 275.537 926.798 275.533 925.362 273.872L925.046 272.706L923.842 272.043Z"/><path fill="#262D3E" d="M930.468 271.35C932.091 272.02 931.941 271.694 932.916 272.941C932.515 273.659 930.865 276.489 930.734 277.073C929.172 278.61 929.395 278.866 927.558 279.31L926.235 278.339C926.906 276.001 929.013 273.52 930.468 271.35Z"/><path fill="#E78672" d="M924.389 281.442L924.844 281.457C923.429 285.605 918.547 288.201 917.262 290.204C915.953 288.381 915.644 288.231 913.66 287.145C914.025 287.078 914.064 287.033 914.399 287.095C919.206 287.978 921.524 284.87 924.389 281.442Z"/><path fill="#F5F4E2" d="M934.317 254.938C944.683 215.308 955.245 177.707 972.608 140.271C974.862 135.411 978.446 127.41 981.629 123.386L982.531 123.146C982.591 123.664 947.959 202.364 947.782 213.865C947.799 212.741 936.09 257.381 935.885 257.968L934.317 254.938Z"/><path fill="#82B9F1" d="M879.655 126.714C879.74 126.647 879.829 126.584 879.911 126.513C886.193 121.095 883.691 93.6647 908.128 94.8515C913.075 95.0918 917.591 97.193 920.892 100.891C927.163 107.919 929.826 120.395 929.226 129.58C928.7 137.644 923.88 151.221 926.457 158.512C927.146 171.039 933.987 175.265 940.48 184.887C953.441 204.097 936.589 225.264 924.829 240.053C923.417 241.838 919.85 246.143 919.011 247.905C917.464 248.356 914.185 249.354 912.7 249.388C908.258 249.491 902.758 247.739 899.14 251.216C897.445 255.268 901.23 259.437 904.213 261.953C903.989 265.212 904.45 272.419 904.14 274.131C901.424 270.467 898.769 263.145 896.834 259.015C885.592 235.024 893.224 215.093 894.563 190.86C895.606 171.987 888.616 143.203 879.655 126.714Z"/><defs><linearGradient id="gradient_0" gradientUnits="userSpaceOnUse" x1="752.95178" y1="436.59808" x2="765.39233" y2="503.79175"><stop offset="0" stop-color="#854171"/><stop offset="1" stop-color="#9855A1"/></linearGradient></defs><path fill="url(#gradient_0)" d="M779.117 441.992C782.775 441.972 791.173 441.334 793.526 443.383L793.226 444.302C789.346 446.206 769.387 445.424 763.395 445.457C769.39 446.813 785.695 445.227 789.998 446.337C789.705 447.889 789.491 448.204 788.749 449.551L789.032 450.191C789.128 451.734 789.408 453.036 788.689 454.332L788.947 455.271L789.129 459.618L789.109 460.763C789.06 462.836 789.363 462.132 788.116 463.506C784.687 464.42 783.058 463.777 780.393 464.386C783.054 464.403 790.526 464.054 792.57 464.872C793.195 465.919 793.405 466.313 793.834 467.454C795.463 467.813 796.621 467.811 798.174 468.064C812.939 470.463 814.969 489.422 804.365 498.133C789.287 499.791 778.565 499.535 763.431 499.296C755.411 499.17 747.8 500.341 739.03 500.041C739.347 498.171 745.78 493.878 746.169 487.554C746.49 482.339 746.032 477.252 742.481 472.699C736.441 464.955 724.143 468.805 715.055 467.809C705.008 459.503 705.308 450.87 714.847 442.514C719.596 442.434 732.963 442.789 736.832 442.137C748.464 442.292 767.923 443.037 779.117 441.992Z"/><path fill="#F8F8FA" d="M780.393 464.386C780.055 464.406 779.716 464.423 779.377 464.436C767.213 464.919 754.854 464.491 742.671 464.503C735.201 464.511 726.821 465.255 719.443 464.37C717.661 464.156 715.844 463.468 714.542 462.199C712.739 460.442 711.993 457.674 711.972 455.226C711.949 452.534 712.522 449.417 714.572 447.488C718.35 443.932 755.807 445.425 763.395 445.457C769.39 446.813 785.695 445.227 789.998 446.337C789.705 447.889 789.491 448.204 788.749 449.551L789.032 450.191C789.128 451.734 789.408 453.036 788.689 454.332L788.947 455.271L789.129 459.618L789.109 460.763C789.06 462.836 789.363 462.132 788.116 463.506C784.687 464.42 783.058 463.777 780.393 464.386Z"/><path fill="#AFCADF" d="M789.032 450.191L751.812 450.313C744.376 450.327 735.239 450.603 728.005 449.986C729.96 448.699 782.671 448.976 788.749 449.551L789.032 450.191Z"/><path fill="#CFD7DD" d="M789.129 459.618L789.109 460.763L754.887 460.732C748.654 460.767 736.862 461.31 731.095 460.174C735.116 459.56 746.231 459.669 750.797 459.646L789.129 459.618Z"/><path fill="#CFD7DD" d="M788.947 455.271C779.752 455.312 753.494 455.976 745.916 454.915C749.438 453.558 782.107 454.311 788.689 454.332L788.947 455.271Z"/><path fill="#C9A157" d="M828.293 76.7878C832.979 80.9298 833.853 83.2254 839.587 79.3407C843.104 82.7195 846.402 85.6265 850.028 88.8356C852.852 91.3344 855.408 94.7644 858.316 97.1499L856.001 102.718C857.76 105.439 858.539 106.355 860.691 108.718L856.037 114.895C856.785 116.57 857.948 118.968 858.559 120.626L851.88 124.865C851.934 126.938 852.288 129.549 851.189 131.198C849.774 132.117 848.385 131.828 846.809 131.484C843.199 132.063 842.302 135.604 840.662 138.74L833.988 135.494C832.876 136.661 830.184 139.625 829.048 140.486L828.182 140.384C827 139.571 823.554 136.605 822.105 135.469L816.979 139.249C815.431 136.649 813.245 132.582 810.691 131.145C809.429 131.457 808.495 131.562 807.224 131.717C802.483 129.124 810.023 125.011 798.32 121.607L800.719 114.574C799.446 112.91 797.243 110.594 795.793 108.971C800.89 103.683 801.624 103.744 798.113 97.0528C800.167 95.8353 803.134 94.5061 805.339 93.4388L805.58 86.0397L812.713 85.9771C813.947 83.8448 815.345 81.0048 816.521 78.7732L823.115 82.0673C824.817 80.2844 826.543 78.5244 828.293 76.7878Z"/><path fill="#F5F4E2" d="M825.719 85.5325C838.708 83.9985 850.457 93.3463 851.877 106.345C853.298 119.345 843.846 131.008 830.832 132.315C817.978 133.605 806.487 124.297 805.084 111.457C803.681 98.6181 812.89 87.0477 825.719 85.5325Z"/><path fill="#C9A157" d="M823.669 87.7628C831.286 86.0157 839.253 88.5054 844.52 94.2781C849.786 100.051 851.535 108.212 849.096 115.635C846.657 123.058 840.409 128.593 832.744 130.119C821.129 132.431 809.81 124.991 807.329 113.413C804.848 101.835 812.125 90.4105 823.669 87.7628Z"/><path fill="#F8F8FA" d="M725.136 472.293C730.225 472.116 734.07 471.486 738.086 475.305C744.635 481.534 741.969 495.216 732.305 496.298C725.057 497.109 716.913 496.768 709.552 496.754L665.951 496.743C665.193 498.34 664.952 498.992 663.787 500.345C659.982 501.816 658.763 502.62 654.76 501.784C653.274 501.339 651.336 501.351 649.738 501.28L644.795 501.334L644.864 496.965L645.062 490.219C645.49 488.879 645.752 486.672 644.953 485.45C642.793 483.959 638.561 484.469 635.781 484.531C639.765 484.303 643.1 484.595 647.284 484.092C646.652 482.533 645.705 480.393 646.486 478.903C664.838 477.466 688.876 479.631 708.052 478.641C691.046 476.741 664.271 479.47 646.467 478.09L646.072 477.349C645.45 476.299 645.662 475.461 645.742 474.208C645.961 473.923 646.222 473.583 646.525 473.187C664.337 472.165 686.296 473.082 703.752 472.918C711.123 472.848 721.201 473.418 725.136 472.293Z"/><path fill="#DC657B" d="M647.284 484.092L649.79 484.172L654.789 484.242C660.177 484.251 664.142 485.025 666.165 490.743L666.291 491.367C666.214 492.522 665.914 495.751 665.951 496.743C665.193 498.34 664.952 498.992 663.787 500.345C659.982 501.816 658.763 502.62 654.76 501.784C653.274 501.339 651.336 501.351 649.738 501.28L644.795 501.334L644.864 496.965L645.062 490.219C645.49 488.879 645.752 486.672 644.953 485.45C642.793 483.959 638.561 484.469 635.781 484.531C639.765 484.303 643.1 484.595 647.284 484.092Z"/><path fill="#3962A5" d="M647.284 484.092L649.79 484.172L654.789 484.242L654.76 501.784C653.274 501.339 651.336 501.351 649.738 501.28L644.795 501.334L644.864 496.965L645.062 490.219C645.49 488.879 645.752 486.672 644.953 485.45C642.793 483.959 638.561 484.469 635.781 484.531C639.765 484.303 643.1 484.595 647.284 484.092Z"/><path fill="#AFCADF" d="M647.284 484.092L649.79 484.172C649.78 489.769 649.866 495.711 649.738 501.28L644.795 501.334L644.864 496.965L645.062 490.219C645.49 488.879 645.752 486.672 644.953 485.45C642.793 483.959 638.561 484.469 635.781 484.531C639.765 484.303 643.1 484.595 647.284 484.092Z"/><path fill="#AFCADF" d="M646.072 477.349C660.214 476.48 677.438 477.499 691.831 477.179C697.048 477.063 718.506 476.873 722.404 477.799C719.676 479.015 711.382 478.7 708.052 478.641C691.046 476.741 664.271 479.47 646.467 478.09L646.072 477.349Z"/><path fill="#AFCADF" d="M666.165 490.743C671.489 489.945 681.963 490.173 687.558 490.194C697.092 490.228 707.507 490.097 716.982 490.664C715.714 492 671.135 491.928 666.291 491.367L666.165 490.743Z"/><path fill="#AFCADF" d="M660.833 483.949C665.899 483.493 696.751 482.89 699.911 484.486C695.189 485.086 664.603 485.251 660.833 483.949Z"/><path fill="#F0D9BA" d="M412.496 471.01C422.748 470.25 432.89 470.021 443.063 468.932C451.624 468.016 461.992 465.771 470.133 465.674C477.301 465.589 481.911 480.319 481.284 486.412C480.904 490.112 477.668 496.198 477.904 497.688L479.63 498.132C473.182 497.951 472.746 502.356 467.474 502.082C450.639 501.209 434.763 498.309 417.836 498.386L414.764 491.19C418.508 486.355 420.29 482.195 417.244 476.383C416 474.387 414.162 472.691 412.496 471.01Z"/><path fill="#C9A157" d="M535.862 484.845C542.035 484.088 555.96 484.558 562.634 484.583L603.506 484.583C612.641 484.659 626.82 485.082 635.781 484.531C638.561 484.469 642.793 483.959 644.953 485.45C645.752 486.672 645.49 488.879 645.062 490.219L644.864 496.965L644.795 501.334C620.597 500.904 596.142 501.457 571.956 501.319C565.706 501.284 541.439 501.856 536.981 500.541L536.519 497.701L537.371 496.691C537.378 494.449 537.276 495.012 535.722 492.845C535.795 491.146 536.234 491.284 537.796 489.685C537.408 488.287 536.472 486.196 535.862 484.845Z"/><path fill="#F2BA64" d="M535.862 484.845C542.035 484.088 555.96 484.558 562.634 484.583L603.506 484.583C612.641 484.659 626.82 485.082 635.781 484.531C638.561 484.469 642.793 483.959 644.953 485.45C645.752 486.672 645.49 488.879 645.062 490.219C643.035 489.684 638.861 489.843 636.624 489.852C603.734 489.978 570.67 489.161 537.796 489.685C537.408 488.287 536.472 486.196 535.862 484.845Z"/><path fill="#B28740" d="M537.371 496.691C558.289 495.758 581.028 496.608 602.125 496.272C608.827 496.165 639.495 495.931 644.864 496.965L644.795 501.334C620.597 500.904 596.142 501.457 571.956 501.319C565.706 501.284 541.439 501.856 536.981 500.541L536.519 497.701L537.371 496.691Z"/><path fill="#884672" d="M673.346 441.99C686.953 442.232 701.37 442.117 714.847 442.514C705.308 450.87 705.008 459.503 715.055 467.809C701.799 467.964 688.525 467.655 675.264 467.906C672.358 467.961 667.844 468.538 665.193 468.065L666.787 467.686C666.552 466.654 658.881 464.539 658.727 455.368C658.635 451.782 659.993 448.31 662.493 445.737C665.956 442.229 668.738 441.959 673.346 441.99Z"/><path fill="#728AE0" d="M732.165 420.823L760.9 420.627C766.809 420.593 778.64 419.387 782.831 423.632C785.033 425.825 786.226 428.833 786.126 431.939C786.052 434.888 784.945 437.267 782.771 439.27C781.652 440.303 780.427 441.216 779.117 441.992C767.923 443.037 748.464 442.292 736.832 442.137C746.125 436.656 746.303 429.068 739.257 421.549C736.458 421.432 734.969 421.364 732.165 420.823Z"/><path fill="#633B8D" d="M715.055 467.809C724.143 468.805 736.441 464.955 742.481 472.699C746.032 477.252 746.49 482.339 746.169 487.554C745.78 493.878 739.347 498.171 739.03 500.041C725.994 500.757 671.393 496.207 663.787 500.345C664.952 498.992 665.193 498.34 665.951 496.743L709.552 496.754C716.913 496.768 725.057 497.109 732.305 496.298C741.969 495.216 744.635 481.534 738.086 475.305C734.07 471.486 730.225 472.116 725.136 472.293C701.697 471.495 677.513 472.7 653.996 472.277C650.685 472.218 641.024 473.094 639.272 470.019C640.971 466.646 660.775 467.909 665.193 468.065C667.844 468.538 672.358 467.961 675.264 467.906C688.525 467.655 701.799 467.964 715.055 467.809Z"/><path fill="#336EBF" d="M673.346 441.99C673.526 440.772 673.583 440.694 674.143 439.582C677.435 438.999 686.612 439.289 690.499 439.303L722.443 439.417C726.756 439.426 731.649 439.649 735.95 438.873C742.096 437.762 742.256 426.224 736.547 424.178C732.375 422.683 726.065 423.831 722.026 423.405C713.534 422.509 678.423 425.276 672.854 422.478C672.9 422.42 672.937 422.355 672.99 422.304C675.833 419.557 724.432 420.81 732.165 420.823C734.969 421.364 736.458 421.432 739.257 421.549C746.303 429.068 746.125 436.656 736.832 442.137C732.963 442.789 719.596 442.434 714.847 442.514C701.37 442.117 686.953 442.232 673.346 441.99Z"/><path fill="#8E5AAD" d="M840.662 138.74C842.302 135.604 843.199 132.063 846.809 131.484C849.953 139.442 853.476 149.258 856.82 156.989C852.326 155.273 848.789 154.013 844.182 152.663C842.468 156.512 840.813 160.333 838.844 164.062C836.856 159.097 831.359 144.403 829.048 140.486C830.184 139.625 832.876 136.661 833.988 135.494L840.662 138.74Z"/><path fill="#8E5AAD" d="M810.691 131.145C813.245 132.582 815.431 136.649 816.979 139.249L822.105 135.469C823.554 136.605 827 139.571 828.182 140.384C825.075 148.295 821.88 156.17 818.597 164.009C816.761 159.975 814.874 156.417 812.796 152.522C809.12 153.949 804.749 155.345 800.976 156.652C803.332 150.203 807.839 136.82 810.691 131.145Z"/><path fill="#203159" d="M884.24 482.811C886.418 483.154 890.945 484.663 892.724 485.905C892.144 487.956 891.399 490.309 891.117 492.392L889.284 498.684L888.303 499.365C883.231 499.861 878.315 498.723 873.342 497.764C870.382 495.946 862.554 495.141 861.645 491.82C863.932 488.649 875.777 488.74 880.557 487.804C882.437 486.279 883.342 485.002 884.24 482.811Z"/><path fill="#FB9F86" d="M884.24 482.811C886.418 483.154 890.945 484.663 892.724 485.905C892.144 487.956 891.399 490.309 891.117 492.392C887.786 491.468 883.755 489.353 880.557 487.804C882.437 486.279 883.342 485.002 884.24 482.811Z"/><path fill="#F0D9BA" d="M521.498 490.154C526.319 488.476 531.108 486.706 535.862 484.845C536.472 486.196 537.408 488.287 537.796 489.685C536.234 491.284 535.795 491.146 535.722 492.845C537.276 495.012 537.378 494.449 537.371 496.691L536.519 497.701L536.981 500.541C531.203 498.598 529.433 498.332 523.316 498.035L521.178 496.31L521.498 490.154Z"/><path fill="#262D3E" d="M521.498 490.154L521.178 496.31C518.871 495.514 515.844 494.169 513.523 493.215C516.189 492.32 518.878 491.198 521.498 490.154Z"/><path fill="#336EBF" d="M554.209 184.81C557.25 184.241 563.125 184.431 566.338 184.371C627.368 183.232 657.491 232.743 664.317 288.096C670.564 338.76 669.563 402.667 638.135 446.157C622.713 467.498 602.382 477.156 576.973 480.828C501.301 486.852 469.762 430.877 463.697 363.774C457.512 295.345 467.052 193.096 554.209 184.81Z"/><path fill="#DEEBFA" d="M561.796 234.542C567.936 234.038 574.046 235.127 579.276 238.529C590.419 245.776 595.127 262.079 597.765 274.278C604.819 306.904 607.001 387.831 588.485 416.275C583.548 423.86 577.604 428.063 568.669 429.946C562.171 430.183 556.36 429.519 550.73 425.935C539.376 418.705 534.903 403.358 532.211 391.013C524.773 356.898 522.768 277.151 541.909 247.602C546.738 240.148 553.17 236.355 561.796 234.542Z"/><path fill="#728AE0" d="M704.342 85.1351C709.004 84.9509 713.511 84.9089 718.159 85.3935C719.055 88.1105 720.016 92.1805 720.783 95.0359C725.228 96.6637 727.738 97.7854 731.966 99.9267C734.9 97.7947 737.406 96.078 740.471 94.1416C744.778 97.7678 748.393 101.191 751.695 105.762L746.172 113.805C748.594 117.811 749.378 120.681 750.803 125.127C762.416 126.971 761.586 128.268 761.179 139.777C761.142 140.824 761.092 141.975 761.049 143.026C757.704 143.899 754.346 144.717 750.975 145.479C749.458 149.837 748.317 152.364 746.287 156.529L751.95 164.769C748.401 168.859 744.735 173.23 740.206 176.222L731.756 170.803C728.603 172.685 723.951 174.557 720.481 176.067C719.933 179.262 719.622 183.368 717.439 185.645C712.38 185.74 707.319 185.732 702.26 185.62C701.452 182.906 700.788 178.873 700.235 175.982C696.323 174.34 692.468 172.563 688.679 170.655L680.646 176.017C675.479 172.512 672.908 169.625 669.19 164.694C670.719 162.22 672.658 159.468 674.301 157.022C672.717 153.549 671.103 149.146 669.674 145.539C656.773 143.04 659.314 140.18 659.804 127.957C662.721 126.886 666.769 126.049 669.877 125.32C671.42 120.929 672.698 117.859 674.633 113.619C672.653 111.29 671.015 108.935 669.242 106.454C672.979 101.209 676.044 98.6112 681.019 94.4715C683.507 96.35 686.263 98.1103 688.867 99.8422L699.78 95.0213C700.687 91.336 700.8 86.5339 704.342 85.1351Z"/><path fill="#DEEBFA" d="M707.827 109.369C722.178 107.94 734.971 118.412 736.403 132.76C737.834 147.109 727.362 159.901 713.012 161.335C698.657 162.768 685.859 152.296 684.427 137.944C682.995 123.592 693.472 110.798 707.827 109.369Z"/><path fill="#A7C3F6" d="M646.659 55.7189C650.434 55.9829 652.534 56.5308 656.219 57.4163L656.405 63.3795C658.222 64.8163 660.556 66.2245 662.533 67.4904L667.224 65.2418C670.212 68.1393 671.277 69.9209 673.061 73.5104C666.38 79.8468 668.227 83.3024 675.827 86.8466L674.161 96.4737C672.252 96.7257 669.96 96.8582 668.012 97.0222L663.674 103.459L666.269 108.165L658.023 113.726L653.429 109.141C651.315 109.667 649.011 110.435 646.911 111.084C646.23 112.127 645.138 114.542 644.545 115.769C640.57 115.383 638.929 114.988 635.056 113.933L634.853 107.931C632.981 106.591 630.876 105.319 628.918 104.085L623.895 106.523C621.716 103.942 619.487 101.203 618.073 98.1425L622.36 93.9223L621.229 86.9839L615.538 84.702C616.131 81.2991 616.838 78.5243 617.706 75.1799L623.766 75.0435L627.476 68.9055C623.593 62.4331 628.014 61.4023 633.346 58.1956L637.414 62.4911C639.708 62.0494 642.054 61.498 644.341 60.9923C645.127 59.3401 645.915 57.4156 646.659 55.7189Z"/><path fill="#DEEBFA" d="M644.029 70.4871C649.527 69.9359 654.897 72.3825 658.089 76.8926C661.28 81.4027 661.8 87.28 659.45 92.2802C657.1 97.2805 652.243 100.632 646.734 101.054C638.352 101.697 631.013 95.4785 630.273 87.1069C629.532 78.7352 635.665 71.3256 644.029 70.4871Z"/><path fill="#8E5AAD" d="M634.285 118.084C635.097 118.222 639.368 118.951 639.599 119.182C643.376 122.965 641.694 126.637 649.406 125.998C651.217 126.61 652.438 128.765 653.603 130.387C645.581 139.572 659.083 139.04 654.447 146.757C653.274 148.71 645.727 146.228 648.285 156.149C647.714 157.739 645.098 159.032 643.546 159.987C638.954 155.853 636.007 156.62 633.224 161.939L632.029 161.957C628.687 161.566 627.635 162.034 626.213 158.634C624.421 154.346 622.003 153.928 618.111 154.737C616.274 154.12 614.929 151.788 613.727 150.141C618.566 145.315 617.447 142.11 611.482 139.485C611.914 137.387 612.202 134.465 613.68 133.078C618.466 132.198 620.108 129.063 619.419 124.437C620.074 122.495 622.648 121.152 624.446 119.94C626.706 121.919 628.606 123.777 631.743 122.515C633.516 121.157 633.623 120.259 634.285 118.084Z"/><path fill="#DEEBFA" d="M632.106 129.017C638.208 128.152 643.856 132.399 644.718 138.5C645.58 144.602 641.329 150.246 635.226 151.105C629.127 151.963 623.487 147.717 622.626 141.62C621.764 135.523 626.008 129.882 632.106 129.017Z"/><path fill="#C9A157" d="M469.337 154.336C471.247 156.116 473.445 165.499 476.131 169.674C480.185 171.66 487.343 173.86 492.066 175.873C486.217 177.732 481.587 179.501 476.088 182.192C473.863 186.144 471.525 192.951 469.983 197.364L469.45 197.358C467.309 192.265 466.105 187.372 463.42 182.433C459.628 179.97 452.131 177.448 447.662 175.84C452.851 173.792 459.108 171.794 463.776 169.076C466.047 164.501 467.727 159.204 469.337 154.336Z"/><path fill="#C9A157" d="M698.229 233.693C699.69 235.039 701.742 241.682 702.756 244.185C705.647 245.685 711.516 247.77 714.753 249.021C710.118 250.265 707.072 251.197 703.057 253.865C701.736 256.766 700.268 261.034 699.112 264.104C697.845 263.399 695.552 255.856 694.43 253.358C690.53 251.347 687.046 250.411 682.848 249.171C694.571 244.001 693.89 246.957 698.229 233.693Z"/><path fill="#C9A157" d="M767.271 66.6854C767.791 67.1107 770.498 73.3206 771.548 75.0513C774.538 76.0704 777.509 77.1427 780.461 78.2675C776.639 79.1387 774.761 79.8194 771.364 81.6182C769.665 84.7041 769.17 86.2089 768.047 89.5161L767.312 89.4178C766.225 86.9253 765.199 84.4066 764.235 81.8639C760.69 79.9816 758.785 79.3671 754.944 78.1034C759.003 76.9737 760.92 76.4051 764.453 74.1854C765.348 72.3474 766.534 68.7258 767.271 66.6854Z"/><path fill="#CFD7DD" d="M676.49 431.354C684.428 430.766 702.207 430.819 710.307 431.196L710.922 431.877C707.792 432.468 678.842 432.107 676.49 431.354Z"/><path fill="#268E94" d="M1008.71 322.07C1012.67 323.579 1021.17 322.852 1025.95 323.094C1031.49 323.354 1036.97 324.315 1042.28 325.954L1048.44 327.008C1049 327.224 1050.34 327.783 1050.87 327.882C1054.2 330.917 1056.7 332.151 1060.36 334.682C1063.77 337.045 1066.43 339.911 1069.36 342.802C1070.62 344.453 1074.06 348.807 1074.87 350.405L1075.75 351.507C1074.93 354.161 1078.81 360.563 1080.22 363.033C1081.17 364.717 1083.42 366.47 1084.88 367.852C1087.64 375.954 1083.81 391.641 1088.01 396.275C1088.31 400.355 1084.89 405.687 1085.23 408.15C1085.57 413.368 1083.92 411.962 1082.42 415.745C1079.48 423.116 1075.85 429.485 1070.69 435.596C1063.11 443.437 1045.75 454.83 1034.91 456.222C1031.68 456.637 1022.43 456.235 1020 457.858L1019.51 458.543C1015.86 465.539 1015.75 461.875 1009.43 463.896C1002.11 462.748 998.466 461.465 991.563 458.844L994.162 452.909C992.183 451.892 990.797 451.09 988.92 449.895L983.81 461.679C995.515 467.431 999.269 468.379 1012.1 470.692C1009.16 475.374 1006.28 480.183 1002.95 484.594C999.038 489.789 997.193 483.878 996.869 491.357C997.18 490.815 987.953 497.603 986.832 498.615C984.368 498.179 977.544 498.34 974.789 498.338L950.911 498.344L911.907 498.367C905.047 498.371 895.862 498.076 889.284 498.684L891.117 492.392C891.399 490.309 892.144 487.956 892.724 485.905C890.945 484.663 886.418 483.154 884.24 482.811L883.099 481.739C882.452 479.48 884.69 469.926 885.335 467.001C889.77 446.909 892.33 427.25 900.055 408.087L903.237 398.91C906.068 392.252 908.859 384.187 911.488 377.301C918.165 379.117 922.729 379.891 929.437 381.254C933.18 382.761 934.915 382.981 938.58 381.21C942.736 381.09 953.336 383.848 957.624 385.163L966.274 387.435C978.213 391.341 977.569 387.864 980.097 377.243C981.697 371.379 984.268 359.901 986.311 354.742C986.342 349.141 992.724 342.523 987.075 338.628C984.802 336.638 984.046 335.248 982.839 332.535C987.193 331.689 993.496 327.996 997.582 325.85C1000.47 324.507 1002.28 324.059 1005.32 323.235C1006.74 322.973 1007.42 322.632 1008.71 322.07Z"/><path fill="#DEEBFA" d="M911.488 377.301C918.165 379.117 922.729 379.891 929.437 381.254C933.18 382.761 934.915 382.981 938.58 381.21C942.736 381.09 953.336 383.848 957.624 385.163L966.274 387.435C978.213 391.341 977.569 387.864 980.097 377.243C983.123 380.104 986.41 384.842 989.015 388.288C989.001 390.038 988.729 392.124 989.925 393.291C993.952 397.222 996.137 397.263 999.426 402.251C997.149 404.563 993.887 407.307 993.295 410.377C995.533 409.898 998.811 408.838 1000.71 409.807L1001.72 411.776C1002.13 414.761 1002.69 416.134 1003.69 418.917C1003.69 419.876 1003.9 420.707 1003.22 421.144C997.214 425.016 986.191 429.702 979.738 432.54L978.766 432.994L977.031 433.647L970.726 436.28C978.385 443.605 979.754 444.74 988.92 449.895L983.81 461.679C995.515 467.431 999.269 468.379 1012.1 470.692C1009.16 475.374 1006.28 480.183 1002.95 484.594C999.038 489.789 997.193 483.878 996.869 491.357C997.18 490.815 987.953 497.603 986.832 498.615C984.368 498.179 977.544 498.34 974.789 498.338L950.911 498.344L911.907 498.367C905.047 498.371 895.862 498.076 889.284 498.684L891.117 492.392C891.399 490.309 892.144 487.956 892.724 485.905C890.945 484.663 886.418 483.154 884.24 482.811L883.099 481.739C882.452 479.48 884.69 469.926 885.335 467.001C889.77 446.909 892.33 427.25 900.055 408.087L903.237 398.91C906.068 392.252 908.859 384.187 911.488 377.301Z"/><path fill="#254171" d="M980.097 377.243C983.123 380.104 986.41 384.842 989.015 388.288C989.001 390.038 988.729 392.124 989.925 393.291C993.952 397.222 996.137 397.263 999.426 402.251C997.149 404.563 993.887 407.307 993.295 410.377C995.533 409.898 998.811 408.838 1000.71 409.807L1001.72 411.776C1002.13 414.761 1002.69 416.134 1003.69 418.917C1003.69 419.876 1003.9 420.707 1003.22 421.144C997.214 425.016 986.191 429.702 979.738 432.54L978.766 432.994L977.031 433.647L970.726 436.28C967.337 437.452 963.936 438.59 960.525 439.696C935.581 447.557 936.538 426.245 930.661 407.139C930.834 403.816 925.162 387.845 924.607 382.411C925.462 381.592 928.111 381.438 929.437 381.254C933.18 382.761 934.915 382.981 938.58 381.21C942.736 381.09 953.336 383.848 957.624 385.163L966.274 387.435C978.213 391.341 977.569 387.864 980.097 377.243Z"/><path fill="#268E94" d="M980.097 377.243C983.123 380.104 986.41 384.842 989.015 388.288C989.001 390.038 988.729 392.124 989.925 393.291C993.952 397.222 996.137 397.263 999.426 402.251C997.149 404.563 993.887 407.307 993.295 410.377C986.156 412.37 976.954 413.605 970.263 415.807C970.216 412.348 970.698 407.206 970.931 403.632C967.622 398.347 966.795 393.537 966.274 387.435C978.213 391.341 977.569 387.864 980.097 377.243Z"/><path fill="#A7C3F6" d="M957.624 385.163L966.274 387.435C966.795 393.537 967.622 398.347 970.931 403.632C970.698 407.206 970.216 412.348 970.263 415.807C966.038 416.98 961.826 418.193 957.626 419.448C958.141 407.067 958.061 397.629 957.624 385.163Z"/><path fill="#203159" d="M911.488 377.301C918.165 379.117 922.729 379.891 929.437 381.254C928.111 381.438 925.462 381.592 924.607 382.411C925.162 387.845 930.834 403.816 930.661 407.139C919.124 423.696 913.308 428.821 909.508 448.923C908.945 451.901 895.877 485.09 894.877 486.284C894.095 486.173 893.49 486.117 892.724 485.905C890.945 484.663 886.418 483.154 884.24 482.811L883.099 481.739C882.452 479.48 884.69 469.926 885.335 467.001C889.77 446.909 892.33 427.25 900.055 408.087L903.237 398.91C906.068 392.252 908.859 384.187 911.488 377.301Z"/><path fill="#A7C3F6" d="M1008.71 322.07C1012.67 323.579 1021.17 322.852 1025.95 323.094C1031.49 323.354 1036.97 324.315 1042.28 325.954L1048.44 327.008C1049 327.224 1050.34 327.783 1050.87 327.882C1054.2 330.917 1056.7 332.151 1060.36 334.682C1063.77 337.045 1066.43 339.911 1069.36 342.802C1070.62 344.453 1074.06 348.807 1074.87 350.405C1073.35 350.932 1072.98 350.897 1071.41 350.9C1069.1 350.555 1067.82 350.339 1065.49 350.396L1064.19 349.648L1064.7 349.772C1062.55 347.042 1061.22 346.389 1058.39 344.49C1054 346.237 1045.91 348.924 1052.02 354.083C1049.96 355.318 1048.19 356.451 1045.95 357.372L1044.9 357.027C1044.04 355.055 1043.9 352.147 1043.67 349.94L1037.77 354.607C1039.6 355.205 1041.59 355.813 1043.37 356.511L1043.38 357.341C1042.46 358.008 1041.1 358.774 1040.75 359.772L1041.45 361.916C1039.9 363.409 1033.82 362.033 1033.76 365.675C1033.75 366.985 1034.27 368.245 1035.21 369.158C1035.48 369.426 1035.75 369.661 1036.04 369.905L1035.84 370.117C1032.39 370.335 1026.23 375.753 1023.87 378.421C1021.19 381.455 1020.28 384.145 1018.75 387.824C1021.91 404.943 1030.96 395.171 1035.28 402.569C1035.56 405.164 1034.69 407.266 1034.53 409.843C1034.39 412.006 1034.52 414.462 1034.64 416.637C1033.13 418.651 1032.19 419.901 1030.39 421.728C1030.24 425.627 1030.2 430.024 1029.4 433.796C1016.35 438.883 998.373 440.069 984.771 435.229C983.218 434.677 980.574 433.956 979.738 432.54C986.191 429.702 997.214 425.016 1003.22 421.144C1003.9 420.707 1003.69 419.876 1003.69 418.917C1002.69 416.134 1002.13 414.761 1001.72 411.776L1000.71 409.807C998.811 408.838 995.533 409.898 993.295 410.377C993.887 407.307 997.149 404.563 999.426 402.251C996.137 397.263 993.952 397.222 989.925 393.291C988.729 392.124 989.001 390.038 989.015 388.288C986.41 384.842 983.123 380.104 980.097 377.243C981.697 371.379 984.268 359.901 986.311 354.742C986.342 349.141 992.724 342.523 987.075 338.628C984.802 336.638 984.046 335.248 982.839 332.535C987.193 331.689 993.496 327.996 997.582 325.85C1000.47 324.507 1002.28 324.059 1005.32 323.235C1006.74 322.973 1007.42 322.632 1008.71 322.07Z"/><path fill="#268E94" d="M997.582 325.85C1000.47 324.507 1002.28 324.059 1005.32 323.235C1005.4 324.623 1005.39 325.544 1005.81 326.885C1007.32 327.718 1011.82 328.637 1013.36 328.45C1012.86 334.648 1010.22 332.727 1010.14 336.621C1010.74 337.135 1010.82 337.322 1011.6 337.374L1010.18 339.546L1010.07 340.041C1008.87 345.483 1010.7 344.987 1007.37 349.861L1006.46 350.214C1005.68 348.777 1005.11 347.275 1003.62 346.661L1002.01 346.682L1001.35 347.389L1001.62 349.812C999.105 350.902 996.152 350.639 993.587 351.28C991.585 351.781 988.222 353.695 986.311 354.742C986.342 349.141 992.724 342.523 987.075 338.628C984.802 336.638 984.046 335.248 982.839 332.535C987.193 331.689 993.496 327.996 997.582 325.85Z"/><path fill="#8EC7E0" d="M997.582 325.85C1000.47 324.507 1002.28 324.059 1005.32 323.235C1005.4 324.623 1005.39 325.544 1005.81 326.885C1007.32 327.718 1011.82 328.637 1013.36 328.45C1012.86 334.648 1010.22 332.727 1010.14 336.621C1010.74 337.135 1010.82 337.322 1011.6 337.374L1010.18 339.546C1006.91 338.282 1008.92 339.201 1006.53 336.169L1006.35 335.936C1006.63 334.33 1006.73 334.968 1005.99 333.53C1007.37 332.568 1006.93 333.081 1007.68 331.576C1005.38 328.653 1000.87 332.335 997.582 325.85Z"/><path fill="#AFCADF" d="M1006.35 335.936C1004.31 337.152 998.311 341.734 996.415 341.873L997.221 341.932L996.59 342.101C996.517 340.854 996.766 340.038 997.026 338.828C996.252 338.102 995.513 337.557 994.677 336.92L994.626 336.212C997.075 333.447 1002.52 333.189 1005.99 333.53C1006.73 334.968 1006.63 334.33 1006.35 335.936Z"/><path fill="#203159" d="M1015.08 403.195C1017.64 407.165 1026.14 424.142 1025.11 428.249C1022.24 429.744 1018.28 425.109 1016.26 423.133C1013.61 420.534 1011.89 419.212 1008.77 417.313C1009.9 413.732 1007.84 410.551 1005.76 407.862C1008.7 405.484 1011.54 404.464 1015.08 403.195Z"/><path fill="#268E94" d="M1027.9 326.459C1031.33 327.869 1033.55 328.842 1037.29 329.38C1039.5 330.023 1042.7 330.376 1042.58 333.003C1040.39 335.276 1038.08 336.937 1035.53 338.789C1033.73 338.86 1031.79 338.943 1030 339.212C1027.36 339.611 1021.26 342.953 1019.66 339.965C1020.85 335.306 1024.95 336.443 1024.39 329.409L1024.37 329.103L1025.69 327.811C1026.57 327.576 1027.17 327.015 1027.9 326.459Z"/><path fill="#AFCADF" d="M1008.71 322.07C1012.67 323.579 1021.17 322.852 1025.95 323.094C1031.49 323.354 1036.97 324.315 1042.28 325.954C1037.33 326.801 1031.68 324.131 1026.55 324.424C1028.69 326.374 1035.45 327.21 1037.29 329.38C1033.55 328.842 1031.33 327.869 1027.9 326.459C1027.17 327.015 1026.57 327.576 1025.69 327.811C1023.08 327.556 1020.58 328.543 1016.1 327.924L1013.36 328.45C1011.82 328.637 1007.32 327.718 1005.81 326.885C1005.39 325.544 1005.4 324.623 1005.32 323.235C1006.74 322.973 1007.42 322.632 1008.71 322.07Z"/><path fill="#318A9E" d="M1016.1 327.924C1018.16 323.554 1023.99 325.437 1027.9 326.459C1027.17 327.015 1026.57 327.576 1025.69 327.811C1023.08 327.556 1020.58 328.543 1016.1 327.924Z"/><path fill="#E78672" d="M1005.76 407.862C1007.84 410.551 1009.9 413.732 1008.77 417.313C1007.47 417.737 1004.92 418.649 1003.69 418.917C1002.69 416.134 1002.13 414.761 1001.72 411.776C1003.1 409.638 1003.64 409.33 1005.76 407.862Z"/><path fill="#318A9E" d="M1013.36 328.45L1016.1 327.924C1018.56 333.821 1017.05 335.143 1011.6 337.374C1010.82 337.322 1010.74 337.135 1010.14 336.621C1010.22 332.727 1012.86 334.648 1013.36 328.45Z"/><path fill="#5CA9C1" d="M1069.36 342.802C1070.62 344.453 1074.06 348.807 1074.87 350.405C1073.35 350.932 1072.98 350.897 1071.41 350.9C1069.36 347.541 1068.6 346.574 1069.36 342.802Z"/><path fill="#82B9F1" d="M1075.57 392.074C1079.86 391.662 1081.84 395.475 1083.82 398.609C1083.24 401.755 1081.73 406.843 1083.18 409.288C1084.25 409.133 1084.37 408.903 1085.23 408.15C1085.57 413.368 1083.92 411.962 1082.42 415.745C1079.48 423.116 1075.85 429.485 1070.69 435.596C1063.11 443.437 1045.75 454.83 1034.91 456.222C1031.68 456.637 1022.43 456.235 1020 457.858L1019.51 458.543C1015.86 465.539 1015.75 461.875 1009.43 463.896C1002.11 462.748 998.466 461.465 991.563 458.844L994.162 452.909C992.183 451.892 990.797 451.09 988.92 449.895C979.754 444.74 978.385 443.605 970.726 436.28L977.031 433.647L978.766 432.994L979.738 432.54C980.574 433.956 983.218 434.677 984.771 435.229C998.373 440.069 1016.35 438.883 1029.4 433.796C1029.18 435.288 1028.8 436.649 1029.5 437.976C1030.88 439.26 1034.02 439.058 1036.07 439.151C1043.71 435.874 1044.9 431.111 1052.41 427.374C1053.71 424.371 1054.48 421.24 1056.04 418.311C1058.77 413.156 1069.32 411.473 1069.13 404.825C1067.76 404.306 1066.46 403.873 1065.07 403.415C1063.57 401.751 1063.97 402.496 1063.63 400.29C1064.68 398.662 1064.5 395.814 1064.55 393.771C1065.04 396.248 1064.92 399.59 1064.93 402.178C1066.94 401.818 1069.34 401.614 1071.4 401.385C1074.23 399.637 1076.83 397.67 1076.66 394.073C1075.26 393.079 1075.9 393.351 1073.8 393.377C1075.06 392.778 1074.83 393.092 1075.57 392.074Z"/><path fill="#DEEBFA" d="M994.162 452.909C999.601 453.948 1005.05 456.829 1010.96 457.25C1012.27 457.343 1018.82 458.183 1019.51 458.543C1015.86 465.539 1015.75 461.875 1009.43 463.896C1002.11 462.748 998.466 461.465 991.563 458.844L994.162 452.909Z"/><path fill="#336EBF" d="M977.031 433.647L978.766 432.994C979.041 434.244 979.871 436.847 979.6 437.781L979.547 437.469L978.381 437.501C977.848 436.231 977.239 434.996 977.031 433.647Z"/><path fill="#318A9E" d="M1059.55 426.086C1059.97 429.216 1054.35 436.119 1051.34 437.552C1049.05 432.121 1055.5 428.011 1059.55 426.086Z"/><path fill="#8EC7E0" d="M1050.41 366.919L1051.15 366.064C1054.51 369.96 1054.14 374.18 1055.74 375.225L1056.74 372.635L1057.58 372.804C1058.12 373.761 1058.68 374.723 1059.16 375.711C1061.7 377.127 1064.75 378.876 1064.11 382.291C1063.17 383.184 1063.09 383.382 1061.87 383.525C1059.94 382.232 1055.52 379.003 1053.54 378.581C1050.34 379.609 1048.64 378.227 1047.31 375.309C1047.34 373.326 1047.08 374.098 1048.4 372.422C1047.86 372.173 1047.11 371.802 1046.56 371.604C1047.5 369.933 1048.12 369.095 1049.28 367.57L1049.73 367.693L1050.41 366.919Z"/><path fill="#318A9E" d="M1050.41 366.919C1051.46 368.71 1051.95 369.332 1052.1 371.383L1051.56 371.91C1050.35 370.88 1050.13 369.253 1049.73 367.693L1050.41 366.919Z"/><path fill="#AFCADF" d="M1044.17 364.631C1046.4 365.609 1047.25 366.185 1049.28 367.57C1048.12 369.095 1047.5 369.933 1046.56 371.604C1042.95 371.222 1039.38 370.939 1035.84 370.117L1036.04 369.905L1036.45 369.905C1039.82 369.876 1041.67 367.138 1044.17 364.631Z"/><path fill="#8EC7E0" d="M1061.28 383.27C1063.35 387.018 1064.18 389.483 1064.55 393.771C1064.5 395.814 1064.68 398.662 1063.63 400.29C1062.64 394.565 1061.58 389.082 1061.28 383.27Z"/><path fill="#AFCADF" d="M1073.8 393.377C1072.83 392.194 1071.33 390.243 1071.82 388.723C1073.24 389.187 1074.32 390.789 1075.57 392.074C1074.83 393.092 1075.06 392.778 1073.8 393.377Z"/><path fill="#8EC7E0" d="M1057.06 349.318L1057.55 349.837C1057.67 350.327 1057.79 350.761 1057.65 351.248C1056.2 356.095 1057.77 355.657 1053.83 358.173L1052.65 355.087L1053.32 354.629L1054.61 355.932C1055.65 354.936 1054.97 352.746 1057.06 349.318Z"/><defs><linearGradient id="gradient_1" gradientUnits="userSpaceOnUse" x1="54.647461" y1="283.98056" x2="121.97749" y2="443.70773"><stop offset="0" stop-color="#B35087"/><stop offset="1" stop-color="#534FA7"/></linearGradient></defs><path fill="url(#gradient_1)" d="M26.6821 293.88C41.2356 296.905 57.6032 306.099 71.2951 312.381C77.0054 315.001 86.577 323.102 92.3302 323.801C99.8684 329.509 106.98 335.207 113.851 341.713C115.042 342.841 116.887 344.609 118.201 345.509C129.513 358.202 136.701 367.255 145.108 382.067C145.09 384.401 144.752 394.472 145.553 395.897C146.153 407.008 149.045 422.774 153.427 433.112C156.135 433.442 175.163 433.417 176.685 432.851C177.516 434.449 178.387 436.251 179.42 437.702C182.244 439.443 184.773 441.096 187.816 442.438C190.093 448.757 189.601 453.761 185.976 459.432C184.062 460.193 183.538 460.419 181.836 461.561L181.243 461.711C180.43 462.646 177.348 466.351 176.518 466.707C176.599 468.525 176.597 469.022 176.309 470.83L176.652 475.031L177.491 477.3C179.95 484 185.394 487.393 191.272 490.453C195.356 492.578 205.863 494.56 207.656 495.897C205.965 497.65 205.676 498.393 204.593 500.607C198.801 499.415 184.098 500.423 177.304 500.012C165.775 499.313 154.677 499.105 143.127 499.159C138.66 499.116 132.536 498.464 127.526 498.391C112.83 498.178 88.2732 500.735 75.059 495.834C70.7456 489.676 69.3941 479.541 73.7824 472.944C77.0073 468.097 81.3276 467.277 86.6801 466.36C88.2569 463.831 89.424 462.946 92.1867 461.967C92.5368 460.6 92.8957 458.216 93.1653 456.749L92.9787 456.28C87.2041 451.301 82.195 444.681 77.7164 438.5C62.0361 417.23 51.3553 394.033 43.4714 368.955C38.4799 353.078 34.0754 337.756 30.2446 321.522C28.2064 312.885 28.7335 302.709 26.6821 293.88Z"/><path fill="#336EBF" d="M86.6801 466.36L92.8225 466.733L145.495 466.577C154.207 466.545 168.397 466.013 176.518 466.707C176.599 468.525 176.597 469.022 176.309 470.83L176.652 475.031L177.491 477.3C179.95 484 185.394 487.393 191.272 490.453C195.356 492.578 205.863 494.56 207.656 495.897C205.965 497.65 205.676 498.393 204.593 500.607C198.801 499.415 184.098 500.423 177.304 500.012C165.775 499.313 154.677 499.105 143.127 499.159C138.66 499.116 132.536 498.464 127.526 498.391C112.83 498.178 88.2732 500.735 75.059 495.834C70.7456 489.676 69.3941 479.541 73.7824 472.944C77.0073 468.097 81.3276 467.277 86.6801 466.36Z"/><path fill="#F8F8FA" d="M92.8225 466.733L145.495 466.577C154.207 466.545 168.397 466.013 176.518 466.707C176.599 468.525 176.597 469.022 176.309 470.83L176.652 475.031L177.491 477.3C179.95 484 185.394 487.393 191.272 490.453C195.356 492.578 205.863 494.56 207.656 495.897C205.965 497.65 205.676 498.393 204.593 500.607C198.801 499.415 184.098 500.423 177.304 500.012C165.775 499.313 154.677 499.105 143.127 499.159C131.366 489.514 132.287 476.124 144.233 467.132L112.235 467.355C107.691 467.381 96.8658 467.645 92.8225 466.733Z"/><path fill="#3962A5" d="M92.8225 466.733L145.495 466.577C154.207 466.545 168.397 466.013 176.518 466.707C176.599 468.525 176.597 469.022 176.309 470.83C169.152 470.832 146.886 469.082 143.546 474.268C135.127 487.341 143.144 498.153 158.144 496.351C171.735 494.718 195.466 498.719 207.656 495.897C205.965 497.65 205.676 498.393 204.593 500.607C198.801 499.415 184.098 500.423 177.304 500.012C165.775 499.313 154.677 499.105 143.127 499.159C131.366 489.514 132.287 476.124 144.233 467.132L112.235 467.355C107.691 467.381 96.8658 467.645 92.8225 466.733Z"/><path fill="#AFCADF" d="M176.652 475.031L177.491 477.3C174.726 477.453 160.723 478.008 159.303 476.795C161.028 476.071 173.302 476.026 176.03 475.925L176.652 475.031Z"/><path fill="#AFCADF" d="M162.73 489.955C168.017 489.11 181.834 489.572 186.959 490.517C183.726 490.99 165.39 491.4 162.73 489.955Z"/><path fill="#F8F8FA" d="M176.685 432.851C177.516 434.449 178.387 436.251 179.42 437.702C182.244 439.443 184.773 441.096 187.816 442.438C190.093 448.757 189.601 453.761 185.976 459.432C184.062 460.193 183.538 460.419 181.836 461.561L181.243 461.711C180.43 462.646 177.348 466.351 176.518 466.707C168.397 466.013 154.207 466.545 145.495 466.577L92.8225 466.733L86.6801 466.36C88.2569 463.831 89.424 462.946 92.1867 461.967C92.5368 460.6 92.8957 458.216 93.1653 456.749L92.9787 456.28L93.4598 455.988C93.8959 454.229 94.1022 452.008 94.3247 450.174L94.1166 449.449C94.0995 448.026 93.722 445.25 93.5598 443.729L93.2295 442.552C92.7308 441.147 91.4853 439.089 90.7172 437.724L88.6557 437.274C87.3522 436.273 87.2409 436.119 86.7364 434.555C89.2564 430.988 124.282 434.836 130.275 432.663C131.253 433.164 131.313 433.22 132.39 433.343C138.32 432.864 147.276 433.107 153.427 433.112C156.135 433.442 175.163 433.417 176.685 432.851Z"/><path fill="#C9A157" d="M92.1867 461.967C98.3282 462.286 105.635 462.247 111.824 462.081C134.711 461.467 158.431 462.792 181.243 461.711C180.43 462.646 177.348 466.351 176.518 466.707C168.397 466.013 154.207 466.545 145.495 466.577L92.8225 466.733L86.6801 466.36C88.2569 463.831 89.424 462.946 92.1867 461.967Z"/><path fill="#C9A157" d="M176.685 432.851C177.516 434.449 178.387 436.251 179.42 437.702L117.989 437.544C111.216 437.57 97.1071 437.212 90.7172 437.724L88.6557 437.274C87.3522 436.273 87.2409 436.119 86.7364 434.555C89.2564 430.988 124.282 434.836 130.275 432.663C131.253 433.164 131.313 433.22 132.39 433.343C138.32 432.864 147.276 433.107 153.427 433.112C156.135 433.442 175.163 433.417 176.685 432.851Z"/><path fill="#AFCADF" d="M93.2295 442.552C100.163 442.428 169.951 442.181 172.042 443.155C166.226 444.315 142.545 443.8 135.106 443.662C122.041 443.419 106.282 444.16 93.5598 443.729L93.2295 442.552Z"/><path fill="#AFCADF" d="M93.4598 455.988C108.168 455.314 124.228 455.862 139.055 455.673C144.535 455.603 160.856 455.369 165.469 456.01L165.616 456.372C161.37 457.145 144.97 456.98 139.678 456.915C124.449 456.727 108.297 457.262 93.1653 456.749L92.9787 456.28L93.4598 455.988Z"/><path fill="#AFCADF" d="M94.1166 449.449C100.032 449.018 144.154 448.555 146.232 449.864C140.632 450.492 132.055 450.267 126.241 450.256L94.3247 450.174L94.1166 449.449Z"/><path fill="#F8F8FA" d="M80.7384 358.663C72.325 346.681 63.4536 335.028 54.1438 323.729C51.8002 320.877 39.6702 307.759 39.6067 305.634L40.0919 305.329C42.7343 307.404 47.8971 313.812 50.2962 316.603C68.67 338.412 85.7263 361.298 101.374 385.138C101.293 379.036 101.9 344.044 103.634 340.323C107.27 344.424 99.5986 380.739 104.784 389.549C112.193 402.136 120.829 414.093 128.552 426.526C129.814 428.556 131.532 431.176 132.39 433.343C131.313 433.22 131.253 433.164 130.275 432.663C127.958 428.965 124.48 423.005 121.996 419.647C115.363 418.362 66.7963 412.385 65.3827 411.393C72.7162 410.206 112.198 415.638 120.85 417.85C109.918 400.955 94.3777 376.092 82.0746 360.622C74.4344 359.761 47.428 357.46 42.2766 355.728L42.2911 355.621C44.6076 354.268 75.8365 358.087 80.7384 358.663Z"/><defs><linearGradient id="gradient_2" gradientUnits="userSpaceOnUse" x1="1006.7123" y1="162.50789" x2="971.71637" y2="327.34641"><stop offset="0" stop-color="#B64F82"/><stop offset="1" stop-color="#5B4EA5"/></linearGradient></defs><path fill="url(#gradient_2)" d="M990.337 200.55C994.189 199.223 999.582 195.513 1003.05 193.017C1012.02 186.562 1035.16 171.198 1045.52 169.145C1045.06 216.019 1038.8 254.63 1021.04 298.16C1017.67 306.431 1011.94 313.796 1008.71 322.07C1007.42 322.632 1006.74 322.973 1005.32 323.235C1002.28 324.059 1000.47 324.507 997.582 325.85C993.496 327.996 987.193 331.689 982.839 332.535L982.839 330.315C980.793 329.015 966.853 325.537 963.272 324.383L962.466 322.981C961.849 321.01 960.2 317.107 959.057 315.443L958.092 313.348C957.434 311.284 955.803 308.163 954.789 306.202C948.24 293.532 944.139 291.73 931.554 287.662C935.049 278.924 937.726 270.31 941.961 261.649C952.666 239.758 971.011 215.525 990.337 200.55Z"/><path fill="#F8F8FA" d="M982.412 265.432C989.206 253.671 1026.32 187.959 1033.79 183.701C1034.03 185.858 1030.37 190.225 1028.96 192.155C1017.96 207.195 1008.9 223.492 999.076 239.282C1004.51 238.137 1032.91 231.467 1036.75 232.784C1032.53 234.977 1005.09 239.71 998.232 241.425C987.378 258.647 976.158 281.598 966.672 299.976C975.238 297.752 1014.32 287.688 1020.13 289.304L1020.11 289.868C1016.26 291.165 1005.66 292.763 1001.1 293.711C989.159 296.104 977.317 298.957 965.598 302.264C963.32 306.608 961.14 311.002 959.057 315.443L958.092 313.348C962.076 305.359 979.396 274.04 980.197 268.181C981.445 259.058 973.914 225.676 976.135 221.988C978.878 230.196 981.436 256.013 982.412 265.432Z"/><path fill="#633B8D" d="M962.466 322.981C966.877 323.651 981.115 325.954 984.271 328.304L984.579 329.331C983.641 330.266 984.112 330.035 982.839 330.315C980.793 329.015 966.853 325.537 963.272 324.383L962.466 322.981Z"/><path fill="#884672" d="M915.974 291.914C918.931 297.321 923.173 295.199 926.489 291.576C928.885 288.957 928.881 287.823 929.997 284.662L931.554 287.662C944.139 291.73 948.24 293.532 954.789 306.202C955.803 308.163 957.434 311.284 958.092 313.348L959.057 315.443C960.2 317.107 961.849 321.01 962.466 322.981L963.272 324.383C966.853 325.537 980.793 329.015 982.839 330.315L982.839 332.535C984.046 335.248 984.802 336.638 987.075 338.628C992.724 342.523 986.342 349.141 986.311 354.742C984.268 359.901 981.697 371.379 980.097 377.243C977.569 387.864 978.213 391.341 966.274 387.435L957.624 385.163C953.336 383.848 942.736 381.09 938.58 381.21C934.915 382.981 933.18 382.761 929.437 381.254C922.729 379.891 918.165 379.117 911.488 377.301C910.303 375.524 910.136 374.817 909.493 372.77L903.041 370.926C896.681 368.022 890.843 369.492 882.749 363.685C881.081 361.987 880.672 360.967 880.091 358.749C881.269 353.188 882.971 347.223 884.434 341.693C885.46 337.057 886.731 332.143 887.849 327.503C890.078 319.942 891.606 311.739 894.23 304.372L904.309 307.116C907.186 299.545 909.905 297.135 915.974 291.914Z"/><path fill="#F2BA64" d="M915.974 291.914C918.931 297.321 923.173 295.199 926.489 291.576C928.885 288.957 928.881 287.823 929.997 284.662L931.554 287.662C944.139 291.73 948.24 293.532 954.789 306.202C955.803 308.163 957.434 311.284 958.092 313.348L959.057 315.443C960.2 317.107 961.849 321.01 962.466 322.981L963.272 324.383C966.853 325.537 980.793 329.015 982.839 330.315L982.839 332.535C984.046 335.248 984.802 336.638 987.075 338.628C992.724 342.523 986.342 349.141 986.311 354.742C984.268 359.901 981.697 371.379 980.097 377.243C977.569 387.864 978.213 391.341 966.274 387.435L957.624 385.163C953.336 383.848 942.736 381.09 938.58 381.21C939.832 378.281 941.771 372.061 943.386 369.772C940.127 368.641 938.422 368.036 935.353 366.443C938.768 356.259 945.526 346.085 948.392 335.999C949.118 333.441 946.185 329.808 944.563 327.771C943.487 325.455 940.312 321.081 938.797 318.948C938.766 318.198 938.504 317.885 938.162 317.17C934.358 314.299 910.638 308.715 904.309 307.116C907.186 299.545 909.905 297.135 915.974 291.914Z"/><path fill="#884672" d="M963.272 324.383C966.853 325.537 980.793 329.015 982.839 330.315L982.839 332.535C984.046 335.248 984.802 336.638 987.075 338.628C992.724 342.523 986.342 349.141 986.311 354.742C984.268 359.901 981.697 371.379 980.097 377.243C977.569 387.864 978.213 391.341 966.274 387.435L957.624 385.163C953.336 383.848 942.736 381.09 938.58 381.21C939.832 378.281 941.771 372.061 943.386 369.772C945.018 368.833 948.195 365.212 949.238 363.579C954.803 354.871 965.108 343.085 964.869 332.549C964.284 329.838 963.751 327.115 963.272 324.383Z"/><path fill="#F8F8FA" d="M963.272 324.383C966.853 325.537 980.793 329.015 982.839 330.315L982.839 332.535C984.046 335.248 984.802 336.638 987.075 338.628C981.057 337.499 970.872 334.346 964.869 332.549C964.284 329.838 963.751 327.115 963.272 324.383Z"/><path fill="#F8F8FA" d="M894.23 304.372L904.309 307.116C910.638 308.715 934.358 314.299 938.162 317.17C938.504 317.885 938.766 318.198 938.797 318.948C940.312 321.081 943.487 325.455 944.563 327.771C930.424 324.034 914.014 319.266 899.91 316.166C897.627 322.742 888.926 359.448 886.574 361.645C885.029 362.31 884.43 362.22 882.799 362.199L882.749 363.685C881.081 361.987 880.672 360.967 880.091 358.749C881.269 353.188 882.971 347.223 884.434 341.693C885.46 337.057 886.731 332.143 887.849 327.503C890.078 319.942 891.606 311.739 894.23 304.372Z"/><path fill="#6E2C46" d="M894.23 304.372L904.309 307.116C910.638 308.715 934.358 314.299 938.162 317.17C938.504 317.885 938.766 318.198 938.797 318.948C925.572 314.617 908.997 310.672 895.276 306.908C893.236 315.431 880.846 358.244 882.799 362.199L882.749 363.685C881.081 361.987 880.672 360.967 880.091 358.749C881.269 353.188 882.971 347.223 884.434 341.693C885.46 337.057 886.731 332.143 887.849 327.503C890.078 319.942 891.606 311.739 894.23 304.372Z"/><path fill="#FB9F86" d="M928.15 374.321L926.587 374.109L926.215 373.527C927.229 371.904 933.435 367.827 935.353 366.443C938.422 368.036 940.127 368.641 943.386 369.772C941.771 372.061 939.832 378.281 938.58 381.21C934.915 382.981 933.18 382.761 929.437 381.254C922.729 379.891 918.165 379.117 911.488 377.301C910.303 375.524 910.136 374.817 909.493 372.77C914.407 374.069 919.313 375.403 924.209 376.77C926.034 375.255 925.192 375.604 927.573 375.404L928.15 374.321Z"/><path fill="#9A3E3F" d="M928.15 374.321L929.418 373.946L929.884 374.891C929.243 376.757 929.722 376.096 927.879 377.303C926.358 377.197 925.742 377.153 924.209 376.77C926.034 375.255 925.192 375.604 927.573 375.404L928.15 374.321Z"/><path fill="#B6859E" d="M912.015 329.528C913.381 329.681 915.645 330.261 916.48 331.395C916.225 334.633 909.856 357.803 908.644 362.315C906.886 361.938 905.489 361.835 904.262 360.544C904.222 357.805 910.905 333.702 912.015 329.528Z"/><path fill="#B6859E" d="M920.759 331.595C922.31 331.977 924.069 332.161 924.928 333.433C924.06 339.759 918.946 357.735 917.024 364.449C915.222 364.284 914.942 364.18 913.273 363.55C912.152 361.525 919.631 335.767 920.759 331.595Z"/><path fill="#254171" d="M1048.44 327.008L1048.72 326.643C1051.11 323.537 1050.56 316.035 1055.09 317.714C1082.7 327.947 1097.33 357.744 1100.69 385.256C1101.36 390.783 1098.35 410.127 1097.83 415.246L1097.65 415.412C1094.07 418.735 1091.84 424.679 1089.47 429.071C1079.9 446.824 1061.83 461.326 1042.14 466.171C1023.6 469.96 1022.74 465.512 1023.42 487.792C1023.45 488.691 1023.86 490.343 1024.53 491.074C1031.86 497.339 1050.64 486.552 1052.34 500.175L1051.94 500.946C1044.56 501.226 1033.76 500.407 1026.26 500.122C1019.68 499.873 990.824 501.973 986.832 498.615C987.953 497.603 997.18 490.815 996.869 491.357C998.596 492.532 1015.14 491.9 1018.19 491.858C1016.84 484.418 1017.11 479.114 1016.59 471.695C1015.37 470.71 1013.76 470.821 1012.1 470.692C999.269 468.379 995.515 467.431 983.81 461.679L988.92 449.895C990.797 451.09 992.183 451.892 994.162 452.909L991.563 458.844C998.466 461.465 1002.11 462.748 1009.43 463.896C1012.48 467.504 1027.99 465.751 1032.77 464.916C1088.68 455.151 1114.66 388.814 1080.45 343.637C1073.16 334.008 1066.9 328.634 1056.69 321.81C1053.69 324.212 1053.02 324.798 1050.87 327.882C1050.34 327.783 1049 327.224 1048.44 327.008Z"/><defs><linearGradient id="gradient_3" gradientUnits="userSpaceOnUse" x1="412.71472" y1="510.53513" x2="401.41388" y2="482.30078"><stop offset="0" stop-color="#9B4143"/><stop offset="1" stop-color="#BB504F"/></linearGradient></defs><path fill="url(#gradient_3)" d="M393.706 471.249C399.386 471.19 403.551 468.938 409.317 469.376L412.496 471.01C414.162 472.691 416 474.387 417.244 476.383C420.29 482.195 418.508 486.355 414.764 491.19L417.836 498.386C417.039 503.062 419.48 504.388 422.178 508.847C420.049 508.953 411.845 509.496 410.258 509.178C409.932 507.289 407.894 499.225 406.592 498.267C405.219 499.815 404.821 506.739 404.712 509.068C400.241 510.317 397.6 509.253 393.029 509.347C394.216 506.615 396.889 501.33 395.89 498.564C396.227 494.184 398.767 494.053 396.381 489.032C392.29 486.013 394.496 479.195 395.442 475.418C395.919 473.514 394.831 472.758 393.706 471.249Z"/><path fill="#9A3E3F" d="M393.706 471.249C399.386 471.19 403.551 468.938 409.317 469.376L412.496 471.01C414.162 472.691 416 474.387 417.244 476.383L416.014 477.061L415.668 478.32C416.611 490.487 406.846 496.178 398.533 487.875C397.575 488.241 396.873 488.31 396.381 489.032C392.29 486.013 394.496 479.195 395.442 475.418C395.919 473.514 394.831 472.758 393.706 471.249Z"/><path fill="#B54F51" d="M393.706 471.249C399.386 471.19 403.551 468.938 409.317 469.376L412.496 471.01C414.162 472.691 416 474.387 417.244 476.383L416.014 477.061L415.668 478.32C407.664 465.097 392.118 477.364 398.533 487.875C397.575 488.241 396.873 488.31 396.381 489.032C392.29 486.013 394.496 479.195 395.442 475.418C395.919 473.514 394.831 472.758 393.706 471.249Z"/><path fill="#C9A157" d="M1069.31 267.686C1073.76 271.633 1072.03 275.384 1079.98 275.999C1078.08 278.241 1076.94 279.423 1075.66 282.129L1076.56 289.802C1074.14 288.489 1072.23 287.731 1069.71 286.711C1065.79 287.503 1064.24 289.084 1061.09 291.509C1061.95 288.532 1062.35 286.017 1062.88 282.98C1062.03 281.227 1061.19 279.465 1060.37 277.692C1060.79 275.237 1064.52 274.925 1066.07 272.854C1067.29 271.223 1068.29 269.45 1069.31 267.686Z"/><path fill="#6B6B6D" fill-opacity="0.80392158" d="M404.712 509.068C404.821 506.739 405.219 499.815 406.592 498.267C407.894 499.225 409.932 507.289 410.258 509.178C408.587 509.068 406.427 509.096 404.712 509.068Z"/></svg>