<svg version="1.2" xmlns="http://www.w3.org/2000/svg" viewBox="0 0 512 512" width="512" height="512"><defs><linearGradient id="P" gradientUnits="userSpaceOnUse"/><linearGradient id="g1" x2="1" href="#P" gradientTransform="matrix(198.218,-197.446,197.023,197.792,81.528,178.291)"><stop stop-color="#b56cff"/><stop offset="1" stop-color="#72bcff"/></linearGradient><linearGradient id="g2" x2="1" href="#P" gradientTransform="matrix(220.243,-216.294,168.616,171.694,55.369,309.647)"><stop stop-color="#d14bfe"/><stop offset="1" stop-color="#84a4ff"/></linearGradient><linearGradient id="g3" x2="1" href="#P" gradientTransform="matrix(162.628,-140.074,123.82,143.756,110.721,217.097)"><stop stop-color="#b76eff"/><stop offset="1" stop-color="#82a3ff"/></linearGradient></defs><style>.a{fill:#6347ef}.b{fill:url(#g1)}.c{fill:#75b9fe}.d{fill:url(#g2)}.e{fill:url(#g3)}.f{fill:#d248fe}</style><path class="a" d="m216 292.3c-24.9 65.8-0.1 140.1 59.5 177.7 59.6 37.6 137.3 28.1 186.1-22.8 48.7-50.9 54.8-129 14.7-186.9-40.1-57.8-115.5-79.4-180.2-51.6-18.1 7.7-34.2 18.9-47.7 32.7-14 14.4-25.1 31.7-32.4 50.9zm123.9-50.1c3.9-0.8 10.2-1 14.2-1 20.7-0.2 41 6 58.1 17.6 22.9 15.3 38.9 39.1 44.3 66.1 1.4 6.7 4 17-5.3 18.9-2.3 0.5-6.4-0.7-7.5-2.4-2.7-4.4-3.3-13.1-4.6-18q-1.5-6-3.8-11.7c-9.6-22.3-25.9-38.6-48.4-47.7-12-4.7-25-6.7-37.8-5.9-1.5 0.1-5.3 0.2-6.3 1v0.4c4.2 2.2 10.5 4.7 11.9 9.1 0.6 2.1 0.4 4.4-0.6 6.3-1.6 3.2-6 5.7-9.5 4.1-9.5-4.4-18.5-9.9-27.8-14.7-5.4-2.7-7.9-7.5-4.2-13.1 3.2-4.6 6.7-9.1 9.9-13.7 2.3-3 7.3-10.6 9.7-12.8 1.1-1 2.5-1.7 3.9-2 0.9-0.2 1.4-0.2 2.3-0.2 7.1 1.9 9.6 7.5 5.6 13.7-1.3 2-2.9 4-4.1 6zm96.5 134c-3.4 2.1-6.6 4.1-10.3 6-8.3 4.3-16.3-6.4-9.9-12.9 0.9-0.9 4.6-3.4 5.5-3.8 4.3-1.8 24-15.4 28.1-14.7 2.1 0.4 4.8 1.3 5.9 3.3 3.3 6 5.4 12.5 8.1 18.8 1.9 4.4 3.6 8.4 5.2 13 2.2 6.3-4.3 11.8-10.1 10.3-4.6-1.2-6-7.4-8.4-11.2-1.4 4.5-4.5 9.5-6.8 13.5-10.1 17.1-24.6 30.5-42.3 39.6-24.4 12.4-52.7 14.6-78.7 6.2-3.1-1-9.3-3.3-11.9-4.8-6.6-5-4.5-14.1 4.1-15.3 2.2-0.3 8.2 2.6 10.8 3.5q4.8 1.6 9.8 2.8c38.7 9 80.5-10.9 97.5-46.9 1.1-2.4 2.2-4.9 3.4-7.4zm-149.5 24.2c-0.2-7-2.3-19.7 8.3-19.6 2.2 0 4.3 0.9 5.7 2.5 0.7 0.8 1.8 2.3 1.9 3.3 0.9 5.6 0.4 11.3 0.5 16.9 0.1 5.5 0.1 11 0 16.5 0 4.6-2.4 7.4-6.8 8.6-4.1 0.1-12.2-1.4-16.7-1.9-5.7-0.8-11.6-1.3-17.3-2.4-1.5-0.3-2.8-0.8-3.9-1.9-6.1-5.8-1.4-15.4 6.9-14.4 2.2 0.2 4.3 0.5 6.5 1-4.1-6.6-7.1-10.5-10.7-17.7-10.7-21.7-13.5-46.4-8-69.9 5.6-23.7 20.1-46.3 40.5-60.6q2.8-2 6.2-1.5c2.9 0.9 4.5 2.1 6 4.8 1 1.7 1.2 3.7 0.6 5.6-0.3 1.2-1 2.3-1.8 3.2-1.2 1.4-3.6 3.2-5.1 4.4-32.1 25.2-41.5 70.7-23.4 107.1 2.9 5.8 6.4 11.2 10.6 16z"/><path class="b" d="m324.5 19.2c9-0.2 18.1 0.2 27.1 0 6.5-0.2 12.6 0.5 17.5 5.3 4.4 4.2 5.8 9.6 5.8 15.6-0.1 10-0.1 20.1-0.1 30.1v10.8c0 1.4 0.1 4.7 0 5.9 0.1 1.9 0 4.1 0.1 6 0.1 7.4-0.2 13.8-5.7 19.4-6.6 6.6-15.5 5.4-24.2 5.4h-21.9-71.3-220.3c-6.8 0-11.6-0.6-16.7-5.6-5.7-5.7-5.6-12.1-5.6-19.7 0.1-4.1 0-8.3 0-12.4l0.1-39.6c0-6.4 1-11.2 5.8-16 6.5-6.4 15.3-5.2 23.6-5.2h20.9 69.4 128.6c21.9 0 45-0.4 66.9 0zm1.1 57.6c4.8-0.5 8.6-4.5 8-9.4-0.4-2.3-1.6-4.3-3.4-5.7-1.8-1.3-3.4-1.5-5.6-1.6-7.1-0.2-14.4-0.1-21.6-0.1h-41.8-27.8c-2.9 0-10.9-0.2-13.2 0.1-5.1 0.1-9.1 3.6-8.8 8.8 0.1 2.3 1.1 4.4 2.8 5.9 1.4 1.2 2.5 1.7 4.3 1.8 4.3 0.3 8.8 0.2 13.1 0.2h22.6zm-186.2 2.6c6-0.2 10.7-5.2 10.6-11.2-0.2-6.1-5.2-10.8-11.2-10.7-6.1 0.1-10.9 5.2-10.7 11.3 0.1 6 5.2 10.8 11.3 10.6zm-40.3-0.2c6-1 9.9-6.7 8.9-12.7-1.1-5.9-6.8-9.9-12.8-8.8-5.9 1.1-9.8 6.7-8.8 12.7 1.1 5.9 6.8 9.9 12.7 8.8zm-43.2 0.2c5.9-0.3 10.6-5.3 10.4-11.2-0.1-6-5-10.7-11-10.7-3.9 0-7.6 2.2-9.5 5.7-1.9 3.4-1.8 7.7 0.3 11 2.1 3.4 5.8 5.4 9.8 5.2z"/><path class="c" d="m324.5 19.2c9-0.2 18.1 0.2 27.1 0 6.5-0.2 12.6 0.5 17.5 5.3 4.4 4.2 5.8 9.6 5.8 15.6-0.1 10-0.1 20.1-0.1 30.1v10.8c0 1.4 0.1 4.7 0 5.9l-0.3-0.2c-0.2-1.2 0.3-4.4-0.2-4.9-0.1 1.9 0.1 6.3-1.4 7.6 0.1-4.3-8.2-13.1-11.2-16.2-13.7-14.4-28.2-28.2-42-42.5-2.5-2.6-7.1-4.2-7.7-7.9-0.1-0.9-1.9-0.8-3-1.3l0.1-0.3c2.9-1.3 11.9-1 15.2-1.5z"/><path class="d" d="m205.2 274.9c-3.9 0.3-9.3 0.1-13.2 0.1h-23.2-72.3-47.6l-14.3 0.1c-8.5 0-15.8 0-21.5-7.5-1.9-2.6-3.2-5.7-3.6-8.9-0.5-3.2-0.3-8.5-0.3-11.9v-18-22.5c0-4.4-0.2-9.1 0.3-13.4 1.1-8.9 9-16.2 17.9-16.3 7.9-0.2 15.8-0.1 23.7-0.1h46.6 143.8 80.3l22.9 0.1c4.1 0 10.8-0.2 14.6 0.4 1.9 0.3 5.3 1.3 6.7 2.6l-0.1 0.4c-1.6 0.4-7.8-0.1-9.8-0.2-7.5 0.3-13.7 0.4-21.2 1.3-22.8 2.7-44.7 10.2-64.5 22q-4.9 2.9-9.6 6.2c-3.3 2.3-7.7 6.1-11.2 7.9-1.2 0.5-5.7 0.3-7.2 0.3l-15.5-0.1c-2.6 0-5.9-0.2-8.4 0.2-9.8 1.7-9.4 15.6 0.6 16.5 4.3 0.4 8.9 0 13.2 0-7.3 9.6-15.1 18.2-20.9 29.1q-3.1 5.9-6.2 11.7zm-65.1-38.2c6-0.6 10.4-5.9 9.8-11.9-0.5-6-5.8-10.4-11.8-9.9-6 0.5-10.5 5.9-10 11.9 0.6 6 6 10.5 12 9.9zm-41.7 0c5.9-0.7 10.3-6 9.7-11.9-0.6-6-5.8-10.4-11.8-9.9-3.9 0.3-7.4 2.7-9 6.3-1.6 3.6-1.2 7.8 1 11 2.3 3.2 6.2 4.9 10.1 4.5zm-42 0c6-0.6 10.4-5.9 9.9-11.8-0.5-6-5.8-10.5-11.8-10-6 0.5-10.5 5.8-10 11.8 0.5 6.1 5.9 10.5 11.9 10z"/><path class="c" d="m359.3 177c1.9 0.3 5.3 1.3 6.7 2.6l-0.1 0.4c-1.6 0.4-7.8-0.1-9.8-0.2 1-0.1 1.5-0.1 2.3-0.6v-0.4c-0.8-0.4-0.4-0.3-1.4-0.2l0.2-0.3c1.1-0.5 1.3-0.5 2.1-1.3z"/><path class="e" d="m59.6 134.3c18.6 0.6 39.3 0.2 58.1 0.2h104.1 66.8 21c4.9 0 10.2 0.1 14.9-0.3v16.5c0 2.4-0.1 6.9 0.2 9-2.4 0.2-5.9 0-8.5 0h-16.6-55l-185.1 0.1c-0.1-5.1 0-10.5 0-15.6 0-2.3-0.2-8 0.1-9.9z"/><path class="f" d="m197.5 291.6c0.3 0.1 0.3 0.2 0.6 0.4 0.2 1-2.2 7.8-2.6 9.7-1.1 4.8-2.8 10.3-3.1 15.3l-132.2 0.1-0.6-0.2c-0.3-0.7-0.2-23.3 0.1-24.7 0.8-0.4 2.4-0.5 3.3-0.5 44.8-0.3 89.7 0.5 134.5-0.1z"/></svg>