<svg version="1.2" xmlns="http://www.w3.org/2000/svg" viewBox="0 0 575 176" width="575" height="176">
	<defs>
		<linearGradient id="g1" x2="1" gradientUnits="userSpaceOnUse" gradientTransform="matrix(-1.447,162.09,-115.198,-1.029,109.976,24.103)">
			<stop offset="0" stop-color="#a1a1a1" stop-opacity="1"/>
			<stop offset="1" stop-color="#a1a1a1" stop-opacity="0"/>
		</linearGradient>
		<filter x="-50%" y="-50%" width="200%" height="200%" id="f1"> <feGaussianBlur stdDeviation="1.4"/> </filter>
		<linearGradient id="g2" x2="1" gradientUnits="userSpaceOnUse" gradientTransform="matrix(.965,85.869,-60.176,.676,161.594,28.927)">
			<stop offset="0" stop-color="#ff9f0a" stop-opacity="1"/>
			<stop offset="1" stop-color="#ff9f0a" stop-opacity="0"/>
		</linearGradient>
	</defs>
	<style>
		.s0 { fill: none } 
		.s1 { fill: #ffffff } 
		.s2 { fill: url(#g1) } 
		.s3 { opacity: .2;filter: url(#f1);fill: #ffffff;stroke: #ffffff;stroke-width: 1 } 
		.s4 { fill: url(#g2) } 
		.s5 { fill: #f59f00 } 
	</style>
	<path id="path3831" class="s0" d="m88.01 9.87l100.69 64.08c0 0 4.89 3.2 7.28 6.99 2.31 3.65 2.39 7.12 2.39 7.12 0 0-0.16 3.79-2.43 6.94-2.42 3.36-7.8 6.85-7.8 6.85l-96.52 64.32 84.62-73.38c0 0 3.2-2.47 3.02-4.66-0.18-2.15-3.53-4.58-3.53-4.58"/>
	<path id="path3924" class="s1" d="m88.01 9.87l100.69 64.08c0 0 4.89 3.2 7.28 6.99 2.31 3.65 2.39 7.12 2.39 7.12 0 0-0.16 3.79-2.43 6.94-2.42 3.36-7.8 6.85-7.8 6.85l-96.52 64.32 84.62-73.38c0 0 3.2-2.47 3.02-4.66-0.18-2.15-3.53-4.58-3.53-4.58"/>
	<path id="path3083" class="s2" d="m88.01 9.87l100.69 64.08c0 0 4.89 3.2 7.28 6.99 2.31 3.65 2.39 7.12 2.39 7.12 0 0-0.16 3.79-2.43 6.94-2.42 3.36-7.8 6.85-7.8 6.85l-96.52 64.32 84.62-73.38c0 0 3.2-2.47 3.02-4.66-0.18-2.15-3.53-4.58-3.53-4.58"/>
	<path id="path3817" class="s3" d="m169.85 78.3l10.71-9.25 5.65 3.59-12.83 8.63c-1.52-1.27-1.83-1.53-3.53-2.97z"/>
	<path id="path5393" class="s1" d="m145.73 19.3l50.65 32.48c0 0 2.62 1.46 3.83 3.38 1.16 1.84 1.24 3.53 1.24 3.53 0 0-0.05 1.65-1.19 3.24-1.23 1.69-4.16 3.62-4.16 3.62l-48.54 32.6 42.78-37.08c0 0 1.52-1.18 1.43-2.29-0.09-1.08-1.77-2.3-1.77-2.3"/>
	<path id="path3855" class="s4" d="m145.73 19.3l50.65 32.48c0 0 2.62 1.46 3.83 3.38 1.16 1.84 1.24 3.53 1.24 3.53 0 0-0.05 1.65-1.19 3.24-1.23 1.69-4.16 3.62-4.16 3.62l-14.53 9.76-3.61 2.43-2.3 1.54-28.1 18.87 24.32-21.08 2.4-2.08 16.06-13.92c0 0 1.52-1.18 1.43-2.29-0.09-1.08-1.77-2.3-1.77-2.3"/>
	<path id="path3006" class="s5" d="m224.82 57.71h40.13q5.5 0 8.01 2.22 2.51 2.22 2.51 7.43v5.79q0 1.54-0.39 2.99-0.29 1.35-1.16 2.51-0.86 1.06-2.5 1.93-1.64 0.77-4.25 1.06 8.59 1.06 8.59 9.74v6.37q0 9.74-13.8 9.74h-37.14zm42.16 11q0-2.7-1.26-3.48-1.15-0.86-3.85-0.86h-28.75v13.79h28.75q2.7 0 3.85-0.87 1.26-0.96 1.26-3.57zm0.38 21.9q0-3.47-1.25-4.73-1.16-1.25-4.24-1.25h-28.75v16.01h28.75q3.08 0 4.24-1.25 1.25-1.25 1.25-4.63z"/>
	<path id="path3008" class="s5" d="m313.73 57.71h8.88l27.68 49.78h-9.16l-6.37-12.25h-33.66l-6.37 12.25h-8.2zm17.65 31.16l-13.41-25.47-13.41 25.47z"/>
	<path id="path3010" class="s5" d="m371.19 64.47v13.89h31.35q3.38 0 5.59 0.58 2.32 0.57 3.57 1.93 1.35 1.35 1.84 3.66 0.58 2.22 0.58 5.6v5.59q0 3.47-0.58 5.79-0.49 2.22-1.84 3.57-1.35 1.35-3.57 1.93-2.21 0.48-5.59 0.48h-29.04q-3.37 0-5.59-0.48-2.22-0.58-3.57-1.93-1.35-1.35-1.93-3.57-0.58-2.32-0.58-5.79v-1.35l7.72-1.83v8h37.04v-14.95h-31.25q-3.38 0-5.6-0.48-2.22-0.58-3.57-1.93-1.25-1.35-1.83-3.57-0.58-2.31-0.58-5.79v-4.34q0-3.47 0.58-5.69 0.58-2.31 1.83-3.67 1.35-1.35 3.57-1.83 2.22-0.58 5.6-0.58h26.52q3.09 0 5.31 0.49 2.22 0.48 3.57 1.73 1.45 1.26 2.12 3.38 0.68 2.12 0.68 5.3v1.07l-7.14 2.02v-7.23z"/>
	<path id="path3012" class="s5" d="m436.91 57.71h47.94v6.66h-39.64v13.89h24.21v6.56h-24.21v15.82h40.03v6.85h-48.33z"/>
</svg>