<svg version="1.2" xmlns="http://www.w3.org/2000/svg" viewBox="0 0 1080 1080" width="1080" height="1080">
	<style>
		.s0 { fill: #f59f00 } 
	</style>
	<path id="path3006" class="s0" d="m24.59 36.19h812.5q111.32 0 162.11 44.92 50.78 44.93 50.78 150.39v117.19q0 31.25-7.81 60.55-5.87 27.34-23.44 50.78-17.58 21.48-50.78 39.06-33.21 15.63-85.94 21.48 173.83 21.49 173.83 197.27v128.91q0 197.26-279.3 197.26h-751.95zm853.51 222.66q0-54.69-25.39-70.32-23.44-17.57-78.12-17.57h-582.03v279.29h582.03q54.68 0 78.12-17.58 25.39-19.53 25.39-72.26zm7.82 443.36q-0.01-70.32-25.39-95.71-23.44-25.39-85.94-25.39h-582.03v324.22h582.03q62.5 0 85.94-25.39 25.38-25.39 25.39-93.75z"/>
</svg>