<svg version="1.2" xmlns="http://www.w3.org/2000/svg" viewBox="0 0 575 176" width="575" height="176">
	<style>
		.s0 { fill: #b75400 } 
		.s1 { fill: #ffffff } 
		.s2 { fill: #212121 } 
		.s3 { fill: none;stroke: #b75400;stroke-width: 2.3 } 
	</style>
	<path fill-rule="evenodd" class="s0" d="m331.62 27v121.71h-328.62v-121.71z"/>
	<path class="s1" d="m40.12 69v34.07h-5.87v-34.07zm35.28 0v34.07h-5.87l-15.28-24.41v24.41h-5.87v-34.07h5.87l15.33 24.45v-24.45zm17.85 34.07h-7.28l0.05-4.66h7.23q3.16 0 5.29-1.38 2.15-1.38 3.23-3.95 1.1-2.58 1.1-6.13v-1.85q0-2.76-0.63-4.89-0.61-2.13-1.83-3.58-1.19-1.45-2.95-2.2-1.73-0.75-4-0.75h-7.63v-4.68h7.63q3.39 0 6.2 1.15 2.81 1.12 4.85 3.25 2.05 2.13 3.15 5.1 1.1 2.97 1.1 6.64v1.81q0 3.67-1.1 6.64-1.1 2.97-3.15 5.1-2.06 2.11-4.92 3.26-2.83 1.12-6.34 1.12zm-4.03-34.07v34.07h-5.87v-34.07zm48.7 29.41v4.66h-18.09v-4.66zm-16.43-29.41v34.07h-5.87v-34.07zm14.06 14.23v4.58h-15.72v-4.58zm2.24-14.23v4.68h-17.97v-4.68zm10.34 0l7.23 12.42 7.23-12.42h6.77l-10.3 16.87 10.55 17.2h-6.83l-7.42-12.66-7.41 12.66h-6.86l10.58-17.2-10.32-16.87zm49.07 29.41v4.66h-18.09v-4.66zm-16.43-29.41v34.07h-5.87v-34.07zm14.06 14.23v4.58h-15.72v-4.58zm2.24-14.23v4.68h-17.97v-4.68zm15.77 34.07h-7.28l0.05-4.66h7.23q3.16 0 5.29-1.38 2.15-1.38 3.23-3.95 1.1-2.58 1.1-6.13v-1.85q0-2.76-0.63-4.89-0.61-2.13-1.83-3.58-1.19-1.45-2.95-2.2-1.73-0.75-4-0.75h-7.63v-4.68h7.63q3.4 0 6.2 1.15 2.81 1.12 4.85 3.25 2.06 2.13 3.16 5.1 1.1 2.97 1.1 6.64v1.81q0 3.67-1.1 6.64-1.1 2.97-3.16 5.1-2.06 2.11-4.92 3.26-2.83 1.12-6.34 1.12zm-4.02-34.07v34.07h-5.88v-34.07zm52.07 18.67h-8.68l-0.05-4.28h7.58q1.92 0 3.25-0.56 1.36-0.59 2.06-1.66 0.71-1.1 0.71-2.65 0-1.71-0.66-2.78-0.66-1.08-2.01-1.57-1.34-0.49-3.42-0.49h-5.69v29.39h-5.87v-34.07h11.56q2.81 0 5.01 0.54 2.22 0.54 3.77 1.68 1.56 1.13 2.36 2.86 0.82 1.73 0.82 4.12 0 2.1-1.01 3.86-1 1.73-2.97 2.83-1.97 1.1-4.89 1.31zm-0.26 15.4h-10.27l2.64-4.66h7.63q1.99 0 3.33-0.66 1.33-0.68 1.98-1.85 0.68-1.19 0.68-2.78 0-1.66-0.58-2.88-0.59-1.24-1.85-1.89-1.26-0.68-3.3-0.68h-6.6l0.05-4.28h8.59l1.33 1.61q2.81 0.09 4.61 1.24 1.82 1.15 2.71 2.97 0.89 1.83 0.89 3.93 0 3.26-1.42 5.46-1.41 2.2-4.05 3.34-2.65 1.13-6.37 1.13zm20.66-34.08l7.91 16.27 7.91-16.27h6.51l-11.47 21.53v12.55h-5.92v-12.55l-11.46-21.53z"/>
	<path fill-rule="evenodd" class="s1" d="m571.62 30.42v114.87h-236.58v-114.87z"/>
	<path class="s2" d="m398.61 120.33q-1.17 0-2.27-0.3c-1.13-0.31-2.23-0.83-3.44-1.62-0.18-0.12-1.33-1.12-1.97-1.68l-0.02-0.01q-0.19-0.16-0.3-0.26c-0.7 0.35-1.36 0.81-2.01 1.27-1.31 0.92-2.67 1.86-4.42 1.92-1.5 0.06-3.08-0.18-4.89-0.73q-0.24-0.08-1.1-0.44c-0.64-0.27-1.61-0.61-1.93-0.74-0.03-0.01-0.15-0.09-0.19-0.22-0.05-0.13-0.05-0.32-0.02-0.37 1.2-0.93 2.35-2.05 3.47-3.14 0.74-0.71 1.51-1.46 2.28-2.13q0.39-0.36 0.75-0.77l0.39-0.51c2.07-2.87 2.94-7.52 3.42-10.98 0.46-3.22 0.21-6.57-0.06-9.45-0.49-5.33-2.16-9.19-5.12-11.82-1.37-1.22-2.91-2.21-4.37-3.12l-0.64-0.39c-1.49-0.92-3.03-1.87-4.42-2.99-0.16-0.13-0.23-0.33-0.17-0.52 0.23-0.91 4.13-2.19 4.17-2.2q1.04-0.16 2.31-0.17c0.97 0 1.94 0.08 2.85 0.14 2.23 0.18 3.66 1.2 5.18 2.29q0.8 0.58 1.69 1.14l0.06-0.07c0.18-0.23 0.31-0.52 0.45-0.82 0.2-0.42 0.4-0.85 0.75-1.21 0.84-0.83 1.87-1.05 2.68-1.16q0.44-0.05 0.83-0.06c1.49 0 2.42 0.62 3.58 1.42q0.27 0.17 0.56 0.37 0.73 0.48 1.23 0.48c0.56 0 0.89-0.43 1.41-1.13 0.54-0.74 1.15-1.58 2.31-1.72 1.2-0.14 2.15 0.48 2.97 1.02 0.63 0.42 1.23 0.81 1.84 0.81q0.72 0.01 1.52-0.77c0.66-0.64 1.21-1.12 1.87-1.12 0.47 0 0.94 0.24 1.48 0.76l0.12 0.12c1.16 1.12 1.48 1.44 2.93 0.65 1.11-0.59 2.52-0.97 3.69-0.97 2 0 3.24 1.05 3.31 2.87l-0.18 0.05-0.32 0.11c-0.14 0.05-0.22 0.07-0.35 0.13-1.55 0.48-6.23 3.13-6.7 3.5-1.57 1.21-3.05 2.77-4.16 4.39-4.29 6.25-4.21 15.16-2.83 20.89 0.72 3.02 1.69 6.53 3.43 9.81q1.17 2.19 2.68 4.02l0.1 0.13c2.4 2.92 2.92 3.03 3.08 3.19q0.14 0.13 0.17 0.25c0.02 0.19-0.19 0.34-0.35 0.43q-0.31 0.16-0.66 0.23c-0.23 0.05-0.37 0.07-0.67 0.13q-0.37 0.06-0.75 0.08c-1.09 0.08-2.16 0.13-3.24 0.02q-1.01-0.1-2.01-0.28c-0.81-0.15-2.5-0.51-3.45-1.08l-0.63 0.35c-0.97 0.68-2.77 1.43-3 1.51-0.94 0.3-1.93 0.47-2.92 0.47zm-7.46-4.28c0.61 0.54 1.95 1.69 2.1 1.79 1.15 0.76 2.18 1.25 3.26 1.54 1.53 0.42 3.24 0.36 4.84-0.18 0.21-0.06 2.06-0.85 2.91-1.47l-0.19-0.39c-0.7-1.43-1.67-3.4-2.16-4.84q-0.16-0.47-0.31-0.88c-0.55-1.54-0.98-2.76-0.98-4.91v-1.83l4.27 11.57q0.15 0.32 0.27 0.68h0.01c0.34 0.49 2.09 1.01 3.56 1.28 2.5 0.46 4.77 0.46 6.56 0-0.54-0.43-1.37-1.3-2.75-2.97l-0.1-0.12q-1.55-1.87-2.75-4.13c-1.78-3.34-2.77-6.91-3.5-9.96-1.4-5.87-1.48-14.99 2.94-21.43 1.15-1.68 2.67-3.29 4.29-4.55 0.4-0.31 5.69-3.28 7.21-3.63-0.25-1.5-1.51-1.83-2.58-1.83-1.07 0-2.36 0.34-3.38 0.89-1.85 0.99-2.47 0.42-3.69-0.76l-0.12-0.12q-0.6-0.58-1.03-0.58c-0.42 0-0.88 0.41-1.42 0.94q-0.98 0.96-1.97 0.96c-0.8 0-1.51-0.46-2.19-0.91-0.77-0.51-1.57-1.04-2.54-0.92-0.89 0.1-1.36 0.76-1.87 1.45-0.5 0.69-1.01 1.4-1.93 1.4q-0.68 0-1.58-0.58-0.29-0.2-0.56-0.37c-1.17-0.78-1.94-1.31-3.23-1.31q-0.35 0-0.75 0.05c-1.06 0.14-1.75 0.44-2.3 0.98-0.26 0.28-0.44 0.64-0.62 1.02q-0.17 0.38-0.39 0.75c1.46 2.36 2.27 5.19 2.53 6.93 0.45 3.02-0.29 4.67-0.99 6.26l-0.53 1.21-1.83-13.85c-0.71-0.41-1.34-0.87-1.96-1.3-1.45-1.03-2.81-2-4.85-2.16-0.91-0.08-1.86-0.14-2.8-0.14q-1.22-0.01-2.21 0.16c-0.4 0.09-3.06 1.12-3.58 1.63 1.33 1.06 2.81 1.97 4.23 2.85l0.64 0.39c1.48 0.92 3.05 1.92 4.46 3.18 3.09 2.75 4.84 6.75 5.34 12.26 0.27 2.92 0.52 6.32 0.05 9.6-0.42 3.06-1.08 6.57-2.41 9.35l3.33-3.06c0.33-0.31 0.78-0.67 1.14-0.96l1.8-1.44-2.37 3.6c-0.54 0.49-0.94 0.88-1.37 1.5-0.44 0.63-1.14 1.17-1.66 1.57-0.55 0.42-1.15 0.64-2 0.73q-0.56 0.77-1.23 1.37c-0.76 0.66-1.52 1.4-2.25 2.11-0.98 0.94-1.98 1.91-3.03 2.77 0.34 0.12 0.82 0.32 1.49 0.6 0.46 0.19 0.9 0.38 1.03 0.41 1.75 0.53 3.27 0.77 4.69 0.72 1.56-0.06 2.78-0.91 4.07-1.81 0.72-0.5 1.46-1.02 2.27-1.39l3.64-14.04v2.56c0 2.53-0.17 3.62-0.41 4.9-0.14 0.79-0.53 1.8-0.88 2.69-0.19 0.48-0.36 0.94-0.48 1.31-0.21 0.66-0.42 1.11-0.69 1.68-0.13 0.35-0.31 0.71-0.51 1.18zm10.41-6.75c0.17 0.71 0.4 1.36 0.67 2.11q0.15 0.42 0.31 0.88c0.26 0.77 0.66 1.7 1.09 2.62zm-8.21-1.94l-1.12 4.33q0.01-0.03 0.01-0.04c0.34-0.87 0.72-1.85 0.85-2.57 0.1-0.55 0.19-1.08 0.26-1.72zm-6.22 0.26l-2.69 2.48q0.34-0.14 0.63-0.36c0.47-0.37 1.13-0.87 1.51-1.41q0.27-0.41 0.55-0.71zm1.32-33.7l1.39 10.73c0.51-1.28 0.88-2.69 0.54-4.95-0.21-1.47-0.84-3.72-1.93-5.78zm17.46 39.08c-0.27-0.61-0.41-1.23-0.54-1.83l-0.1-0.45-0.22-0.79q-0.03-0.09-0.06-0.19c-0.19-0.52-0.43-0.96-0.68-1.41-0.27-0.5-0.55-1.03-0.76-1.67-0.8-2.42-1.33-4.53-1.33-6.9v-2.38l3.49 12.5q0.11 0.34 0.18 0.68l0.62 2.2zm-7.81-21.7l1.84-4.12c0.18-0.69 0.31-1.53 0.44-2.35 0.13-0.91 0.26-1.76 0.47-2.31 0.61-1.6 1.93-2.58 3.21-3.52 0.64-0.47 1.24-0.92 1.76-1.45l1.67-1.67-6.44 11.57c-0.26 0.87-1.42 3.21-2.19 3.53zm6.79-12.09q-0.23 0.17-0.46 0.33c-1.25 0.93-2.44 1.81-2.98 3.23-0.18 0.47-0.3 1.3-0.44 2.17q-0.12 0.89-0.29 1.75zm2.13-1.7l0.47-1.53c0.37-1.21 1.47-4.03 3.62-4.16l0.76-0.04zm3.04-4.59q-0.6 0.44-1.1 1.28z"/>
	<path class="s2" d="m376.54 119.03c3.22 5.95 12.27 7.26 18.22 7.41 2.27 0.06 4.57-0.09 6.81-0.38 1.21-0.16 2.34-0.51 3.58-0.86 2.12-0.61 4.24-1.28 6.24-2.22 1.79-0.85 4.32-1.72 4.86-4.03-0.96 1.61-8.73 0.69-9.9 0.11-0.73-0.36-0.66-0.48-1.26 0.11-1.86 1.83-5.13 2.42-7.57 1.96-1.96-0.37-4.61-1.92-6.18-3.16-0.61-0.49-0.32-0.73-1.17-0.33-1.89 0.9-3.24 2.11-5.42 2.47-2.27 0.37-4.38-0.04-6.91-1.18-0.63-0.28-0.88-0.32-1.6-0.8z"/>
	<path class="s2" d="m371.83 70.49c3.82-5.26 10.1-7.15 16.01-8.82 3.01-0.84 5.51-1.36 8.69-1.36 2.77 0 5.46 0.66 8.16 1.21 2.72 0.55 5.5 0.99 7.9 2.47 1.54 0.96 3.37 1.46 4.92 2.44 0.52 0.33 2.35 0.78 2.11 1.58-0.33 1.14-3.03 0.06-3.89 0.5-0.92 0.48-2.15 1.37-3.2 1.06-1.01-0.29-1.3-1.5-2.44-1.62-1.74-0.18-2.08 1.7-3.82 1.57-1.32-0.11-2.83-1.78-4.16-1.69-1.26 0.08-2.63 1.46-3.56 2.16-1.71 1.29-2.45-0.51-3.92-1.11-0.88-0.35-1.22-0.45-2.18-0.45-2.41 0-3.87 1.09-5.24 3.03 0.46-0.66-2.59-2.13-2.9-2.22-1.28-0.36-2.61-0.9-3.93-0.92-3.34-0.06-5.7 0.03-8.55 2.17z"/>
	<path class="s2" d="m396.75 42.25c-0.66-0.89-1.47-0.54-2.5-0.49-0.56 1.58-0.05 2.91 0.23 4.25 0.32 1.47 0.58 2.97 0.84 4.36 0.29 1.46 0.39 2.99 0.48 4.6 0.03 0.79 0.07 1.68-0.1 2.43-0.15 0.68-0.61 1.13-0.73 1.79 1.31-0.03 2.72 0 4.06-0.08 0.01-0.67-0.43-1.33-0.59-1.96-0.18-0.73-0.06-1.43-0.14-2.18-0.13-1.25-0.43-2.48-0.57-3.81-0.32-2.94-0.8-5.9-0.98-8.91z"/>
	<path class="s2" d="m419.97 47.73c-3.59 0.06-7.51 0.24-10.83 2.14-1.56 0.88-2.67 1.99-4.12 3.08-0.73 0.55-1.48 1.04-2.33 1.47-0.86 0.44-1.88 0.51-2.68 0.99l0.42 0.98c1.08-0.31 1.31-0.49 2.42-0.56 1.09-0.06 2.13-0.25 3.33-0.13 1.12 0.11 2.42 0.09 3.49 0.38 1.25 0.35 2.84 0.35 4.12 0.45 2.56 0.2 5.69-0.37 8.24-0.91 1.84-0.4 4.29-1.2 5.71-2.6 0.59-0.6 0.9-1.18 1.61-1.85 0.67-0.64 1.71-1.92 2.21-2.66 0.49-0.74 0.94-1.19 1.41-1.98 0.4-0.69 1.17-2.14 1.18-3.02-3.47 3.97-9.44 4.14-14.18 4.22z"/>
	<path class="s2" d="m448.68 101.48q-0.38 5.47-3.89 8.62-3.49 3.15-9.22 3.15-6.27 0-9.88-4.38-3.58-4.41-3.58-12.08v-2.08q0-4.89 1.66-8.62 1.66-3.74 4.72-5.72 3.09-2 7.17-2 5.64 0 9.09 3.15 3.44 3.14 3.98 8.83h-6.72q-0.24-3.29-1.76-4.75-1.51-1.5-4.59-1.5-3.36 0-5.04 2.52-1.66 2.5-1.7 7.77v2.56q0 5.5 1.59 8.05 1.61 2.54 5.06 2.54 3.11 0 4.63-1.47 1.55-1.49 1.77-4.59z"/>
	<path class="s2" d="m479.87 96.58q-0.01 5.01-1.71 8.79-1.7 3.78-4.88 5.83-3.15 2.05-7.25 2.05-4.05 0-7.23-2.03-3.18-2.03-4.92-5.78-1.75-3.78-1.77-8.68v-1.67q0-5.02 1.72-8.82 1.75-3.82 4.9-5.85 3.18-2.05 7.26-2.05 4.07 0 7.23 2.05 3.17 2.03 4.9 5.85 1.74 3.8 1.75 8.79zm-6.81-1.54q0-5.34-1.84-8.11-1.83-2.78-5.23-2.78-3.38 0-5.22 2.76-1.83 2.72-1.86 8.02v1.65q0 5.2 1.84 8.07 1.83 2.87 5.28 2.87 3.38 0 5.19-2.75 1.82-2.78 1.84-8.07z"/>
	<path class="s2" d="m496.81 100.36h-5.35v12.42h-6.72v-33.95h12.11q5.78 0 8.91 2.69 3.13 2.68 3.14 7.57-0.01 3.48-1.46 5.81-1.43 2.31-4.36 3.68l7.05 13.88v0.32h-7.21zm-5.35-5.66h5.42q2.53 0 3.92-1.33 1.38-1.35 1.38-3.71 0-2.4-1.32-3.78-1.3-1.37-4-1.37h-5.4z"/>
	<path class="s2" d="m533.63 98.07h-12.89v9.09h15.13v5.62h-21.85v-33.95h21.8v5.67h-15.08v8.09h12.89z"/>
	<path fill-rule="evenodd" class="s3" d="m571.62 30.42v114.87h-236.58v-114.87z"/>
</svg>