<svg version="1.2" xmlns="http://www.w3.org/2000/svg" viewBox="0 0 1080 1080" width="1080" height="1080">
	<style>
		.s0 { fill: #212121 } 
	</style>
	<path class="s0" d="m487.38 991.49c-9.63 0-19.1-1.29-28.2-3.76-14.13-3.85-27.81-10.26-42.86-20.16-2.27-1.46-16.6-13.92-24.6-20.89l-0.19-0.18c-1.55-1.28-2.8-2.38-3.71-3.21-8.72 4.31-17.02 10.08-25.13 15.76-16.29 11.46-33.23 23.18-54.95 24.01-18.68 0.73-38.39-2.3-61.02-9.17-1.97-0.55-6.4-2.47-13.6-5.4-8.04-3.39-20.09-7.61-24.07-9.26-0.34-0.18-1.89-1.09-2.42-2.74-0.54-1.56-0.54-4.04-0.27-4.59 14.97-11.63 29.37-25.55 43.32-39.11 9.21-8.89 18.76-18.15 28.31-26.58 3.33-2.93 6.4-6.13 9.36-9.61l4.89-6.33c25.77-35.73 36.57-93.63 42.6-136.69 5.68-40.13 2.61-81.82-0.72-117.73-6.1-66.34-26.95-114.44-63.79-147.23-17.13-15.21-36.3-27.58-54.5-38.85l-7.95-4.86c-18.54-11.45-37.68-23.27-55.03-37.29-2.01-1.56-2.81-4.03-2.16-6.41 2.88-11.36 51.54-27.3 51.96-27.39 8.75-1.38 18.23-2.11 28.84-2.11 12.09 0 24.14 0.92 35.51 1.74 27.66 2.2 45.51 14.93 64.5 28.49 6.67 4.77 13.53 9.62 21 14.21l0.72-0.83c2.27-2.93 3.9-6.5 5.68-10.26 2.43-5.22 4.97-10.63 9.36-15.03 10.46-10.35 23.27-13.19 33.35-14.47 3.72-0.46 7.02-0.74 10.35-0.74 18.57 0 30.13 7.7 44.61 17.59 2.27 1.47 4.51 3.03 6.93 4.68 6.07 3.94 11.18 5.95 15.35 5.95 6.94 0 11.07-5.31 17.47-14.01 6.75-9.26 14.33-19.7 28.84-21.44 14.94-1.74 26.76 5.95 37.03 12.73 7.85 5.13 15.31 10.08 22.89 10.08 6.03 0 12.24-3.11 18.91-9.62 8.19-7.97 15.05-14.02 23.35-14.02 5.84 0 11.71 3.02 18.38 9.53l1.52 1.46c14.44 14.02 18.38 17.96 36.49 8.16 13.8-7.42 31.38-12.09 45.97-12.09 24.87 0 40.29 13.1 41.16 35.73l-2.23 0.64-3.98 1.28c-1.78 0.73-2.77 0.92-4.4 1.65-19.29 5.96-77.58 39.03-83.45 43.61-19.56 15.12-37.94 34.54-51.73 54.7-53.44 77.88-52.42 188.82-35.33 260.19 9.02 37.57 21.11 81.37 42.83 122.13 9.63 18.15 20.88 35 33.31 50.12l1.29 1.56c29.83 36.37 36.38 37.84 38.28 39.76 1.17 1.19 1.97 2.01 2.16 3.12 0.26 2.38-2.35 4.21-4.32 5.31-2.62 1.37-5.42 2.29-8.3 2.93-2.77 0.64-4.59 0.92-8.26 1.56-3.07 0.55-6.22 0.82-9.4 1.1-13.49 1.01-26.83 1.55-40.36 0.18-8.38-0.91-16.76-1.92-25.06-3.48-10-1.83-31.15-6.32-42.97-13.47l-7.73 4.4c-12.17 8.43-34.53 17.78-37.41 18.78-11.71 3.76-24.07 5.87-36.42 5.87zm-92.89-53.33c7.58 6.69 24.25 21.07 26.15 22.36 14.33 9.44 27.21 15.57 40.55 19.15 19.18 5.22 40.36 4.49 60.37-2.2 2.62-0.83 25.66-10.63 36.2-18.42l-2.31-4.76c-8.76-17.87-20.85-42.33-26.95-60.38-1.36-3.85-2.62-7.51-3.9-10.9-6.83-19.15-12.17-34.36-12.17-61.11v-22.81l53.17 144.11c1.25 2.57 2.43 5.5 3.45 8.43h0.08c4.24 6.14 25.96 12.55 44.34 15.94 31.08 5.68 59.35 5.77 81.63 0-6.67-5.4-16.94-16.12-34.14-37.01l-1.29-1.47c-12.77-15.48-24.33-32.8-34.3-51.49-22.17-41.5-34.45-86.03-43.55-124.05-17.47-73.02-18.38-186.72 36.58-266.89 14.32-20.89 33.35-40.95 53.43-56.62 5.04-3.94 70.91-40.86 89.86-45.26-3.07-18.69-18.83-22.81-32.1-22.81-13.34 0-29.45 4.21-42.14 11.09-23.01 12.36-30.74 5.31-45.97-9.44l-1.52-1.47c-5.04-4.85-9.21-7.23-12.81-7.23-5.23 0-10.91 5.04-17.66 11.72-8.19 7.98-16.22 11.91-24.52 11.91-10.01 0-18.84-5.77-27.29-11.36-9.62-6.32-19.55-12.91-31.72-11.45-10.99 1.28-16.94 9.44-23.23 18.14-6.22 8.52-12.62 17.41-23.99 17.41-5.76 0-12.24-2.38-19.71-7.24-2.46-1.65-4.77-3.21-7.05-4.67-14.51-9.71-24.06-16.22-40.17-16.22-2.88 0-6.06 0.18-9.29 0.64-13.26 1.74-21.83 5.41-28.65 12.19-3.33 3.39-5.49 7.88-7.77 12.64-1.44 3.12-2.95 6.32-4.92 9.35 18.19 29.41 28.34 64.68 31.6 86.39 5.58 37.57-3.6 58.09-12.35 77.97l-6.67 15.03-22.7-172.52c-8.83-5.13-16.75-10.81-24.41-16.22-18.04-12.82-35.06-24.92-60.45-26.93-11.29-0.92-23.15-1.74-34.9-1.74-10.16 0-19.18 0.64-27.55 2.01-4.97 1.1-38.02 14.02-44.54 20.34 16.6 13.19 34.98 24.55 52.72 35.46l7.96 4.85c18.46 11.45 38.01 24.01 55.56 39.67 38.5 34.18 60.22 84.11 66.51 152.64 3.34 36.37 6.41 78.7 0.65 119.66-5.35 38.02-13.46 81.81-30.02 116.44l41.46-38.2c4.13-3.85 9.7-8.25 14.21-11.91l22.36-17.96-29.56 44.89c-6.67 6.14-11.71 11-17.01 18.69-5.42 7.88-14.25 14.57-20.66 19.52-6.82 5.22-14.4 7.97-24.94 9.16-4.62 6.32-9.74 12-15.31 16.95-9.47 8.34-18.95 17.5-28.04 26.3-12.17 11.72-24.6 23.82-37.67 34.53 4.24 1.56 10.12 4.04 18.57 7.52 5.68 2.38 11.1 4.67 12.81 5.13 21.79 6.6 40.62 9.53 58.36 8.88 19.48-0.73 34.6-11.26 50.75-22.53 8.9-6.23 18.11-12.65 28.19-17.32l45.33-174.9v31.88c0 31.52-2.08 45.17-5.04 61.11-1.82 9.81-6.67 22.36-10.99 33.54-2.35 5.95-4.51 11.63-5.95 16.3-2.62 8.16-5.23 13.75-8.64 20.89-1.63 4.31-3.79 8.89-6.33 14.66zm129.69-84.01c2.05 8.79 4.93 16.86 8.26 26.2 1.29 3.48 2.54 7.15 3.87 11 3.26 9.62 8.3 21.16 13.64 32.61zm-102.29-24.09l-13.98 53.87c0.11-0.19 0.11-0.37 0.19-0.46 4.17-10.81 8.94-23.09 10.53-32.07 1.29-6.87 2.47-13.46 3.26-21.34zm-77.5 3.2l-33.5 30.88c2.88-1.19 5.38-2.66 7.84-4.49 5.95-4.58 14.14-10.81 18.84-17.59 2.23-3.39 4.47-6.23 6.82-8.8zm16.48-419.8l17.32 133.67c6.41-15.94 10.92-33.43 6.75-61.65-2.69-18.24-10.46-46.36-24.07-72.02zm217.43 486.78c-3.34-7.61-5.04-15.3-6.67-22.73l-1.25-5.67-2.77-9.81c-0.19-0.83-0.45-1.56-0.76-2.38-2.31-6.42-5.38-12.01-8.37-17.5-3.41-6.32-6.94-12.92-9.55-20.8-9.89-30.23-16.56-56.43-16.56-85.94v-29.68l43.43 155.66c0.91 2.75 1.7 5.68 2.35 8.52l7.65 27.39zm-97.21-270.37l22.89-51.21c2.24-8.61 3.79-19.15 5.42-29.32 1.71-11.27 3.34-21.9 5.95-28.77 7.55-19.97 24.03-32.15 39.91-43.88 8-5.87 15.5-11.46 21.98-17.96l20.73-20.8-80.19 144.03c-3.18 10.9-17.66 39.94-27.21 43.98zm84.51-150.63c-1.89 1.38-3.79 2.84-5.68 4.22-15.65 11.54-30.44 22.45-37.11 40.13-2.27 5.95-3.79 16.22-5.49 27.03-1.1 7.33-2.27 14.75-3.71 21.89zm26.6-21.25l5.84-19.06c4.58-15.02 18.3-50.21 45.06-51.77l9.55-0.54zm37.75-57.17c-4.89 3.66-9.48 9.06-13.61 16.03z"/>
	<path class="s0" d="m212.58 975.26c40.02 74.12 152.8 90.52 226.9 92.35 28.27 0.73 56.84-1.1 84.85-4.76 14.97-2.02 29.11-6.32 44.53-10.72 26.38-7.6 52.79-15.94 77.77-27.67 22.25-10.54 53.78-21.35 60.45-50.21-11.98 20.07-108.66 8.61-123.29 1.47-9.09-4.49-8.18-6.05-15.65 1.28-23.15 22.82-63.97 30.14-94.25 24.46-24.41-4.58-57.42-23.91-77.05-39.39-7.58-6.05-3.98-9.07-14.52-4.03-23.61 11.17-40.36 26.2-67.49 30.69-28.28 4.67-54.58-0.46-86.11-14.66-7.84-3.48-11.03-3.94-19.93-9.99z"/>
	<path class="s0" d="m153.91 370.67c47.49-65.5 125.71-89.05 199.31-109.75 37.48-10.54 68.67-17.05 108.24-17.05 34.48 0 68.1 8.25 101.72 15.12 33.8 6.87 68.4 12.28 98.31 30.79 19.29 11.9 41.99 18.22 61.28 30.41 6.48 4.12 29.26 9.62 26.38 19.61-4.13 14.2-37.83 0.82-48.48 6.32-11.52 5.95-26.75 17.04-39.9 13.19-12.62-3.66-16.22-18.78-30.36-20.24-21.64-2.21-25.96 21.16-47.6 19.51-16.37-1.28-35.21-22.08-51.81-20.98-15.65 1.01-32.71 18.14-44.34 26.84-21.34 16.13-30.55-6.32-48.81-13.74-10.92-4.4-15.16-5.68-27.14-5.68-30.02 0-48.28 13.56-65.34 37.75 5.8-8.25-32.25-26.48-36.04-27.58-15.92-4.49-32.52-11.27-49-11.55-41.61-0.73-70.99 0.46-106.42 27.03z"/>
	<path class="s0" d="m464.22 18.95c-8.18-11.09-18.26-6.69-31.15-6.05-6.93 19.6-0.53 36.28 2.96 52.86 3.9 18.33 7.2 37.11 10.46 54.33 3.52 18.24 4.85 37.29 5.87 57.36 0.42 9.8 0.87 20.89-1.17 30.23-1.9 8.43-7.58 14.11-9.1 22.36 16.3-0.46 33.88-0.1 50.52-1.01 0.11-8.34-5.31-16.58-7.28-24.46-2.27-9.07-0.83-17.78-1.82-27.12-1.63-15.58-5.38-30.88-7.12-47.46-3.87-36.65-9.89-73.48-12.17-111.04z"/>
	<path class="s0" d="m753.47 87.3c-44.69 0.73-93.61 2.93-134.96 26.57-19.37 10.99-33.16 24.83-51.28 38.38-9.09 6.88-18.38 12.92-29.03 18.33-10.69 5.4-23.42 6.32-33.31 12.37l5.23 12.18c13.42-3.85 16.3-6.14 30.09-6.96 13.61-0.83 26.57-3.12 41.42-1.65 13.99 1.37 30.21 1.1 43.55 4.76 15.58 4.31 35.4 4.31 51.35 5.59 31.8 2.48 70.84-4.58 102.63-11.36 22.89-4.95 53.44-14.93 71.02-32.43 7.39-7.42 11.26-14.66 20.09-23 8.38-7.97 21.34-23.91 27.55-33.16 6.14-9.17 11.71-14.75 17.51-24.65 5.04-8.61 14.59-26.66 14.75-37.56-43.25 49.47-117.57 51.58-176.61 52.59z"/>
</svg>