<?xml version="1.0" encoding="utf-8" ?><svg xmlns="http://www.w3.org/2000/svg" xmlns:xlink="http://www.w3.org/1999/xlink" width="1200" height="423" viewBox="0 0 1200 423"><path d="M18.4773 0L1181.09 0C1192.84 3.91818 1196.14 7.45612 1200 19.1363L1200 423L0 423L0 18.956C3.77232 7.40685 7.1571 4.05966 18.4773 0Z"/><path fill="#ACB1AA" d="M25.4722 10.2389L799.423 10.2472L1051.67 10.2386L1134.14 10.23C1148.55 10.2296 1162.95 10.1613 1177.36 10.3763C1182.56 10.454 1188.99 14.3414 1189.39 19.9003C1190.13 29.9714 1189.84 40.3434 1189.83 50.4697L1189.78 107.836L1189.81 297.201L1083.11 297.198L361.598 297.195C344.941 327.521 319.887 352.397 289.441 368.838C248.292 390.923 200.062 395.788 155.331 382.365C110.631 368.815 73.0602 338.22 50.7406 297.193L10.228 297.19L10.2634 110.454L10.2125 53.087C10.1873 43.0056 9.94851 32.8064 10.3335 22.7416C10.7068 12.9854 17.0098 10.4742 25.4722 10.2389Z"/><path d="M198.28 40.3355C285.051 35.8204 359.019 102.567 363.401 189.335C367.783 276.103 300.916 349.96 214.132 354.208C127.536 358.447 53.8659 291.764 49.4933 205.185C45.1207 118.605 111.698 44.8408 198.28 40.3355Z"/><path fill="#FEFEFE" d="M194.454 69.163C265.259 62.4884 328.045 114.529 334.616 185.336C341.186 256.143 289.046 318.844 218.222 325.309C147.546 331.759 84.9976 279.759 78.4413 209.1C71.8851 138.442 123.798 75.8235 194.454 69.163Z"/><path d="M156.418 148.988C176.654 145.961 194.103 153.915 204.443 171.508C197.568 175.046 190.673 178.543 183.757 182C175.849 167.349 159.482 163.261 149.135 179C144.161 186.566 144.938 202.287 147.165 210.825C150.202 222.466 161.645 228.017 173.02 224.213C179.603 222.102 182.679 217.522 185.716 211.68L191.374 214.682C195.884 217.059 200.365 219.492 204.815 221.98C197.287 234.237 187.963 243.103 173.242 245.55C160.26 247.672 146.846 245.802 135.841 238.236C114.367 223.473 111.92 187.271 126.181 166.893C133.468 156.48 143.928 151.025 156.418 148.988Z"/><path d="M246.661 148.992C267.044 145.876 284.267 153.905 294.739 171.495L273.683 181.985C268.392 172.503 261.054 166.625 249.922 170.038C225.996 177.373 230.96 234.933 262.827 224.39C269.868 222.061 272.443 217.82 275.742 211.773L279.783 213.788L295.136 221.938C280.103 246.984 251.936 254.008 226.601 238.462C204.733 225.044 202.641 186.05 216.702 166.602C224.21 156.216 234.012 151.075 246.661 148.992Z"/><path d="M755.974 34.3469C820.246 30.6089 875.383 79.6689 879.134 143.933C882.885 208.198 833.83 263.338 769.559 267.101C705.271 270.865 650.106 221.799 646.354 157.517C642.602 93.235 691.684 38.0861 755.974 34.3469Z"/><path fill="#FEFEFE" d="M756.271 55.5401C808.853 51.9784 854.357 91.733 857.88 144.311C861.404 196.889 821.612 242.359 769.025 245.844C716.493 249.325 671.075 209.587 667.555 157.063C664.035 104.54 703.744 59.0981 756.271 55.5401Z"/><path d="M737.388 114.436C737.698 114.423 738.007 114.412 738.316 114.405C749.461 114.197 762.198 114.738 773.166 114.205C796.361 113.079 793.916 117.869 793.818 137.837L793.746 169.661L780.504 169.706L780.5 218.823L780.494 226.228L744.603 226.23L744.606 169.746L731.322 169.687C731.375 155.282 730.407 133.216 732.153 118.684C732.366 116.908 735.66 115.191 737.388 114.436Z"/><path d="M759.14 75.9038C764.87 74.6756 770.818 76.6263 774.707 81.0095C778.596 85.3927 779.824 91.5297 777.922 97.072C776.02 102.614 771.282 106.704 765.52 107.776C756.779 109.402 748.353 103.704 746.608 94.9865C744.863 86.2691 750.446 77.7672 759.14 75.9038Z"/><path fill="#FEFEFE" d="M706.779 329.82C719.03 329.746 731.489 329.302 743.687 330.162C756.05 331.033 763.008 342.458 757.571 353.537C756.16 356.411 753.356 358.315 750.819 360.118C762.066 365.935 765.498 374.688 760.192 386.507C750.389 400.6 722.88 396.593 706.795 396.48L706.779 329.82Z"/><path d="M721.467 366.769C728.76 366.67 739.063 365.548 745.39 369.635C750.089 372.67 748.239 379.069 745.372 382.868C739.703 386.14 728.198 385.134 721.42 385.033L721.467 366.769Z"/><path d="M721.473 341.183C730.016 341.094 752.849 338.985 743.132 354.754C738.261 357.824 727.53 356.885 721.417 356.789L721.473 341.183Z"/><path fill="#FEFEFE" d="M812.229 329.793L828.366 329.832C824.244 337.617 817.666 347.963 813.038 355.747C801.213 374.487 803.748 373.967 803.931 396.511L789.352 396.484L789.346 370.541L765.117 329.835L781.33 329.807L796.828 355.921C801.929 348.019 807.431 338.054 812.229 329.793Z"/></svg>