<svg version="1.2" xmlns="http://www.w3.org/2000/svg" viewBox="0 0 1080 1080" width="1080" height="1080">
	<style>
		.s0 { fill: #00b1e2 } 
		.s1 { fill: #243b54 } 
	</style>
	<path class="s0" d="m8 730.62c7.63 1.42 14.46 2.84 23.51 4.17 385.97 76.66 960.56-24.85 1034.47-211.97 58.03-151.28-266.18-258.29-644.33-245.16q-2.77-0.08-5.54-0.03-2.77 0.04-5.54 0.2-2.77 0.17-5.52 0.46-2.76 0.29-5.5 0.7c201.68 20.06 383.31 100.18 310.55 225.19-79.23 136.73-415.51 227.86-702.1 226.44z"/>
	<path class="s1" d="m853.3 749.69c-66.98 406.11-417.81 163.88-500.68-118.71-120.14-293.51-13.13-670.6 287.3-449.59-248.44-114.01-275.06 216.14-168.59 450.92 88.73 196.17 280.29 322.52 372.66 120.13 4.17-1.33 7.63-1.33 8.87-2.75"/>
</svg>