<svg version="1.2" xmlns="http://www.w3.org/2000/svg" viewBox="0 0 1080 1080" width="1080" height="1080">
	<style>
		.s0 { fill: #36a9e1 } 
		.s1 { fill: #323e50 } 
	</style>
	<g>
		<path class="s0" d="m238.21 270v36.95h-182.26v125.34h163.28v36.45h-163.28v150.8h-39.95v-349.54z"/>
		<path class="s0" d="m505.36 530.16h-190.25l-38.95 89.38h-42.44l156.77-349.52h41.45l156.3 349.52h-43.45zm-15.98-36.95l-79.39-179.75-78.4 179.75z"/>
		<path fill-rule="evenodd" class="s0" d="m683.11 270v349.53h-39.95v-349.53z"/>
		<path class="s0" d="m1017.68 619.53l-73.41-111.86c-6.99 0.5-14.48 1-22.47 1h-92.88v110.86h-39.95v-349.53h132.83c87.39 0 137.82 42.94 137.82 117.35 0 57.42-28.46 96.85-78.9 112.83l82.4 119.35zm-95.88-147.79c63.42 0 99.37-28.45 99.37-83.39 0-53.42-35.95-81.4-99.37-81.4h-92.88v164.77c0 0 92.88 0 92.88 0.02z"/>
	</g>
	<g>
		<g>
		</g>
		<path class="s0" d="m734.1 888.56c-78.87 0-168.98-23.52-261.46-94.24-91.08-69.61-177.34-98.89-256.28-87.27-94.65 14.04-145.95 84.09-146.46 84.7-3.83 5.41-11.32 6.61-16.75 2.83-5.41-3.84-6.57-11.28-2.74-16.68 2.24-3.23 57.22-78.81 161.93-94.52 85.89-12.85 178.24 18.02 274.88 91.86 261.17 199.52 501.26 2.43 503.71 0.4 5.04-4.21 12.66-3.65 16.89 1.43 4.26 5.11 3.58 12.68-1.46 16.98-1.7 1.4-115.1 94.51-272.26 94.51z"/>
		<path class="s1" d="m250.71 889.14c-12.92 0-25.73-0.91-38.37-2.79-104.73-15.77-159.7-91.35-161.93-94.61-3.82-5.33-2.67-12.79 2.74-16.62 5.43-3.86 12.9-2.64 16.75 2.72 0.51 0.73 51.81 70.75 146.46 84.77 78.94 11.78 165.21-17.58 256.28-87.39 276.29-210.92 531.12-1.78 533.7 0.4 5.04 4.36 5.73 11.85 1.47 16.9-4.23 5.06-11.86 5.72-16.9 1.51-9.75-8.25-242.95-198.82-503.71 0.29-82.42 63.06-161.79 94.82-236.49 94.82z"/>
	</g>
</svg>