<svg version="1.2" xmlns="http://www.w3.org/2000/svg" viewBox="0 0 575 176" width="575" height="176">
	<style>
		.s0 { fill: #ea4335 } 
		.s1 { fill: #fbbc05 } 
		.s2 { fill: #4285f4 } 
		.s3 { fill: #34a853 } 
		.s4 { fill: #767676 } 
	</style>
	<g id="#ffffffff">
	</g>
	<path class="s0" d="m121.28 89.85c0 12.54-9.8 21.77-21.84 21.77-12.05 0-21.85-9.23-21.85-21.77 0-12.54 9.8-21.78 21.85-21.78 12.04 0 21.84 9.15 21.84 21.78zm-9.57 0c0-7.84-5.69-13.19-12.27-13.19-6.59 0-12.28 5.35-12.28 13.19 0 7.83 5.69 13.19 12.28 13.19 6.58 0 12.27-5.45 12.27-13.19z"/>
	<path class="s1" d="m168.39 89.85c0 12.54-9.8 21.77-21.85 21.77-12.04 0-21.84-9.23-21.84-21.77 0-12.54 9.8-21.78 21.84-21.78 12.05 0 21.85 9.15 21.85 21.78zm-9.57 0c0-7.84-5.69-13.19-12.28-13.19-6.59 0-12.27 5.35-12.27 13.19 0 7.83 5.68 13.19 12.27 13.19 6.59 0 12.28-5.45 12.28-13.19z"/>
	<path class="s2" d="m213.55 69.39v39.09c0 16.07-9.49 22.65-20.7 22.65-10.55 0-16.9-7.06-19.3-12.83l8.32-3.46c1.48 3.54 5.11 7.72 10.97 7.72 7.17 0 11.62-4.43 11.62-12.76v-3.13h-0.33c-2.14 2.64-6.25 4.94-11.46 4.94-10.88 0-20.86-9.48-20.86-21.68 0-12.19 9.97-21.84 20.86-21.84 5.19 0 9.32 2.31 11.46 4.87h0.33v-3.54h9.09zm-8.41 20.53c0-7.67-5.11-13.28-11.63-13.28-6.52 0-12.12 5.61-12.12 13.28 0 7.67 5.52 13.11 12.12 13.11 6.61 0 11.63-5.53 11.63-13.11z"/>
	<path class="s3" d="m228.51 46.48v63.8h-9.33v-63.8z"/>
	<path class="s0" d="m264.85 97.01l7.42 4.94c-2.4 3.54-8.17 9.65-18.14 9.65-12.36 0-21.6-9.57-21.6-21.78 0-12.94 9.31-21.77 20.52-21.77 11.22 0 16.82 8.99 18.64 13.85l0.99 2.48-29.09 12.06c2.22 4.37 5.69 6.6 10.54 6.6 4.86 0 8.26-2.39 10.72-6.03zm-22.84-7.84l19.45-8.08c-1.07-2.72-4.29-4.61-8.09-4.61-4.86 0-11.63 4.29-11.36 12.69z"/>
	<path class="s2" d="m42.29 84.17v-9.23h31.13c0.31 1.61 0.46 3.52 0.46 5.58 0 6.93-1.9 15.5-8 21.61-5.94 6.19-13.53 9.48-23.58 9.48-18.63 0-34.3-15.17-34.3-33.8 0-18.64 15.67-33.81 34.3-33.81 10.32 0 17.65 4.04 23.16 9.32l-6.52 6.52c-3.96-3.71-9.31-6.61-16.65-6.61-13.61 0-24.24 10.97-24.24 24.58 0 13.6 10.65 24.57 24.24 24.57 8.82 0 13.86-3.55 17.07-6.77 2.62-2.62 4.33-6.34 5.01-11.44z"/>
	<path class="s4" d="m337.54 94.93q0 7.89-5.79 12.67-5.87 4.69-14.25 4.69-7.48 0-13.17-4.36-5.7-4.37-7.88-11.91l7.38-3.01q0.76 2.67 2.09 4.85 1.35 2.18 3.14 3.74 1.81 1.55 3.99 2.44 2.18 0.88 4.61 0.88 5.28 0 8.64-2.72 3.35-2.73 3.35-7.26 0-3.77-2.77-6.45-2.59-2.59-9.73-5.02-7.21-2.6-8.97-3.52-9.56-4.85-9.57-14.34 0-6.63 5.29-11.32 5.37-4.7 13.17-4.7 6.87 0.01 11.9 3.52 5.03 3.45 6.72 8.64l-7.22 3.02q-0.99-3.36-3.98-5.58-2.98-2.23-7.26-2.23-4.53 0-7.63 2.52-3.09 2.34-3.1 6.12 0 3.1 2.44 5.37 2.68 2.26 11.66 5.37 9.13 3.1 13.04 7.58 3.9 4.49 3.9 11.04z"/>
	<path class="s4" d="m364.3 112.29q-9.14 0-15.17-6.2-5.96-6.38-5.96-15.69c0-6.2 1.98-11.54 5.96-15.68q6.04-6.21 15.17-6.2 6.28 0 10.99 3.14 4.7 3.13 7.05 8.68l-7.05 2.93q-3.26-7.71-11.49-7.71-5.28 0-9.14 4.28-3.77 4.27-3.77 10.56 0 6.29 3.77 10.57 3.87 4.27 9.14 4.27 8.48 0 11.91-7.71l6.88 2.94q-2.27 5.53-7.09 8.68-4.82 3.14-11.2 3.14z"/>
	<path class="s4" d="m389.29 50.91h7.71v18.95l-0.33 5.7h0.33q1.76-3.02 5.41-5.02 3.65-2.01 7.59-2.01 7.55 0 11.61 4.32 4.07 4.32 4.07 12.29v25.83h-7.71v-24.32q0-11.07-9.81-11.07-4.7 0-7.92 3.9-3.24 3.9-3.23 9.1v22.38h-7.71v-60.05z"/>
	<path class="s4" d="m432.4 90.4q-0.01-9.47 5.95-15.68 6.04-6.21 15.17-6.2 9.14-0.01 15.09 6.2 6.04 6.21 6.04 15.68c0 6.32-2.01 11.6-6.04 15.69q-5.96 6.2-15.09 6.2-9.14 0-15.17-6.2-5.96-6.2-5.95-15.69zm7.71 0q0 6.63 3.86 10.73 3.86 4.11 9.56 4.11 5.71 0 9.57-4.11 3.86-4.11 3.86-10.73c0-4.41-1.29-7.9-3.86-10.64q-3.94-4.2-9.57-4.2-5.62 0-9.56 4.2-3.86 4.11-3.86 10.64z"/>
	<path fill-rule="evenodd" class="s4" d="m489 50.91v60.05h-7.71v-60.05z"/>
	<path class="s4" d="m513.57 68.52q8.56 0 13.5 4.56 4.94 4.57 4.94 12.55v25.32h-7.38v-5.71h-0.33q-4.77 7.05-12.75 7.05-6.79 0-11.36-4.03-4.57-4.02-4.57-10.06 0-6.37 4.82-10.15 4.81-3.78 12.87-3.78 6.88 0 11.32 2.52v-1.76q0-4.02-3.18-6.84-3.19-2.8-7.46-2.81-6.46 0-10.23 5.46l-6.8-4.28q5.62-8.06 16.6-8.06zm-9.98 29.86q0 3.02 2.56 5.03 2.56 2.01 5.99 2.01 4.86 0 8.68-3.62 3.82-3.61 3.82-8.47-3.61-2.85-10.06-2.85-4.7-0.01-7.84 2.27-3.13 2.26-3.14 5.62z"/>
	<path class="s4" d="m548.46 110.95h-7.71v-41.09h7.38v6.71h0.33q1.18-3.27 4.82-5.58 3.64-2.3 7.17-2.31c2.35 0 4.14 0.33 5.7 1.01l-2.35 7.46q-1.44-0.58-4.53-0.58-4.36 0.01-7.59 3.52-3.23 3.53-3.22 8.22v22.65z"/>
</svg>