<svg version="1.2" xmlns="http://www.w3.org/2000/svg" viewBox="0 0 575 176" width="575" height="176"><style>.a{fill:#ea4335}.b{fill:#fbbc05}.c{fill:#4285f4}.d{fill:#34a853}.e{fill:#767676}</style><path class="a" d="m121.3 89.8c0 12.6-9.8 21.8-21.9 21.8-12 0-21.8-9.2-21.8-21.8 0-12.5 9.8-21.7 21.8-21.7 12.1 0 21.9 9.1 21.9 21.7zm-9.6 0c0-7.8-5.7-13.1-12.3-13.1-6.5 0-12.2 5.3-12.2 13.1 0 7.9 5.7 13.2 12.2 13.2 6.6 0 12.3-5.4 12.3-13.2z"/><path class="b" d="m168.4 89.8c0 12.6-9.8 21.8-21.9 21.8-12 0-21.8-9.2-21.8-21.8 0-12.5 9.8-21.7 21.8-21.7 12.1 0 21.9 9.1 21.9 21.7zm-9.6 0c0-7.8-5.7-13.1-12.3-13.1-6.6 0-12.2 5.3-12.2 13.1 0 7.9 5.6 13.2 12.2 13.2 6.6 0 12.3-5.4 12.3-13.2z"/><path class="c" d="m213.6 69.4v39.1c0 16.1-9.5 22.6-20.7 22.6-10.6 0-16.9-7-19.3-12.8l8.3-3.5c1.4 3.6 5.1 7.8 10.9 7.8 7.2 0 11.7-4.5 11.7-12.8v-3.1h-0.4c-2.1 2.6-6.2 4.9-11.4 4.9-10.9 0-20.9-9.5-20.9-21.7 0-12.2 10-21.8 20.9-21.8 5.2 0 9.3 2.3 11.4 4.9h0.4v-3.6h9.1zm-8.5 20.5c0-7.6-5.1-13.2-11.6-13.2-6.5 0-12.1 5.6-12.1 13.2 0 7.7 5.5 13.2 12.1 13.2 6.6 0 11.6-5.6 11.6-13.2z"/><path class="d" d="m228.5 46.5v63.8h-9.3v-63.8z"/><path class="a" d="m264.9 97l7.4 5c-2.4 3.5-8.2 9.6-18.2 9.6-12.3 0-21.6-9.6-21.6-21.8 0-12.9 9.3-21.7 20.6-21.7 11.2 0 16.8 8.9 18.6 13.8l1 2.5-29.1 12c2.2 4.4 5.7 6.6 10.5 6.6 4.9 0 8.3-2.3 10.8-6zm-22.9-7.8l19.5-8.1c-1.1-2.7-4.3-4.6-8.1-4.6-4.9 0-11.7 4.3-11.4 12.7z"/><path class="c" d="m42.3 84.2v-9.3h31.1c0.3 1.6 0.5 3.6 0.5 5.6 0 6.9-1.9 15.5-8 21.6-6 6.2-13.6 9.5-23.6 9.5-18.6 0-34.3-15.2-34.3-33.8 0-18.6 15.7-33.8 34.3-33.8 10.3 0 17.6 4 23.2 9.3l-6.6 6.5c-3.9-3.7-9.3-6.6-16.6-6.6-13.6 0-24.2 11-24.2 24.6 0 13.6 10.6 24.6 24.2 24.6 8.8 0 13.9-3.6 17.1-6.8 2.6-2.6 4.3-6.3 5-11.4z"/><path class="e" d="m337.5 94.9q0 7.9-5.8 12.7-5.8 4.7-14.2 4.7-7.5 0-13.2-4.4-5.7-4.3-7.9-11.9l7.4-3q0.8 2.7 2.1 4.9 1.4 2.1 3.2 3.7 1.8 1.5 3.9 2.4 2.2 0.9 4.7 0.9 5.2 0 8.6-2.7 3.3-2.7 3.3-7.3 0-3.7-2.7-6.4-2.6-2.6-9.8-5-7.2-2.6-8.9-3.6-9.6-4.8-9.6-14.3 0-6.6 5.3-11.3 5.4-4.7 13.2-4.7 6.8 0 11.9 3.5 5 3.5 6.7 8.6l-7.2 3.1q-1-3.4-4-5.6-3-2.2-7.3-2.2-4.5 0-7.6 2.5-3.1 2.3-3.1 6.1 0 3.1 2.4 5.4 2.7 2.2 11.7 5.3 9.1 3.1 13 7.6 3.9 4.5 3.9 11.1z"/><path class="e" d="m364.3 112.3q-9.1 0-15.2-6.2-5.9-6.4-5.9-15.7c0-6.2 2-11.5 5.9-15.7q6.1-6.2 15.2-6.2 6.3 0 11 3.2 4.7 3.1 7 8.6l-7 3q-3.3-7.7-11.5-7.7-5.3 0-9.1 4.2-3.8 4.3-3.8 10.6 0 6.3 3.8 10.6 3.8 4.2 9.1 4.2 8.5 0 11.9-7.7l6.9 3q-2.3 5.5-7.1 8.7-4.8 3.1-11.2 3.1z"/><path class="e" d="m389.3 50.9h7.7v19l-0.3 5.7h0.3q1.8-3.1 5.4-5.1 3.7-2 7.6-2 7.6 0 11.6 4.3 4.1 4.4 4.1 12.3v25.9h-7.7v-24.4q0-11-9.8-11-4.7 0-8 3.9-3.2 3.9-3.2 9.1v22.4h-7.7c0 0 0-60.1 0-60.1z"/><path class="e" d="m432.4 90.4q0-9.5 5.9-15.7 6.1-6.2 15.2-6.2 9.2 0 15.1 6.2 6.1 6.2 6.1 15.7c0 6.3-2.1 11.6-6.1 15.7q-5.9 6.2-15.1 6.2-9.1 0-15.2-6.2-5.9-6.2-5.9-15.7zm7.7 0q0 6.6 3.9 10.7 3.8 4.1 9.5 4.1 5.7 0 9.6-4.1 3.9-4.1 3.9-10.7c0-4.4-1.3-7.9-3.9-10.6q-3.9-4.2-9.6-4.2-5.6 0-9.5 4.2-3.9 4.1-3.9 10.6z"/><path fill-rule="evenodd" class="e" d="m489 50.9v60.1h-7.7v-60.1z"/><path class="e" d="m513.6 68.5q8.5 0 13.5 4.6 4.9 4.6 4.9 12.5v25.3h-7.4v-5.7h-0.3q-4.8 7.1-12.7 7.1-6.8 0-11.4-4-4.6-4.1-4.6-10.1 0-6.4 4.8-10.2 4.8-3.7 12.9-3.7 6.9 0 11.3 2.5v-1.8q0-4-3.1-6.8-3.2-2.8-7.5-2.8-6.5 0-10.2 5.4l-6.8-4.2q5.6-8.1 16.6-8.1zm-10 29.9q0 3 2.5 5 2.6 2 6 2 4.9 0 8.7-3.6 3.8-3.6 3.8-8.5-3.6-2.8-10-2.8-4.7-0.1-7.9 2.2-3.1 2.3-3.1 5.6z"/><path class="e" d="m548.5 111h-7.8v-41.1h7.4v6.7h0.4q1.1-3.3 4.8-5.6 3.6-2.3 7.2-2.3c2.3 0 4.1 0.3 5.7 1l-2.4 7.4q-1.4-0.5-4.5-0.5-4.4 0-7.6 3.5-3.2 3.5-3.2 8.2c0 0 0 22.7 0 22.7z"/></svg>