<svg version="1.2" xmlns="http://www.w3.org/2000/svg" viewBox="0 0 1080 1080" width="1080" height="1080">
	<style>
		.s0 { fill: #ffffff } 
		.s1 { fill: #333399 } 
	</style>
	<path id="Shape 1" fill-rule="evenodd" class="s0" d="m1005 279v526h-933v-526z"/>
	<path class="s1" d="m789.28 858.64h-249.35c-148.03-1.92-296.95 0-445.27-0.67-10.98 0-21.76-1.41-32.2-4.97-21.78-6.86-38.41-25.31-43.89-47.36-9.63-164.61-0.57-331.07-3.57-496.27-0.06-13.26 0.64-26.67 5.05-39.3 9.02-29.24 36.42-45.28 65.89-47.23l906.13-0.84c43.37 4.71 68.51 25.78 73.39 70.21v496.21c-2.61 29.63-19.28 57.1-49.4 65.29-10 3.08-20.28 4.26-30.7 4.26-65.27 0.66-131.09-1.23-196.08 0.67zm-297.66-353.39c-0.32-1.39-0.48-2.43-0.8-3.41-1.78-5.36-3.45-10.76-5.45-16.04-3.13-8.25-7.02-16.15-11.91-23.52-8.56-12.91-19.64-22.88-33.92-29.14-1.32-0.58-2.62-1.21-3.94-1.8-20.62-9.2-42.22-14.48-64.71-16.01-9.71-0.66-19.44-0.5-29.16 0.4-13.13 1.2-26.01 3.66-38.61 7.51-11.09 3.39-21.88 7.54-32.03 13.19-18.49 10.27-31.24 25.41-37.98 45.51q-0.9 2.66-1.63 5.37-0.73 2.71-1.29 5.47-0.56 2.75-0.96 5.53-0.39 2.78-0.62 5.58c-0.82 10.12-0.9 20.2 0.98 30.24 5.15 27.51 23.96 50.58 49.97 61.22l6.19 2.56q16.16 6.88 33.09 11.58l35.69 9.95 48.28 13.19c9.01 2.54 14.82 8.5 16.31 17.85 1.86 11.62-2.22 21.12-12.06 27.54-15.99 10.43-33.67 14.1-52.42 10.53-24.18-4.6-41.78-18.25-52.77-40.32-0.3-0.59-0.51-1.23-0.85-1.78-3.02-4.82-6.27-7.41-12.29-6.36-5.82 1.01-11.72 1.55-17.57 2.42l-51.83 7.83c-0.73 0.11-1.42 0.46-2.32 0.76 0.21 0.97 0.32 1.73 0.54 2.45 2.12 7.19 4.67 14.23 7.79 21.05 8.33 18.26 20.02 33.88 36.17 46.01 10.83 8.14 22.8 14.04 35.65 18.21 15.81 5.12 32.01 8.35 48.59 9.74q15.57 1.3 31.12 0.34 4.97-0.3 9.92-0.84 4.95-0.54 9.87-1.31 4.91-0.77 9.79-1.78 4.88-1 9.7-2.24c8.92-2.28 17.74-4.86 26.06-8.91 18.42-8.97 33.13-22.13 44.35-39.23 8.8-13.41 14.33-28 15.84-44.05 1.71-18.11-1.89-35.08-10.95-50.8-10.34-17.95-25.49-30.55-44.41-38.67-10.63-4.56-21.49-8.56-32.57-11.9l-58.98-17.35c-11.73-3.42-23.47-6.81-34.95-11-7.77-2.83-12.39-8.6-14.43-16.49-0.28-1.1-0.3-2.37-0.05-3.48 1.55-6.88 5.34-12.23 11.41-15.85 1.32-0.79 2.87-1.33 4.39-1.63 17.49-3.35 35.16-4.66 52.96-4.07 2.87 0.09 5.8 0.45 8.56 1.21 12.79 3.53 21.54 11.59 26.27 24.02 0.83 2.2 1.62 4.46 2.77 6.51 2.91 5.22 7.09 7.11 12.92 5.7 4.48-1.09 9.02-1.71 13.56-2.42l50.56-8.3c0.63-0.1 1.21-0.42 2.16-0.77zm147.98 233.68c0.83-1.9 0.63-3.36 0.62-4.77l-0.07-28.79 0.8-65.85 1.39-67.81 1.23-32.71c0.95-19.09 9.07-34.37 24.98-45.13 8.38-5.68 17.88-8.8 27.8-10.64q1.35-0.25 2.72-0.43 1.37-0.17 2.75-0.26 1.38-0.09 2.76-0.1 1.38-0.01 2.76 0.06c14.16 0.72 25.49 6.68 33.67 18.36 3.74 5.34 6.29 11.23 7.87 17.53 2.6 10.38 3.47 21.02 3.76 31.65 0.46 17.21 0.47 34.44 0.52 51.66l0.25 119.89c0.01 4.47 0.22 8.94 0.37 13.4 0.04 1.17-0.11 2.39 0.83 3.54 1.24 0.56 2.7 0.32 4.12 0.32h37.09 35.5c1.41-0.01 2.88 0.23 4.31-0.46 0.55-1.44 0.38-2.89 0.39-4.31l0.1-103.73-0.1-57.19-0.13-27.61c-0.23-9.32-0.7-18.65-1.24-27.96-0.49-8.53-1.14-17.05-2.59-25.49-1.57-9.11-4.14-17.92-8.17-26.26-9.05-18.75-23.55-31.71-42.69-39.5-10.49-4.27-21.31-7.44-32.58-9.06-13.3-1.92-26.5-1.45-39.6 1.31-22.45 4.74-41.85 15.23-58.18 31.38l-14.39 14.05c-0.52 0.51-0.96 1.32-2.21 0.84-0.05-1.15-0.14-2.43-0.14-3.71v-29.97c-0.01-1.4 0.3-2.87-0.5-4.1-3.74-0.63-52.13-0.85-72.29-0.34-0.89 0.02-1.78 0.2-2.69 0.31-0.91 2.01-0.56 4-0.56 5.93l0.01 297.8 0.02 5.52c0.03 0.75 0.27 1.49 0.43 2.33 0.91 0.12 1.68 0.3 2.44 0.3 0 0 78.64 0 78.64 0zm-459.74 0.09c0.69-2.02 0.51-3.6 0.51-5.15l0.01-279.94-0.02-22.47c0-1.41 0.27-2.88-0.59-4.42-1.28-0.06-2.57-0.17-3.85-0.17l-15.38-0.01q-28-0.01-56 0.01c-1.41 0-2.89-0.33-4.4 0.59-0.62 1.8-0.37 3.78-0.37 5.73v293.34l0.05 9.07c0.01 1.02 0.23 2.03 0.36 3.09 0.88 0.13 1.51 0.32 2.15 0.32 0 0 77.53 0.01 77.53 0.01zm801.25-0.42l0.09-5.01 0.01-300.13c0-1.32 0.04-2.64-0.04-3.95-0.04-0.74-0.27-1.48-0.44-2.36-1.34-0.08-2.5-0.19-3.66-0.19q-36.1-0.01-72.19 0c-0.53 0-1.06-0.04-1.58 0.02-0.75 0.09-1.48 0.24-2.28 0.38-0.65 2.11-0.42 4.09-0.42 6.03v288.7l0.02 12.62c0.01 1.29-0.28 2.64 0.58 3.88 0.32 0.12 0.68 0.36 1.04 0.36l76.93 0.05c0.49 0 0.99-0.2 1.94-0.4zm-800.79-431.7c-1.62-0.06-2.92-0.15-4.21-0.15l-71.32 0.06c-0.92 0.01-1.84-0.05-2.75 0.05-0.74 0.07-1.45 0.33-2.34 0.55l-0.12 4.86 0.01 59.1 0.03 5.51c0.03 0.74 0.26 1.47 0.38 2.12 3.58 0.55 60.12 0.8 77.42 0.36 0.9-0.02 1.79-0.19 2.65-0.29 0.19-0.52 0.44-0.88 0.44-1.24l0.14-68.54c0-0.64-0.17-1.27-0.33-2.39zm800.37 0.24l-4.85-0.09q-34.68 0-69.36 0.01c-1.05 0-2.1-0.04-3.15 0.02-0.75 0.04-1.49 0.22-2.25 0.35-0.71 1.83-0.48 3.55-0.48 5.23l0.01 61.85c0 0.92-0.06 1.85 0.03 2.76 0.08 0.75 0.36 1.47 0.6 2.43l4.39 0.1 54.78 0.01 16.94-0.02c1.15 0 2.38 0.27 3.64-0.82 0.06-0.93 0.19-2.08 0.21-3.24 0.36-31.08 0.15-64.9-0.51-68.59z"/>
</svg>