<svg version="1.2" xmlns="http://www.w3.org/2000/svg" viewBox="0 0 647 203" width="647" height="203"><style>.a{fill:#8f1b59}</style><path fill-rule="evenodd" class="a" d="m2 3.1v196.2h34v-196.2h-34z"/><path class="a" d="m108.7 0.1c-8.9 0-17.2 3.3-22.9 9.8-5.7 6.2-8.5 14.5-8.5 24.8 0 9.1 2 17 6 23.5q3.2 5.3 10.2 13.5c4.7 5.5 10.9 12.2 18.4 19.9 13.8 14.5 23.2 27.1 28.2 37.7 5 10.3 7.5 22.8 7.5 37.7 0 12-2 22.7-5.9 32.2 6.7 2.7 11.9 3.3 18.1 3.3 9.2 0 18.5-3.2 23.7-9.5 5.2-6.4 7.8-15 7.8-25.9q0-14.3-6-25.5c-2.1-3.6-5-7.7-8.7-12.4-3.7-4.7-8.3-9.9-13.9-15.6-8.6-8.8-15.7-16.6-21.4-23.3q-8.6-10.2-12.6-17.7-7.8-14.9-7.8-37.5c0-12 1.8-22.5 5.3-31.6-6.5-3-11.8-3.4-17.5-3.4z"/><path class="a" d="m184.8 0.1c-8.9 0-16.2 3.3-21.9 9.8-5.7 6.2-8.5 14.5-8.5 24.8 0 9.1 2 17 6 23.5q3.1 5.3 10.2 13.5c4.7 5.5 10.9 12.2 18.4 19.9q4.8 5.1 9 9.9v-98.4q-7-3-13.2-3z"/><path class="a" d="m69.9 199.6c4.8 1.9 9.4 2.9 13.9 2.9 9.2 0 17.5-3.2 22.7-9.5 5.2-6.4 7.8-15 7.8-25.9q0-14.3-6-25.5c-2.1-3.6-5-7.7-8.7-12.4-3.7-4.7-8.3-9.9-13.9-15.6-6-6.2-11.3-11.8-15.9-17v103z"/><path fill-rule="evenodd" class="a" d="m285.5 3.1h-55.4l55.4 124.3z"/><path fill-rule="evenodd" class="a" d="m230 75.6v123.7h54.5z"/><path  d="m329.9 29.3v-1.2c3.2-0.2 3.6-0.5 3.6-3.8v-16c0-3.3-0.4-3.6-3.6-3.8v-1.2h10.8v1.2c-3.2 0.2-3.6 0.5-3.6 3.8v15.8c0 3.4 0.4 3.6 3.6 3.9v1.1h-10.8z"/><path  d="m372 4.5c-2.2 0.1-3.2 0.6-3.3 2.4-0.1 1.3-0.3 3.1-0.3 6.7v16.1h-1.4l-16.9-20.9h-0.2v9.8c0 3.6 0.2 5.5 0.3 6.7 0.2 1.9 1 2.6 3.8 2.7v1.1h-9.5v-1.1c2.4-0.1 3.2-0.7 3.5-2.6 0.1-1.3 0.3-3.2 0.3-6.8v-8.6c0-2.8-0.2-3.1-0.9-4.1-0.8-1-1.7-1.3-3.5-1.5v-1.1h6.2l16.4 19.5h0.1v-9.2c0-3.6-0.1-5.5-0.2-6.7-0.3-1.8-1.2-2.3-4-2.4v-1.2h9.5v1.2z"/><path  d="m395.7 9.6c-0.4-1.9-0.9-2.9-1.5-3.7-0.6-0.9-1.4-1.2-4.2-1.2h-2.7v19.6c0 3.2 0.3 3.6 4.1 3.8v1.2h-11.7v-1.2c3.6-0.2 3.9-0.6 3.9-3.8v-19.6h-2.3c-3.4 0-4.1 0.4-4.7 1.3-0.5 0.7-0.9 1.8-1.2 3.6h-1.3c0.1-2.4 0.4-5.1 0.5-7.3h0.9c0.5 0.9 1 1 2.2 1h15.8c1 0 1.4-0.2 2-1h0.9c0 1.8 0.3 4.9 0.4 7.2z"/><path  d="m419.9 22.8c-0.2 1.5-1 5.2-1.4 6.3h-19.5v-1.1c3.6-0.3 4-0.7 4-3.9v-15.6c0-3.6-0.4-3.8-3.4-4v-1.2h18c0 0.9 0.3 3.8 0.4 5.8l-1.3 0.3c-0.4-1.7-0.8-2.6-1.3-3.4-0.6-0.9-1.6-1.1-4.3-1.1h-2.9c-1.2 0-1.4 0.1-1.4 1.3v8.9h3.6c3.6 0 3.9-0.3 4.4-2.9h1.1v7.7h-1.1c-0.5-2.8-0.9-3.1-4.4-3.1h-3.6v7.3c0 2 0.3 2.9 0.9 3.4 0.8 0.5 2.2 0.5 4.1 0.5 2.9 0 4-0.3 4.9-1.3 0.8-0.9 1.4-2.2 2.1-3.9z"/><path  d="m447 29.5c-0.4 0-0.9 0-1.4 0-3.3-0.1-5-1-6.8-3.7-1.3-1.9-2.7-4.4-3.9-6.3-0.7-1.1-1.4-1.7-3.3-1.7h-1.1v6.3c0 3.4 0.3 3.6 3.4 3.9v1.1h-10.8v-1.1c3.2-0.3 3.6-0.5 3.6-3.9v-15.8c0-3.3-0.4-3.6-3.4-3.8v-1.2h10.1c3.1 0 5 0.4 6.6 1.4 1.6 1.1 2.7 2.9 2.7 5.3 0 3.5-2.2 5.5-5.1 6.8 0.7 1.3 2.4 4 3.5 5.8 1.4 2 2.3 3.2 3.2 4.2 1.1 1.2 1.9 1.6 2.8 1.8zm-14.7-12.9c1.9 0 3.2-0.3 4.2-1.2 1.4-1.2 2.1-2.8 2.1-4.9 0-4.3-2.7-5.9-5.7-5.9-1.1 0-1.8 0.1-2 0.4-0.3 0.3-0.4 0.8-0.4 1.8v9.8z"/><path  d="m475.8 4.5c-2.2 0.1-3.2 0.6-3.4 2.4-0.1 1.3-0.2 3.1-0.2 6.7v16.1h-1.4l-17-20.9h-0.1v9.8c0 3.6 0.1 5.5 0.3 6.7 0.2 1.9 1 2.6 3.8 2.7v1.1h-9.4v-1.1c2.3-0.1 3.2-0.7 3.5-2.6 0.1-1.3 0.3-3.2 0.3-6.8v-8.6c0-2.8-0.2-3.1-0.9-4.1-0.8-1-1.7-1.3-3.5-1.5v-1.1h6.2l16.4 19.5h0.1v-9.2c0-3.6-0.1-5.5-0.2-6.7-0.3-1.8-1.2-2.3-4-2.4v-1.2h9.5z"/><path  d="m490.8 29.3v-1.2c2.5-0.2 2.8-0.6 2.3-2.3-0.5-1.5-1.3-3.6-2-5.9h-8.4c-0.6 1.7-1.1 3.3-1.6 5-0.8 2.4-0.6 2.8 2.4 3.2v1.2h-8.7v-1.2c2.5-0.4 3-0.6 4.5-4.1l8.2-20.8 1.4-0.4c2.4 6.8 5.1 14.4 7.7 21.3 1.3 3.5 1.8 3.9 4.4 4.1v1.2h-10.2zm-3.7-20.9c-1.4 3.3-2.6 6.6-3.7 9.9h7.2z"/><path  d="m521.4 9.6c-0.4-1.9-0.9-2.9-1.4-3.7-0.7-0.9-1.4-1.2-4.3-1.2h-2.7v19.6c0 3.2 0.3 3.6 4.1 3.8v1.2h-11.6v-1.2c3.5-0.2 3.8-0.6 3.8-3.8v-19.6h-2.3c-3.3 0-4.1 0.4-4.6 1.3-0.5 0.7-0.9 1.8-1.3 3.6h-1.3c0.1-2.4 0.4-5.1 0.5-7.3h0.9c0.5 0.9 1 1 2.2 1h15.8c1 0 1.4-0.2 2-1h0.9c0 1.8 0.3 4.9 0.4 7.2z"/><path  d="m525.5 29.3v-1.2c3.2-0.2 3.6-0.5 3.6-3.8v-16c0-3.3-0.4-3.6-3.6-3.8v-1.2h10.8v1.2c-3.2 0.2-3.6 0.5-3.6 3.8v15.8c0 3.4 0.4 3.6 3.6 3.9v1.1h-10.8z"/><path  d="m566.2 15.9c0 8.6-6 13.9-13.4 13.9-7.3 0-13.1-5.7-13.1-13.4 0-7 5-13.7 13.5-13.7 7 0 13 5.3 13 13.2zm-22-0.5c0 7.3 3.9 12.8 9.5 12.8 4.4 0 8.1-3.7 8.1-11.3 0-8.3-4.1-12.8-9.2-12.8-4.5 0.1-8.4 4-8.4 11.3z"/><path  d="m596.9 4.5c-2.2 0.1-3.2 0.6-3.3 2.4-0.2 1.3-0.3 3.1-0.3 6.7v16.1h-1.4l-16.8-20.9h-0.2v9.8c0 3.6 0.2 5.5 0.3 6.7 0.2 1.9 1 2.6 3.8 2.7v1.1h-9.5v-1.1c2.3-0.1 3.2-0.7 3.5-2.6 0.1-1.3 0.3-3.2 0.3-6.8v-8.6c0-2.8-0.2-3.1-0.9-4.1-0.8-1-1.7-1.3-3.5-1.5v-1.1h6.2l16.4 19.5h0.1v-9.2c0-3.6-0.1-5.5-0.2-6.7-0.3-1.8-1.2-2.3-4-2.4v-1.2h9.5z"/><path  d="m613.2 29.3v-1.2c2.4-0.2 2.8-0.6 2.3-2.3-0.5-1.5-1.3-3.6-2-5.9h-8.4c-0.6 1.7-1.1 3.3-1.7 5-0.7 2.4-0.5 2.8 2.5 3.2v1.2h-8.8v-1.2c2.6-0.4 3.1-0.6 4.5-4.1l8.3-20.8 1.4-0.4c2.4 6.8 5.1 14.4 7.7 21.3 1.3 3.5 1.8 3.9 4.3 4.1v1.2h-10.1zm-3.9-20.9c-1.4 3.3-2.5 6.6-3.7 9.9h7.2z"/><path  d="m644.4 22.8c-0.3 1.3-1 5.2-1.4 6.3h-18.4v-1.1c3.4-0.3 3.8-0.5 3.8-3.9v-15.8c0-3.3-0.3-3.6-3.5-3.8v-1.2h10.8v1.2c-3.1 0.2-3.5 0.4-3.5 3.8v15.7c0 2.1 0.3 2.8 0.9 3.3 0.8 0.4 2.1 0.6 3.7 0.6 2.1 0 3.5-0.3 4.4-1.3 0.8-0.8 1.4-2.1 2-4z"/><path  d="m343.8 66c-0.8-2.6-2-5.4-5.3-5.4-3 0-4.4 2.1-4.4 4.4 0 2.8 1.8 4.1 5 5.7 3.4 1.7 7 3.6 7 8 0 4.2-3.6 7.7-9 7.7-1.6 0-3-0.2-3.9-0.6-1-0.4-1.6-0.7-2-0.9-0.4-0.9-0.9-4.3-1-6.3l1.2-0.4c0.7 2.4 2.6 6.5 6.6 6.5 2.9 0 4.6-1.8 4.6-4.6 0-2.8-2-4.2-5.1-5.9-2.8-1.4-6.7-3.5-6.7-7.8 0-3.9 3.2-7.2 8.3-7.2 2.1 0 3.8 0.5 5.2 0.9 0.1 1.4 0.4 3.1 0.8 5.5z"/><path  d="m370.4 66.1c-0.4-1.9-0.9-2.9-1.5-3.7-0.6-0.9-1.4-1.2-4.2-1.2h-2.7v19.6c0 3.2 0.3 3.6 4.1 3.8v1.2h-11.7v-1.2c3.6-0.2 3.9-0.6 3.9-3.8v-19.6h-2.3c-3.4 0-4.1 0.4-4.7 1.3-0.5 0.7-0.9 1.8-1.2 3.6h-1.3c0.1-2.4 0.4-5.1 0.5-7.3h0.9c0.5 0.9 1 1 2.2 1h15.8c1 0 1.4-0.2 2-1h0.9c0 1.8 0.3 4.9 0.4 7.2z"/><path  d="m386.1 85.8v-1.2c2.5-0.2 2.9-0.6 2.4-2.3-0.6-1.5-1.3-3.6-2.1-5.9h-8.3c-0.7 1.7-1.2 3.3-1.7 5-0.8 2.4-0.5 2.8 2.4 3.2v1.2h-8.7v-1.2c2.6-0.4 3.1-0.6 4.5-4.1l8.2-20.8 1.4-0.4c2.5 6.8 5.2 14.4 7.7 21.3 1.3 3.5 1.8 3.9 4.4 4.1v1.2h-10.2zm-3.8-20.9c-1.4 3.3-2.6 6.6-3.7 9.9h7.2z"/><path  d="m425.1 61c-2.2 0.1-3.3 0.6-3.4 2.4-0.1 1.3-0.2 3.1-0.2 6.7v16.1h-1.4l-17-20.7h-0.1v9.7c0 3.6 0.1 5.6 0.2 6.7 0.3 1.9 1.1 2.6 3.9 2.7v1.2h-9.5v-1.2c2.3-0.1 3.2-0.6 3.4-2.5 0.2-1.3 0.3-3.3 0.3-6.9v-8.7c0-2.8-0.1-3.1-0.9-4.1-0.8-1-1.7-1.3-3.5-1.4v-1.2h6.2l16.4 19.6h0.2v-9.3c0-3.6-0.2-5.5-0.3-6.7-0.2-1.8-1.1-2.3-4-2.4v-1.2h9.5v1.2z"/><path  d="m440 59.8c5 0 8.8 1.1 11.3 3.5 1.9 1.9 3.3 4.8 3.3 8.5 0 4.7-1.9 8.3-4.9 10.6-2.9 2.3-7 3.4-11.9 3.4h-9.7v-1.2c3.4-0.2 3.8-0.5 3.8-3.8v-16c0-3.3-0.3-3.6-3.4-3.8v-1.2zm-4.2 20.6c0 2.9 1.1 3.7 4.1 3.7 7.1 0 10.7-5.3 10.7-11.8 0-4.1-1.5-7.6-4.4-9.4-1.8-1.3-4-1.8-6.7-1.8-1.7 0-2.6 0.3-3.1 0.5-0.4 0.3-0.5 0.8-0.5 2.3v16.5z"/><path  d="m472.8 85.8v-1.2c2.5-0.2 2.9-0.6 2.3-2.3-0.5-1.5-1.2-3.6-2-5.9h-8.4c-0.6 1.7-1.1 3.3-1.6 5-0.8 2.4-0.5 2.8 2.4 3.2v1.2h-8.7v-1.2c2.5-0.4 3.1-0.6 4.5-4.1l8.2-20.8 1.4-0.4c2.4 6.8 5.1 14.4 7.7 21.3 1.3 3.5 1.8 3.9 4.4 4.1v1.2h-10.2zm-3.8-20.9c-1.4 3.3-2.6 6.6-3.7 9.9h7.1z"/><path  d="m507.1 86c-0.4 0-0.9 0-1.4 0-3.3-0.1-5-1-6.8-3.7-1.3-1.9-2.7-4.4-3.8-6.3-0.8-1.1-1.5-1.7-3.4-1.7h-1.1v6.3c0 3.4 0.3 3.6 3.4 3.9v1.1h-10.8v-1.1c3.2-0.3 3.6-0.5 3.6-3.9v-15.8c0-3.3-0.4-3.6-3.4-3.8v-1.2h10.1c3.1 0 5 0.4 6.6 1.4 1.6 1.1 2.7 2.9 2.7 5.3 0 3.5-2.2 5.5-5.1 6.8 0.7 1.3 2.4 4 3.5 5.8 1.4 2.1 2.3 3.2 3.2 4.2 1.1 1.2 2 1.6 2.9 1.8zm-14.8-12.9c1.9 0 3.2-0.3 4.2-1.2 1.4-1.1 2.1-2.8 2.1-4.9 0-4.3-2.7-5.9-5.7-5.9-1.1 0-1.8 0.1-2 0.4-0.3 0.3-0.4 0.6-0.4 1.7v9.7h1.8z"/><path  d="m521 59.8c5 0 8.9 1.1 11.3 3.5 1.9 1.9 3.3 4.8 3.3 8.5 0 4.7-1.9 8.3-4.8 10.6-3 2.3-7.1 3.4-12 3.4h-9.6v-1.2c3.3-0.2 3.7-0.5 3.7-3.8v-16c0-3.3-0.4-3.6-3.3-3.8v-1.2zm-4.3 20.6c0 2.9 1.2 3.7 4.1 3.7 7.1 0 10.7-5.3 10.7-11.8 0-4.1-1.4-7.6-4.4-9.4-1.8-1.3-4-1.8-6.7-1.8-1.6 0-2.5 0.3-3 0.5-0.4 0.3-0.5 0.8-0.5 2.3v16.5z"/><path  d="m343.8 122.5c-0.8-2.6-2-5.4-5.3-5.4-3 0-4.4 2.2-4.4 4.4 0 2.8 1.8 4.1 5 5.8 3.4 1.6 7 3.6 7 7.9 0 4.3-3.6 7.7-9 7.7-1.6 0-3-0.2-3.9-0.6-1-0.4-1.6-0.7-2-0.9-0.4-0.9-0.9-4.3-1-6.3l1.2-0.4c0.7 2.4 2.6 6.6 6.6 6.6 2.9 0 4.6-1.8 4.6-4.7 0-2.8-2-4.2-5.1-5.9-2.8-1.5-6.7-3.4-6.7-7.9 0-3.9 3.2-7.2 8.3-7.2 2.1 0 3.8 0.5 5.2 0.9 0.1 1.4 0.4 3 0.8 5.5z"/><path  d="m370.6 135.9c-0.2 1.4-1 5.1-1.4 6.3h-19.5v-1.2c3.6-0.3 4-0.6 4-3.9v-15.6c0-3.6-0.4-3.7-3.4-4v-1.2h18c0 0.9 0.3 3.8 0.4 5.8l-1.3 0.1c-0.4-1.6-0.8-2.5-1.3-3.3-0.6-0.9-1.7-1.1-4.4-1.1h-2.8c-1.3 0-1.4 0.1-1.4 1.2v9h3.6c3.6 0 3.9-0.2 4.4-2.9h1.1v7.7h-1.1c-0.5-2.8-0.9-3.1-4.4-3.1h-3.6v7.3c0 1.9 0.3 2.8 0.9 3.2 0.8 0.5 2.2 0.5 4.1 0.5 2.8 0 4-0.2 4.9-1.2 0.8-0.9 1.4-2.2 2.1-3.9z"/><path  d="m397.8 142.5c-0.4 0-0.9 0-1.4 0-3.3-0.1-5-1-6.8-3.7-1.3-1.9-2.7-4.4-3.8-6.3-0.8-1.1-1.4-1.6-3.4-1.6h-1.1v6.2c0 3.4 0.4 3.6 3.4 3.9v1.2h-10.8v-1.2c3.3-0.3 3.6-0.5 3.6-3.9v-15.8c0-3.3-0.3-3.5-3.4-3.8v-1.2h10.1c3.1 0 5 0.4 6.6 1.5 1.6 1 2.7 2.8 2.7 5.2 0 3.5-2.2 5.5-5 6.8 0.6 1.3 2.3 4 3.4 5.8 1.4 2.1 2.3 3.2 3.2 4.2 1.1 1.2 2 1.6 2.9 1.8zm-14.8-12.9c1.9 0 3.2-0.4 4.2-1.2 1.4-1.1 2.1-2.8 2.1-4.9 0-4.3-2.7-5.9-5.7-5.9-1.1 0-1.8 0.2-2 0.4-0.3 0.3-0.4 0.7-0.4 1.7v9.7h1.8z"/><path  d="m401 142.3v-1.2c3.3-0.2 3.6-0.5 3.6-3.8v-16c0-3.3-0.3-3.5-3.6-3.8v-1.2h10.8v1.2c-3.2 0.3-3.6 0.5-3.6 3.8v15.8c0 3.4 0.4 3.6 3.6 3.9v1.2h-10.8z"/><path  d="m429.6 142.3v-1.2c2.4-0.2 2.8-0.6 2.3-2.3-0.5-1.5-1.3-3.6-2.1-5.9h-8.3c-0.7 1.7-1.2 3.3-1.7 5-0.8 2.5-0.5 2.8 2.4 3.2v1.2h-8.7v-1.2c2.6-0.4 3.1-0.6 4.5-4.1l8.2-20.8 1.4-0.4c2.5 6.8 5.2 14.4 7.7 21.3 1.3 3.5 1.8 3.9 4.4 4.2v1.1h-10.1zm-3.9-20.9c-1.4 3.3-2.6 6.7-3.7 9.9h7.2z"/><path  d="m460.6 135.9c-0.2 1.2-1 5.1-1.4 6.3h-18.3v-1.2c3.3-0.3 3.7-0.5 3.7-3.9v-15.8c0-3.3-0.3-3.5-3.5-3.8v-1.2h10.8v1.2c-3.1 0.3-3.5 0.4-3.5 3.8v15.7c0 2.1 0.3 2.8 0.9 3.2 0.8 0.4 2.1 0.5 3.8 0.5 2 0 3.4-0.2 4.3-1.2 0.8-0.8 1.4-2.1 2.1-4z"/><path  d="m357.1 174c-2.2 0.1-3.2 0.6-3.3 2.4-0.1 1.3-0.3 3.1-0.3 6.7v16.1h-1.4l-16.9-20.7h-0.2v9.8c0 3.6 0.2 5.5 0.3 6.6 0.2 2 1 2.6 3.8 2.7v1.2h-9.5v-1.2c2.4-0.1 3.3-0.6 3.5-2.5 0.1-1.3 0.3-3.2 0.3-6.8v-8.8c0-2.8-0.2-3.1-0.9-4.1-0.8-1-1.7-1.3-3.5-1.4v-1.2h6.2l16.4 19.6h0.1v-9.3c0-3.6-0.1-5.5-0.2-6.7-0.3-1.8-1.2-2.3-4-2.4v-1.2h9.5v1.2z"/><path  d="m386.8 174c-2.3 0.3-3.2 0.8-3.5 2.3-0.1 1.2-0.2 2.8-0.2 6.3v3.5c0 4.6-0.8 7.9-3 10.4-1.8 1.9-4.5 2.8-7.2 2.8-2.4 0-4.7-0.5-6.5-1.9-2.3-1.8-3.5-4.8-3.5-9.5v-9.9c0-3.6-0.4-3.9-3.5-4.1v-1.2h10.7v1.2c-3.1 0.2-3.3 0.5-3.3 4.1v9c0 6.4 2.4 10 7.3 10 5.5 0 7.3-4.6 7.3-11.2v-3.2c0-3.5-0.1-5.1-0.3-6.4-0.2-1.6-1-2.1-3.8-2.3v-1.2h9.6v1.3z"/><path  d="m411.3 198.8v-1.2c3.2-0.4 3.4-0.5 3.4-4.6l-0.2-16h-0.1l-9.6 21.7h-0.9l-8.8-21.1h-0.1l-0.5 11.2c-0.1 3.2-0.1 5-0.1 6.5 0.1 1.9 1 2.2 3.7 2.5v1.1h-9.4v-1.1c2.3-0.3 3.1-0.8 3.4-2.4 0.2-1.4 0.5-3.2 0.7-7.3l0.7-8.2c0.4-5 0.1-5.3-3.5-5.6v-1.2h6.8l8.9 19.5 9-19.5h7v1.2c-3.4 0.3-3.7 0.5-3.6 4.3l0.4 14.5c0.1 4.1 0.3 4.4 3.6 4.8v1.1h-10.8z"/><path  d="m439.3 184.8c4.1 0.6 7.2 2.3 7.2 6.3 0 2.7-1.5 4.7-3.8 6-2.1 1.2-4.8 1.7-8 1.7h-9.1v-1.2c3.3-0.2 3.6-0.5 3.6-3.8v-15.9c0-3.4-0.2-3.6-3.4-3.9v-1.2h10.6c3 0 4.8 0.6 6.1 1.5 1.4 0.9 2.2 2.7 2.2 4.5 0.1 3.7-3.1 5.2-5.4 6zm-4.6-0.5c4.4 0 6.2-1.7 6.2-5 0-2.9-1.7-5-5.2-5-0.9 0-1.8 0.1-2.2 0.3-0.3 0.3-0.5 0.8-0.5 2v7.8h1.7zm-1.7 9.4c0 2.8 0.8 3.7 3.2 3.6 3.1 0 5.9-1.7 5.9-5.8 0-4-2.7-5.8-7.4-5.8h-1.7z"/><path  d="m471.8 192.4c-0.3 1.4-1 5.1-1.4 6.3h-19.5v-1.2c3.6-0.3 4-0.6 4-3.9v-15.7c0-3.6-0.4-3.8-3.4-4v-1.2h18c0 0.9 0.3 3.7 0.4 5.8l-1.3 0.3c-0.4-1.7-0.8-2.6-1.3-3.4-0.6-0.9-1.7-1.1-4.4-1.1h-2.9c-1.3 0-1.4 0.1-1.4 1.2v9h3.6c3.6 0 3.8-0.2 4.3-2.9h1.2v7.7h-1.2c-0.5-2.8-0.9-3.1-4.3-3.1h-3.6v7.3c0 1.9 0.2 2.8 0.9 3.2 0.7 0.5 2.2 0.5 4.1 0.5 2.8 0 4-0.3 4.9-1.2 0.7-0.9 1.4-2.2 2-3.8z"/><path  d="m498 199c-0.4 0-0.9 0-1.4 0-3.3-0.1-5-1-6.8-3.7-1.3-1.9-2.7-4.3-3.9-6.3-0.7-1.1-1.4-1.6-3.3-1.6h-1.2v6.2c0 3.4 0.4 3.6 3.5 3.9v1.2h-10.8v-1.2c3.2-0.3 3.6-0.5 3.6-3.9v-15.7c0-3.4-0.4-3.6-3.5-3.9v-1.2h10.2c3.1 0 5 0.4 6.5 1.5 1.7 1 2.7 2.8 2.7 5.2 0 3.5-2.1 5.5-5 6.8 0.7 1.3 2.3 4 3.5 5.8 1.4 2.1 2.3 3.2 3.2 4.2 1 1.2 1.9 1.6 2.8 1.8zm-14.7-12.9c1.9 0 3.2-0.3 4.2-1.2 1.4-1.1 2.1-2.8 2.1-4.9 0-4.3-2.7-5.9-5.7-5.9-1.1 0-1.8 0.2-2 0.4-0.3 0.3-0.4 0.7-0.4 1.7v9.7h1.8z"/></svg>