<svg version="1.2" xmlns="http://www.w3.org/2000/svg" viewBox="0 0 1024 1024" width="1024" height="1024">
	<style>
		.s0 { fill: #ffffff } 
	</style>
	<path id="Layer copy" class="s0" d="m156.7 672.12c-17.9-122.29 51.39-239.43 131.08-326.02 55.4-60.2 124.3-112.66 195.36-152.88 40.33-23.11 149.88-73.71 250.61-91.41 94.36-16.58 181.52-1.01 181.52-1.01-16.23 40.25-36.43 119.87-41.67 163.81-36.75-4.58-81.76-3.39-118.79 0.31-142.68 14.25-288.04 68.92-401.98 156.44-45.86 35.24-103.1 94.04-125.74 148.23 21.41-26.67 40.46-48.16 66.76-70.78 122.19-105.1 288.66-163.89 447.31-181.61 31.7-3.54 95.38-7.5 127.08-4.53-2.14 18.22-2.62 39.44-3 57.87-2.67 130.9 25.57 266.27 86.52 382.47 11.02 20.96 23.11 41.33 36.22 61.03 6.17 9.08 15.4 20.36 20.72 28.78-5.68-3.15-18.31-16.5-24.09-21.45-82.95-71.02-222.41-109.44-327.68-122.15-43.93-5.28-88.23-6.79-132.43-4.54-165.01 8.79-341.54 68.39-466.04 179.64-18.31 16.36-28.97 28.69-45.14 46.66 5.35-12.3 27-43.34 35.34-54.94 51.07-71 116.29-137.1 186.36-189.44 16.66-12.44 45.97-29.73 64.23-39.93 148.09-82.71 335.46-135.83 505.45-105.84 13.81 2.44 28.46 6.77 41.96 10.58-30.93-21.29-103.59-37.55-141.42-41.18-152.01-14.58-313.81 27.02-446.27 101.23-39.18 21.96-67.97 43.31-102.27 70.66z"/>
</svg>