<svg version="1.2" xmlns="http://www.w3.org/2000/svg" viewBox="0 0 1024 1024" width="1024" height="1024"><defs><linearGradient id="P" gradientUnits="userSpaceOnUse"/><linearGradient id="g1" x2="1" href="#P" gradientTransform="matrix(995.38,0,0,826.804,13.32,507.579)"><stop stop-color="#7e5ff3"/><stop offset="1" stop-color="#6348ef"/></linearGradient></defs><style>.a{fill:url(#g1)}</style><path class="a" d="m156.7 672.1c-17.9-122.3 51.4-239.4 131.1-326 55.4-60.2 124.3-112.7 195.3-152.9 40.4-23.1 149.9-73.7 250.7-91.4 94.3-16.6 181.5-1 181.5-1-16.3 40.3-36.5 119.9-41.7 163.8-36.7-4.6-81.8-3.4-118.8 0.3-142.7 14.3-288 68.9-402 156.5-45.8 35.2-103.1 94-125.7 148.2 21.4-26.7 40.5-48.2 66.8-70.8 122.1-105.1 288.6-163.9 447.3-181.6 31.7-3.5 95.3-7.5 127-4.5-2.1 18.2-2.6 39.4-3 57.8-2.6 130.9 25.6 266.3 86.6 382.5 11 21 23.1 41.3 36.2 61 6.2 9.1 15.4 20.4 20.7 28.8-5.7-3.1-18.3-16.5-24.1-21.4-82.9-71-222.4-109.5-327.7-122.2-43.9-5.3-88.2-6.8-132.4-4.5-165 8.8-341.5 68.4-466 179.6-18.4 16.4-29 28.7-45.2 46.7 5.4-12.3 27-43.4 35.4-55 51-71 116.3-137.1 186.3-189.4 16.7-12.4 46-29.7 64.3-39.9 148-82.7 335.4-135.9 505.4-105.9 13.8 2.5 28.5 6.8 42 10.6-31-21.3-103.6-37.5-141.5-41.2-152-14.6-313.8 27.1-446.2 101.3-39.2 21.9-68 43.3-102.3 70.6z"/></svg>