<svg version="1.2" xmlns="http://www.w3.org/2000/svg" viewBox="0 0 1080 1080" width="1080" height="1080">
	<style>
		.s0 { fill: #1a1a1a } 
	</style>
	<path class="s0" d="m96.38 830.91c-29.22-3.61-53.36-19.03-71.14-41.32-24.54-30.68-26.74-100.92 0-127.18 26.69-26.26 53.09-40.59 88.48-36.85 72.22-1.61 82.91-57.18 62.54-162.04-7.46-18.58-10.76-38.52-10.09-58.43-1.98-53.59 25.42-106.46 75.97-135.21 6.1-3.5 12.47-6.35 18.87-8.94 1.77-0.75 3.51-1.36 5.29-2.04 1.94-0.7 3.93-1.45 5.95-2.03 15.7-5.21 32.45-8.05 49.95-7.86 54.38 0.49 101.72 29.05 128.24 71.45 36.38 39.22 54.72 63.06 90.27 63.06 37.43 0 53.87-23.84 90.26-63.06 26.53-42.4 73.87-70.96 128.24-71.45 17.47-0.19 34.26 2.65 49.97 7.86 2.02 0.58 3.96 1.33 5.96 2.03 1.76 0.68 3.53 1.29 5.25 2.04 6.43 2.59 12.77 5.44 18.92 8.94 50.49 28.75 77.91 81.62 75.92 135.21 0.66 19.91-2.59 39.85-10.08 58.43-20.39 104.86-9.68 160.43 62.58 162.04 31.18-3.28 60.3 7.89 80.75 28.23 0 0 25.42 24.61 25.78 69.01 0.43 54.5-25.78 75.85-25.78 75.85-16.32 17.25-38.4 29.16-63.44 32.26-56.34 6.95-106.3-33.34-111.63-89.98-1.75-19.13 1.85-37.67 9.47-54.09 78.93-170.15-310.29-174.03-244.56-13.42 0.14 0.2 0.32 0.39 0.46 0.67 31.09 48.86 14.25 112.38-37.44 141.77-18.98 10.79-40.04 15.32-60.63 14.49-20.57 0.83-41.61-3.7-60.62-14.49-51.72-29.39-68.57-92.91-37.47-141.77 0.17-0.28 0.31-0.47 0.46-0.67 65.75-160.61-323.46-156.73-244.56 13.42 7.59 16.42 11.24 34.96 9.48 54.09-5.33 56.64-55.32 96.93-111.62 89.98zm455.45-411.96c-60.07 0-108.81 43.45-108.81 97.13 0 30.03 15.29 56.87 39.3 74.67 10.45 8.85 23.57 15.31 39.53 18.61 9.53 2.46 19.6 3.82 29.98 3.82h0.46 0.44c10.38 0 20.49-1.36 29.96-3.82 16-3.3 29.08-9.76 39.54-18.61 24.01-17.8 39.3-44.64 39.3-74.67 0-53.68-48.73-97.13-108.8-97.13-0.16 0-0.31 0.04-0.44 0.04-0.16 0-0.3-0.04-0.46-0.04z"/>
</svg>