<svg version="1.2" xmlns="http://www.w3.org/2000/svg" viewBox="0 0 1200 423" width="1200" height="423">
	<style>
		.s0 { fill: #0c0f2e } 
		.s1 { fill: #fefefe } 
		.s2 { fill: #c1c1c1 } 
		.s3 { fill: #808080 } 
		.s4 { fill: #ffffff } 
	</style>
	<path id="Shape 5" fill-rule="evenodd" class="s0" d="m895.83 2.97v415.06h-591.66v-415.06z"/>
	<path class="s1" d="m328.91 214.81c6.5-10.49 15.75-22.06 23.88-31.28 35.63-40.14 80.77-70.87 131.36-89.45 0.66 9.49 0.27 22.96 0.28 32.69l0.12 59.04c0.02 15.96 1.22 146.79-0.32 149.87-62.15-22.57-119.04-65.9-155.32-120.87z"/>
	<path id="Layer copy" class="s1" d="m876.46 214.81c-6.49-10.49-15.75-22.06-23.88-31.28-35.62-40.14-80.76-70.87-131.37-89.45-0.64 9.49-0.26 22.96-0.27 32.69l-0.11 59.04c-0.02 15.96-1.23 146.79 0.31 149.87 62.15-22.57 119.05-65.9 155.32-120.87z"/>
	<path id="Shape 1" fill-rule="evenodd" class="s2" d="m721.48 95.2l-1.12 291.34h-241.84v-337.45h199.09z"/>
	<path id="Shape 6" class="s3" d="m678.74 95.2h42.74v6.75h-43.92v-52.88l1.14 1.67z"/>
	<path id="Shape 4" fill-rule="evenodd" class="s3" d="m602.25 332.54c-62.83 0-113.61-50.78-113.61-113.6 0-62.83 50.78-113.61 113.61-113.61 62.83 0 113.61 50.78 113.61 113.61 0 62.82-50.78 113.6-113.61 113.6z"/>
	<path id="Shape 4 copy 3" fill-rule="evenodd" class="s4" d="m600.91 333.86c-62.69-0.78-109.76-52.91-106.75-114.8 2.92-59.92 52.03-108.43 111.17-110.29 60.52-1.89 111.01 45.56 111.68 108.03 0.69 64.62-51.85 117.85-116.1 117.06z"/>
	<path id="Shape 4 copy" fill-rule="evenodd" class="s2" d="m603.37 303.3c-45.4 0-82.11-36.71-82.11-82.11 0-45.41 36.71-82.12 82.11-82.12 45.41 0 82.12 36.71 82.12 82.12 0 45.4-36.71 82.11-82.12 82.11z"/>
	<path id="Shape 4 copy 2" fill-rule="evenodd" class="s3" d="m603.37 249.51c-15.66 0-28.32-12.66-28.32-28.32 0-15.67 12.66-28.33 28.32-28.33 15.67 0 28.33 12.66 28.33 28.33 0 15.66-12.66 28.32-28.33 28.32z"/>
	<path id="Shape 4 copy 4" fill-rule="evenodd" class="s4" d="m604.24 250.96c-16.75-0.96-27.3-15.9-25.03-31.37 1.99-13.52 13.44-23.96 26.53-24.86 13.9-0.96 26.95 8.98 28.61 24.08 1.93 17.59-12 33.19-30.11 32.15z"/>
</svg>