<svg version="1.2" xmlns="http://www.w3.org/2000/svg" viewBox="0 0 512 359" width="512" height="359">
	<style>
		.s0 { fill: #0c0f2e } 
		.s1 { fill: #fefefe } 
		.s2 { fill: #c1c1c1 } 
		.s3 { fill: #808080 } 
		.s4 { fill: #ffffff } 
	</style>
	<path id="Shape 5" fill-rule="evenodd" class="s0" d="m517-10v369h-526v-369z"/>
	<path class="s1" d="m13 178.33c5.77-9.32 14-19.61 21.23-27.81 31.67-35.68 71.8-63 116.78-79.52 0.58 8.44 0.24 20.41 0.25 29.06l0.1 52.49c0.02 14.19 1.09 130.5-0.28 133.24-55.25-20.07-105.83-58.59-138.08-107.46z"/>
	<path id="Layer copy" class="s1" d="m499.78 178.33c-5.77-9.32-14-19.61-21.23-27.81-31.67-35.68-71.8-63-116.79-79.52-0.57 8.44-0.23 20.41-0.24 29.06l-0.1 52.49c-0.02 14.19-1.09 130.5 0.28 133.24 55.25-20.07 105.83-58.59 138.08-107.46z"/>
	<path id="Shape 1" fill-rule="evenodd" class="s2" d="m362 72l-1 259h-215v-300h177z"/>
	<path id="Shape 6" class="s3" d="m324 72h38v6h-39.05v-47.01l1.02 1.48z"/>
	<path id="Shape 4" fill-rule="evenodd" class="s3" d="m256 283c-55.85 0-101-45.15-101-101 0-55.85 45.15-101 101-101 55.85 0 101 45.15 101 101 0 55.85-45.15 101-101 101z"/>
	<path id="Shape 4 copy 3" fill-rule="evenodd" class="s4" d="m254.81 284.17c-55.73-0.69-97.58-47.04-94.9-102.06 2.59-53.27 46.25-96.4 98.83-98.05 53.8-1.68 98.69 40.5 99.28 96.04 0.62 57.45-46.09 104.77-103.21 104.07z"/>
	<path id="Shape 4 copy" fill-rule="evenodd" class="s2" d="m257 257c-40.37 0-73-32.63-73-73 0-40.37 32.63-73 73-73 40.37 0 73 32.63 73 73 0 40.37-32.63 73-73 73z"/>
	<path id="Shape 4 copy 2" fill-rule="evenodd" class="s3" d="m257 209.18c-13.93 0-25.18-11.25-25.18-25.18 0-13.93 11.25-25.18 25.18-25.18 13.93 0 25.18 11.25 25.18 25.18 0 13.93-11.25 25.18-25.18 25.18z"/>
	<path id="Shape 4 copy 4" fill-rule="evenodd" class="s4" d="m257.77 210.47c-14.89-0.85-24.27-14.14-22.25-27.89 1.77-12.02 11.95-21.3 23.58-22.1 12.36-0.85 23.96 7.98 25.44 21.41 1.71 15.64-10.67 29.5-26.77 28.58z"/>
</svg>