<svg version="1.2" xmlns="http://www.w3.org/2000/svg" viewBox="0 0 1080 1080" width="1080" height="1080">
	<style>
		.s0 { fill: #000000 } 
	</style>
	<path id="Shape 1" fill-rule="evenodd" class="s0" d="m819 1013c-124.42 0-225-100.58-225-225 0-37.6 9.18-73.02 25.44-104.15l-0.09-0.26c8.66-14.13 13.65-30.77 13.65-48.59 0-51.43-41.57-93-93-93-51.43 0-93 41.57-93 93 0 20.02 6.3 38.55 17.03 53.71l-0.56 0.9c14.43 29.71 22.53 63.09 22.53 98.39 0 124.42-100.58 225-225 225-124.42 0-225-100.58-225-225 0-117.88 90.27-214.35 205.57-224.18 127.98-32.75 104.3-143.22 91.53-182.12-11.65-27.21-18.1-57.19-18.1-88.7 0-124.42 100.58-225 225-225 124.42 0 225 100.58 225 225 0 25.91-4.36 50.79-12.39 73.94l0.39 0.06q-1.13 2.47-2.18 4.91-2.33 6.21-5 12.25c-48.79 128.26 48.73 168.54 88.42 179.35 117.29 7.81 209.76 105.19 209.76 224.49 0 124.42-100.58 225-225 225z"/>
</svg>