<svg version="1.2" xmlns="http://www.w3.org/2000/svg" viewBox="0 0 1200 423" width="1200" height="423">
	<style>
		.s0 { fill: #f68212 } 
	</style>
	<path id="path2424" class="s0" d="m433.4 117.31v14.77h43.31v-14.77c0-35.75 29.09-64.84 64.84-64.84 35.74 0 64.83 29.09 64.83 64.84v106.84h43.31v-106.84c0-59.63-48.51-108.15-108.14-108.15-59.63 0-108.15 48.52-108.15 108.15z"/>
	<path id="path2426" fill-rule="evenodd" class="s0" d="m541.72 322.23c-19.76 0-35.73-15.98-35.73-35.74 0-19.76 15.97-35.73 35.73-35.73 19.76 0 35.73 15.97 35.73 35.73 0 19.76-15.97 35.74-35.73 35.74z"/>
	<path id="path2428" class="s0" d="m413.78 286.11c0 70.31 57.21 127.53 127.52 127.53 70.32 0 127.52-57.22 127.52-127.53 0-70.32-57.2-127.52-127.52-127.52-70.31 0-127.52 57.2-127.52 127.52zm43.31 0c0-46.43 37.78-84.21 84.21-84.21 46.44 0 84.21 37.78 84.21 84.21 0 46.44-37.77 84.22-84.21 84.22-46.43 0-84.21-37.78-84.21-84.22z"/>
	<path id="path2430" class="s0" d="m79.95 289.93c-25.64 0-40.85-19.46-40.85-44.19 0-26.04 16.75-45.49 42.27-45.49 26.66 0 41.22 19.97 41.22 43.93 0 28.61-17.13 45.75-42.52 45.75zm0.91-15.6c13.27 0 20.87-12.49 20.87-29.49 0-15.6-7.35-29-20.87-29-13.53 0-21.14 13.14-21.14 29.38 0 16.36 7.86 29.11 21.01 29.11z"/>
	<path id="path2432" class="s0" d="m140.05 202.83c6.05-1.03 14.56-1.8 26.55-1.8 12.1 0 20.87 2.31 26.66 7.08 5.55 4.25 9.15 11.47 9.15 19.97 0 8.63-2.7 15.85-7.86 20.62-6.7 6.18-16.75 9.14-28.34 9.14-2.58 0-4.9-0.12-6.7-0.52v31.19h-19.46zm19.46 39.42c1.67 0.4 3.73 0.52 6.56 0.52 10.45 0 16.88-5.28 16.88-14.04 0-7.99-5.41-12.76-15.33-12.76-3.99 0-6.7 0.26-8.11 0.64z"/>
	<path id="path2434" class="s0" d="m271.15 251.79h-31.96v20.61h35.69v16.11h-55.27v-86.85h53.47v16.11h-33.89v18.04h31.96z"/>
	<path id="path2436" class="s0" d="m297.95 288.51v-86.85h22.93l18.04 31.83c5.16 9.15 10.18 19.97 14.17 29.76h0.26c-1.15-11.46-1.55-23.19-1.55-36.33v-25.26h18.04v86.85h-20.61l-18.55-33.5c-5.16-9.41-10.96-20.49-15.08-30.67h-0.52c0.65 11.6 0.91 23.84 0.91 38.01v26.16z"/>
	<path id="path2438" class="s0" d="m724.46 266.21l-6.05 22.3h-20.37l26.55-86.85h25.64l27.05 86.85h-21.13l-6.7-22.3zm22.03-14.68l-5.4-18.43c-1.42-5.15-2.97-11.72-4.26-16.75h-0.38c-1.16 5.15-2.58 11.72-3.87 16.75l-5.28 18.43z"/>
	<path id="path2440" class="s0" d="m851.35 286.19c-3.48 1.67-11.72 3.74-22.16 3.74-30.02 0-45.49-18.82-45.49-43.68 0-29.64 21.14-46.01 47.42-46.01 10.18 0 17.91 2.07 21.39 3.88l-4.12 15.46c-3.87-1.67-9.4-3.23-16.5-3.23-15.46 0-27.57 9.41-27.57 28.87 0 17.38 10.31 28.34 27.7 28.34 6.05 0 12.5-1.16 16.49-2.83z"/>
	<path id="path2442" class="s0" d="m928.62 286.19c-3.48 1.67-11.72 3.74-22.17 3.74-30.02 0-45.48-18.82-45.48-43.68 0-29.64 21.14-46.01 47.42-46.01 10.18 0 17.91 2.07 21.39 3.88l-4.12 15.46c-3.87-1.67-9.42-3.23-16.5-3.23-15.46 0-27.57 9.41-27.57 28.87 0 17.38 10.31 28.34 27.7 28.34 6.06 0 12.5-1.16 16.49-2.83z"/>
	<path id="path2444" class="s0" d="m1002.96 251.79h-31.96v20.61h35.7v16.11h-55.28v-86.85h53.48v16.11h-33.9v18.04h31.96z"/>
	<path id="path2446" class="s0" d="m1030.41 268.4c5.15 2.71 13.39 5.42 21.77 5.42 9.01 0 13.79-3.73 13.79-9.53 0-5.28-4.12-8.51-14.56-12.12-14.43-5.15-23.97-13.14-23.97-25.89 0-14.82 12.5-26.04 32.86-26.04 9.92 0 17 1.94 22.16 4.38l-4.38 15.73c-3.35-1.67-9.67-4.13-18.03-4.13-8.52 0-12.64 4-12.64 8.38 0 5.54 4.77 7.98 16.11 12.36 15.33 5.68 22.42 13.66 22.42 26.03 0 14.57-11.08 26.94-34.92 26.94-9.92 0-19.72-2.71-24.61-5.41z"/>
	<path id="path2448" class="s0" d="m1104.55 268.4c5.16 2.71 13.4 5.42 21.77 5.42 9.03 0 13.8-3.73 13.8-9.53 0-5.28-4.13-8.51-14.57-12.12-14.42-5.15-23.96-13.14-23.96-25.89 0-14.82 12.49-26.04 32.85-26.04 9.93 0 17.01 1.94 22.17 4.38l-4.38 15.73c-3.35-1.67-9.66-4.13-18.04-4.13-8.51 0-12.63 4-12.63 8.38 0 5.54 4.76 7.98 16.1 12.36 15.33 5.68 22.42 13.66 22.42 26.03 0 14.57-11.08 26.94-34.92 26.94-9.91 0-19.71-2.71-24.6-5.41z"/>
</svg>