<svg version="1.2" xmlns="http://www.w3.org/2000/svg" viewBox="0 0 575 176" width="575" height="176">
	<style>
		.s0 { fill: #222080 } 
		.s1 { fill: #4686e5 } 
		.s2 { fill: #fbfcfe } 
		.s3 { fill: #4687e6 } 
	</style>
	<path class="s0" d="m203.64 11.06c7.97 6.85 13.03 16.87 13.86 27.35 0.69 11.8-2.7 22.69-10.58 31.62-3.97 4.38-8.69 7.6-13.94 10.29q0.13 0.61 0.27 1.25c4.23 19.84 1.05 40.7-10.01 57.85q-2.28 3.46-4.91 6.65-0.25 0.29-0.49 0.6c-3.27 3.94-6.73 7.47-10.76 10.64q-0.47 0.39-0.97 0.8c-15.4 12.32-35.28 17.55-54.79 15.63-14.4-1.65-28.09-7.18-39.29-16.43-0.29-0.24-0.29-0.24-0.59-0.48-3.95-3.27-7.48-6.73-10.65-10.76q-0.39-0.48-0.79-0.97c-12.52-15.64-17.68-35.84-15.52-55.63 1.86-15.19 8.21-29.88 18.69-41.13q0.92-1 1.79-2.05c4.94-5.63 11.18-9.96 17.63-13.67q0.32-0.18 0.64-0.37c16.29-9.52 36.4-11.27 54.55-7.12q0.51 0.16 1.03 0.34 0.04-0.34 0.08-0.7c0.33-1.29 0.95-2.33 1.64-3.45q0.21-0.34 0.42-0.69c1.19-1.92 2.51-3.67 3.99-5.38q0.33-0.41 0.68-0.84c14.71-17.31 41.24-17.27 58.02-3.35zm-121.05 50.52q-0.36 0.34-0.74 0.69c-8.92 8.5-14.33 21.72-14.66 33.94-0.12 9.2 1.48 17.39 5.52 25.67q0.29 0.59 0.59 1.2c2.34 4.56 5.41 8.42 8.95 12.09q0.4 0.43 0.82 0.88c8.56 9 21.79 14.52 34.15 14.86 8.85 0.11 17.01-1.28 24.99-5.18q0.32-0.16 0.66-0.32c5.03-2.47 9.28-5.67 13.31-9.56q0.43-0.4 0.88-0.82c9.01-8.56 14.52-21.79 14.86-34.15 0.08-6.29-0.5-12.18-2.45-18.18q-0.54-0.11-1.09-0.22c-6.92-1.5-13.32-4.26-18.67-8.98q-0.42-0.34-0.85-0.71c-6.46-5.56-10.16-12.69-12.41-20.81q-0.18-0.64-0.37-1.3c-0.1-0.56-0.1-0.56-0.21-1.14-0.54-1.04-0.7-1.09-1.76-1.46q-0.82-0.2-1.65-0.38-0.44-0.1-0.89-0.21c-18.01-4.1-35.77 1.5-48.98 14.09z"/>
	<path class="s1" d="m203.64 11.06c7.97 6.85 13.03 16.87 13.86 27.35 0.69 11.8-2.7 22.69-10.58 31.62-7.53 8.31-17.92 12.86-29.09 13.45-11.61 0.38-21.9-3.72-30.38-11.58-8.24-7.85-12.18-18.44-12.5-29.67 0.26-11.69 4.68-22.19 13.05-30.39 15.95-14.28 39.32-14.31 55.64-0.78z"/>
	<path class="s2" d="m177.3 23.42c1.32 0.73 2.33 1.42 3.07 2.73 0.09 0.96 0.12 1.85 0.1 2.82q0 0.4-0.01 0.81-0.01 1.3-0.03 2.59-0.01 0.87-0.01 1.75-0.02 2.15-0.05 4.29c0.52-0.01 0.52-0.01 1.06-0.02q1.96-0.03 3.92-0.05 0.85-0.01 1.69-0.03 1.22-0.02 2.45-0.03c0.37-0.01 0.37-0.01 0.75-0.02 1.76 0 2.74 0.41 4.1 1.52 0.8 1.09 0.84 2.07 0.68 3.4-0.73 1.35-1.28 2.21-2.73 2.73-0.92 0.06-1.81 0.08-2.74 0.07q-0.39-0.01-0.79-0.01-1.26 0-2.51-0.02-0.86 0-1.71-0.01-2.09-0.01-4.17-0.03 0.01 0.52 0.02 1.07 0.02 1.96 0.03 3.93 0.01 0.85 0.03 1.7 0.01 1.22 0.02 2.45 0.01 0.38 0.01 0.76c0 1.54-0.19 2.5-1.13 3.72-1.1 0.92-1.82 1.32-3.24 1.55-1.6-0.26-2.11-0.74-3.24-1.89-0.88-1.28-0.77-2.62-0.75-4.11q0.01-0.39 0.01-0.79 0-1.26 0.02-2.51 0-0.86 0.01-1.71 0.01-2.09 0.03-4.17c-0.54 0.01-0.54 0.01-1.1 0.02q-2.02 0.04-4.05 0.05-0.87 0.01-1.74 0.03-1.26 0.02-2.52 0.03c-0.39 0.01-0.39 0.01-0.79 0.02-1.27 0-1.98-0.1-3.06-0.8-1-1.02-1.33-1.64-1.52-3.06 0.17-1.36 0.63-2.05 1.5-3.1 1.25-0.9 2.62-0.77 4.1-0.75 0.39 0 0.39 0 0.79 0q1.26 0.01 2.51 0.02 0.86 0.01 1.71 0.01 2.09 0.01 4.17 0.03-0.01-0.54-0.03-1.09-0.04-2.02-0.06-4.03-0.01-0.88-0.04-1.75-0.03-1.25-0.04-2.51-0.01-0.38-0.02-0.78c0-1.37 0.13-2.19 1.01-3.27 1.39-1.38 2.31-1.79 4.29-1.56z"/>
	<path class="s0" d="m256.58 79.06q0.74 0.62 1.46 1.26 0.38 0.33 0.78 0.68c4.5 4.2 7.3 10.29 7.52 16.44 0.1 7.69-1.07 14.68-6.59 20.39q-0.67 0.67-1.37 1.33-0.32 0.31-0.64 0.63c-5.47 5-12.39 5.78-19.49 5.56-6.03-0.36-11.62-3.52-15.64-7.9-5.23-6.11-6.54-13.32-6.13-21.12 0.69-6.79 4.32-12.71 9.41-17.1 8.66-6.63 21.96-6.67 30.69-0.17zm-26.47 6.03q-0.33 0.27-0.68 0.54c-3.04 2.69-5.19 7.21-5.53 11.24-0.17 3.96-0.21 7.71 1.44 11.39q0.2 0.47 0.41 0.96c2.25 4.64 5.94 7.2 10.62 9.02 5.36 1.02 10.42 0.58 15.1-2.39 4.33-3.23 6.71-7.87 7.5-13.16 0.59-5.62-0.69-10.81-3.94-15.43-3.06-3.72-7.38-5.71-12.12-6.22-4.81-0.23-9.14 0.89-12.8 4.05z"/>
	<path class="s0" d="m297.78 93.82c3.74 2.67 5.91 6.24 6.94 10.69 0.5 5.67 0.15 10.7-3.41 15.33q-0.29 0.44-0.6 0.89c-2.87 3.04-6.41 4.56-10.56 4.72-4.07 0.05-7.2-0.9-10.22-3.78q-0.37-0.4-0.76-0.81-0.34-0.33-0.68-0.68-0.01 0.31-0.01 0.62-0.01 3.21-0.05 6.42-0.01 1.19-0.01 2.39-0.01 1.72-0.03 3.44 0 0.53 0 1.08c-0.05 2.49-0.05 2.49-1.07 3.81-1.14 0.82-1.65 1.05-3.03 0.95q-0.39-0.01-0.78-0.03c-1.25-0.44-1.92-1.19-2.52-2.33-0.25-1.37-0.22-2.73-0.2-4.12q-0.01-0.61-0.01-1.25 0-1.7 0.02-3.39 0.01-1.78 0-3.55 0.01-2.98 0.03-5.96 0.02-3.45 0.02-6.89 0-3.67 0.01-7.34 0-1.06 0.01-2.12 0-1.96 0.02-3.93 0-0.59 0-1.18 0-0.54 0.01-1.09 0-0.46 0-0.94c0.1-0.89 0.28-1.43 0.77-2.19 1.45-0.96 2.73-0.94 4.43-0.68 1.31 0.88 1.76 1.69 2.15 3.18 0.12 0.62 0.12 0.62 0.24 1.25q0.18-0.22 0.37-0.45c4.93-5.42 12.89-5.7 18.92-2.06zm-15.89 5.92c-2.64 2.45-3.59 5.26-3.75 8.81 0.02 3.18 1.15 5.81 3.31 8.17 1.94 1.77 4.26 2.83 6.92 2.78 3.23-0.34 5.41-1.59 7.49-4.09 0.6-0.99 1.03-1.96 1.37-3.07 0.09-0.31 0.09-0.31 0.19-0.62 0.63-3.23 0.36-6.69-1.22-9.6-1.72-2.52-3.63-3.89-6.6-4.55-2.98-0.46-5.35 0.29-7.71 2.17z"/>
	<path class="s0" d="m332.55 93.84c4.09 2.93 5.82 6.77 6.74 11.61 0.52 3.26 0.52 3.26-0.37 4.74-1.07 1.04-1.62 1-3.09 0.98-0.34 0-0.34 0-0.69 0q-1.12 0-2.23-0.02-0.78-0.01-1.56-0.01-2.04-0.01-4.07-0.04-2.09-0.03-4.17-0.04-4.09-0.03-8.17-0.08 0.23 0.82 0.47 1.63 0.13 0.46 0.27 0.92c0.83 2.51 2.58 4.03 4.88 5.22 2.88 0.96 6.18 0.76 8.92-0.5 1.15-0.66 2.16-1.45 3.17-2.3 1.16-0.92 1.76-1.24 3.26-1.16 1.17 0.28 1.17 0.28 1.81 0.66 0.61 1.01 0.69 1.86 0.73 3.02-1.58 3.16-4.6 5-7.84 6.14-4.55 1.37-10.31 1.4-14.65-0.68-4.28-2.38-6.82-5.82-8.21-10.46-1.18-4.96-0.45-10.06 1.97-14.48 2.47-3.83 5.82-6.25 10.28-7.3 4.47-0.79 8.67-0.21 12.55 2.15zm-16.01 6.99c-0.83 1.28-0.83 1.28-1.6 4.36 5.84 0 11.69 0 17.71 0-0.99-3.31-1.73-5.22-4.68-6.96-4.26-2.05-8.37-0.79-11.43 2.6z"/>
	<path class="s0" d="m368.02 94.18c3.45 2.69 5.64 6.29 6.2 10.67q0.08 2 0.08 4 0 0.58 0.01 1.17 0 1.22 0.01 2.44 0 1.24 0.02 2.49 0.02 1.81 0.02 3.61 0.01 0.55 0.02 1.12c0 2.09-0.11 3.35-1.52 4.93-0.82 0.41-1.41 0.43-2.32 0.47-0.44 0.02-0.44 0.02-0.89 0.05-1.35-0.27-1.76-0.78-2.58-1.89-0.25-1.3-0.23-2.59-0.21-3.92q0-0.57-0.01-1.16-0.01-1.83 0-3.67 0.01-1.82-0.01-3.65 0-1.13 0.01-2.27c-0.01-2.66-0.25-5.39-1.89-7.6q-2.95-2.76-7-2.69c-2.63 0.32-4.43 1.46-6.1 3.47-0.91 1.39-1.23 2.6-1.24 4.27 0 0.54 0 0.54 0 1.09q0 0.58 0 1.17-0.01 1.24-0.02 2.47-0.02 1.95-0.02 3.89-0.01 1.88-0.02 3.76 0 0.58 0 1.17c-0.03 2.11-0.1 3.45-1.55 5.04-0.82 0.41-1.41 0.43-2.32 0.47q-0.44 0.02-0.88 0.05c-0.98-0.2-1.54-0.52-2.23-1.25-0.84-1.48-0.59-3.34-0.58-4.99q0-0.64 0-1.3 0-1.35 0.01-2.71 0.02-1.38 0.01-2.76-0.01-2 0-4.01 0-0.6 0-1.23c0.05-3.95 1.17-7.1 3.6-10.21q0.25-0.31 0.5-0.63c5.13-5.82 14.8-6 20.9-1.86z"/>
	<path class="s3" d="m402.84 74.68q0.51 0 1.04 0c1.28 0.24 1.79 0.61 2.7 1.55 0.54 0.86 0.95 1.77 1.37 2.7q0.19 0.43 0.39 0.86 0.66 1.46 1.31 2.91 0.48 1.08 0.97 2.15 1.1 2.45 2.2 4.91 1.72 3.86 3.46 7.72 0.78 1.73 1.55 3.45 1.8 4.02 3.64 8.01 0.82 1.76 1.63 3.53 0.39 0.84 0.78 1.68c2.77 5.88 2.77 5.88 2.12 8.41-0.59 1.06-1.28 1.84-2.38 2.39-0.82 0.09-0.82 0.09-1.79 0.13q-0.47 0.02-0.96 0.05c-1.4-0.25-2.18-0.8-3.04-1.89-0.83-1.45-1.5-2.96-2.18-4.49q-0.27-0.61-0.56-1.24c-1.35-3.01-1.35-3.01-1.35-3.81-7.08 0.12-14.17 0.23-21.46 0.35-2.2 4.55-2.2 4.55-4.43 9.19-1.71 1.71-1.71 1.71-2.71 1.92-2.8-0.06-2.8-0.06-4.15-0.78-1.28-1.59-1.46-2.86-1.32-4.88 0.33-1.05 0.79-2.03 1.26-3.02q0.2-0.43 0.4-0.87 0.64-1.4 1.3-2.8 0.45-0.98 0.9-1.96 0.9-1.94 1.8-3.89 1.54-3.37 3.05-6.75 0.52-1.16 1.04-2.32c0.27-0.6 0.27-0.6 0.54-1.22q1.7-3.78 3.4-7.57 0.4-0.88 0.8-1.77 1.1-2.45 2.2-4.89 0.5-1.12 1-2.24 0.3-0.69 0.62-1.37 0.25-0.59 0.52-1.2c1.08-1.95 2.06-3 4.34-2.95zm0 13.13c-1.59 3.32-3.01 6.7-4.38 10.11q-0.53 1.31-1.06 2.6-0.34 0.83-0.67 1.66-0.16 0.39-0.32 0.78c-0.54 1.25-0.54 1.25-0.73 2.57 4.72 0 9.45 0 14.31 0-0.23-1.14-0.4-1.97-0.83-3q-0.14-0.36-0.29-0.73-0.16-0.38-0.32-0.78c-0.17-0.4-0.17-0.4-0.33-0.81q-0.53-1.3-1.06-2.58-0.35-0.86-0.7-1.71-0.67-1.63-1.33-3.26-0.99-2.42-1.95-4.85-0.17 0-0.34 0z"/>
	<path class="s3" d="m435.54 74.87c1.48 0.58 2.02 1.33 2.73 2.72 0.13 0.9 0.13 0.9 0.13 1.89q0.01 0.56 0.01 1.13 0 0.61-0.01 1.24 0.01 0.65 0.01 1.31 0.01 1.78 0.01 3.55 0 1.48 0 2.97 0.01 3.5 0 7-0.01 3.6 0.01 7.21 0.01 3.1 0.01 6.2 0 1.85 0 3.7 0.01 2.07 0 4.13 0 0.61 0.01 1.24c-0.02 2.13-0.08 3.5-1.54 5.11-1.5 1.05-3.36 0.93-5.11 0.68-1.35-0.67-2.18-1.69-2.73-3.07-0.09-0.85-0.09-0.85-0.09-1.82q-0.01-0.55-0.01-1.11 0-0.6 0-1.22 0-0.64-0.01-1.3 0-1.74 0-3.49-0.01-1.1-0.01-2.19-0.01-3.82-0.01-7.64 0-3.55-0.01-7.11-0.02-3.05-0.02-6.11 0-1.82 0-3.64-0.02-2.04-0.01-4.07 0-0.6-0.01-1.22c0.02-2.13 0.09-3.45 1.54-5.07 1.49-1.44 3.16-1.23 5.11-1.02z"/>
	<path class="s3" d="m454.81 75.05q0.72 0 1.44 0 1.51 0 3.03 0.02 1.91 0.01 3.83 0.01 1.49 0 2.99 0.01 0.71 0 1.41 0.01c5.56 0.01 11.31 0.46 15.73 4.2 3.19 3.23 4.14 7.15 4.12 11.58-0.15 3.69-1.27 6.97-3.85 9.64-1.27 1.16-2.54 2.09-4.02 2.96q0.3 0.6 0.61 1.21 1.12 2.23 2.25 4.47 0.48 0.96 0.97 1.93 0.7 1.39 1.4 2.78 0.21 0.42 0.43 0.86c2.52 5.04 2.52 5.04 1.84 7.83-0.72 1.11-1.29 1.66-2.39 2.39-0.92 0.12-0.92 0.12-1.98 0.15q-0.51 0.02-1.05 0.04c-1.37-0.25-2.16-0.91-3.1-1.9-0.49-0.8-0.9-1.54-1.28-2.39q-0.17-0.35-0.34-0.7-0.53-1.11-1.04-2.23-0.36-0.76-0.73-1.53-0.71-1.5-1.41-3.01-0.84-1.77-1.69-3.53-0.42-0.87-0.83-1.75-0.19-0.38-0.39-0.78c-0.81-1.71-0.81-1.71-0.81-2.47-4.83 0-9.67 0-14.65 0q0.02 1.83 0.05 3.73 0.01 1.79 0.03 3.58 0.01 1.24 0.03 2.49 0.02 1.78 0.03 3.57 0.01 0.55 0.02 1.12c0 2.1-0.11 3.34-1.52 4.93-1.5 1.05-3.36 0.93-5.11 0.68-1.34-0.67-2.17-1.69-2.72-3.07-0.09-0.84-0.09-0.84-0.09-1.79q-0.01-0.54-0.01-1.1 0-0.59 0-1.2 0-0.63 0-1.27-0.01-1.72-0.01-3.45 0-1.43 0-2.87 0-3.4 0-6.79 0-3.5-0.01-7-0.01-3.01-0.01-6.02 0-1.79 0-3.59-0.01-2 0-4-0.01-0.59-0.01-1.2c0.02-3.42 0.02-3.42 1.16-5.03 2.02-1.91 5.09-1.55 7.68-1.52zm0.49 8.67c0 4.39 0 8.77 0 13.29q3.49 0.04 6.98 0.06 1.19 0 2.38 0.02 1.71 0.02 3.42 0.02c0.52 0.01 0.52 0.01 1.06 0.02 2.55 0 4.62-0.35 6.71-1.91 1.41-1.43 1.98-2.84 2.09-4.83-0.09-2.2-0.95-3.69-2.45-5.26-2.39-1.56-4.91-1.5-7.68-1.47q-0.53 0-1.09 0-1.7 0.01-3.41 0.02-1.17 0.01-2.33 0.01-2.84 0.01-5.68 0.03z"/>
	<path class="s3" d="m499.7 75.08c0.41-0.01 0.41-0.01 0.83-0.01q1.34 0 2.68 0 0.94 0 1.88 0 1.96 0 3.92 0.01 2.52 0 5.03-0.01 1.94 0 3.87 0 0.93 0 1.85 0 1.3-0.01 2.59 0.01 0.38-0.01 0.77-0.01c2.02 0.02 3.36 0.55 4.88 1.86 0.81 1.47 0.85 2.77 0.55 4.41-0.59 1.23-1.38 1.91-2.64 2.43-1.19 0.32-2.18 0.38-3.4 0.37q-0.33 0-0.67 0-1.08 0-2.15-0.01-0.76 0-1.51 0-1.97 0-3.94-0.02-2.37-0.01-4.74-0.01-3.59-0.02-7.18-0.03c0 3.71 0 7.42 0 11.24q2.1-0.02 4.26-0.04 1.69-0.01 3.37-0.02 1.78 0 3.56-0.02 2.04-0.02 4.08-0.02 0.63-0.01 1.28-0.02 0.59 0 1.2 0c0.52 0 0.52 0 1.05 0 1.53 0.19 2.7 0.98 3.68 2.16 0.54 1.61 0.52 2.92-0.06 4.52-0.7 1.06-1.19 1.4-2.32 1.96-0.97 0.12-0.97 0.12-2.04 0.11q-0.6 0-1.22 0c-0.65-0.01-0.65-0.01-1.3-0.01q-0.67-0.01-1.35-0.01-1.76 0-3.53-0.03-1.8-0.01-3.6-0.02-3.53-0.01-7.06-0.04c0 3.93 0 7.87 0 11.92 2.55-0.02 2.55-0.02 5.14-0.04q1.62 0 3.23-0.01 2.57-0.01 5.13-0.03 2.07-0.01 4.14-0.02 0.78 0 1.57-0.01 1.11-0.01 2.21-0.01 0.63 0 1.27 0c1.65 0.17 2.77 0.76 4.01 1.84 0.81 1.47 0.77 2.77 0.55 4.41-0.45 1.2-0.82 1.58-1.9 2.25-1.39 0.57-2.6 0.62-4.07 0.61q-0.43 0.01-0.87 0.01-1.41 0.01-2.81 0-0.99 0.01-1.97 0.01-2.06 0-4.11 0-2.63-0.01-5.26 0.01-2.03 0.01-4.06 0.01-0.97 0-1.94 0-1.36 0.01-2.72 0c-0.39 0-0.39 0-0.8 0.01-1.84-0.03-3.44-0.4-4.92-1.54-0.89-1.21-1.15-2.06-1.15-3.54q-0.01-0.55-0.01-1.1 0-0.59 0-1.2 0-0.63 0-1.27-0.01-1.72-0.01-3.44 0-1.44 0-2.88-0.01-3.39 0-6.78 0-3.5-0.01-6.99-0.01-3.01-0.01-6.01 0-1.8-0.01-3.59 0-2 0.01-4-0.01-0.59-0.01-1.19c0.03-3.51 0.03-3.51 1.54-5.03 1.72-0.99 3.28-1.17 5.22-1.15z"/>
</svg>