<svg version="1.2" xmlns="http://www.w3.org/2000/svg" viewBox="0 0 1080 1080" width="1080" height="1080">
	<style>
		.s0 { fill: #222080 } 
		.s1 { fill: #4686e5 } 
		.s2 { fill: #fbfcfe } 
	</style>
	<path class="s0" d="m989.07 68.94c49.08 42.22 80.23 103.9 85.39 168.45 4.22 72.68-16.66 139.71-65.16 194.7-24.49 27-53.52 46.8-85.89 63.35q0.82 3.81 1.68 7.7c26.07 122.21 6.5 250.67-61.66 356.28-9.4 14.21-19.39 27.8-30.24 40.94-1 1.21-1.99 2.41-3.02 3.67-20.12 24.27-41.39 46.03-66.21 65.56-1.97 1.62-3.94 3.23-5.98 4.89-94.83 75.86-217.27 108.07-337.42 96.3-88.66-10.18-173-44.23-241.94-101.19-1.82-1.49-1.82-1.49-3.67-3-24.27-20.12-46.03-41.39-65.56-66.23q-2.42-2.95-4.89-5.96c-77.06-96.32-108.87-220.73-95.56-342.56 11.47-93.59 50.6-184.04 115.13-253.29 3.82-4.11 7.41-8.33 11.02-12.63 30.42-34.66 68.85-61.35 108.57-84.19q1.94-1.14 3.92-2.31c100.31-58.62 224.17-69.36 335.95-43.85 2.08 0.69 4.16 1.39 6.3 2.1q0.25-2.1 0.5-4.3c2.04-7.93 5.85-14.35 10.11-21.26 0.84-1.4 1.7-2.79 2.56-4.23 7.34-11.81 15.49-22.62 24.59-33.15q2.07-2.51 4.2-5.12c90.57-106.6 253.94-106.37 357.28-20.67zm-745.41 311.12q-2.26 2.1-4.58 4.23c-54.9 52.37-88.22 133.75-90.27 209.03-0.71 56.66 9.08 107.1 34.01 158.08 1.17 2.45 2.37 4.89 3.58 7.4 14.44 28.08 33.34 51.83 55.16 74.42 1.64 1.8 3.29 3.59 5.01 5.43 52.75 55.45 134.21 89.44 210.33 91.52 54.48 0.69 104.73-7.91 153.91-31.91q1.98-0.96 4.02-1.95c31.01-15.26 57.2-34.96 81.99-58.89 1.79-1.66 3.57-3.3 5.42-5.02 55.47-52.76 89.43-134.21 91.51-210.32 0.48-38.77-3.06-75-15.1-111.95-2.23-0.46-4.43-0.92-6.72-1.38-42.61-9.21-82.01-26.23-114.97-55.27q-2.57-2.13-5.2-4.36c-39.82-34.26-62.56-78.17-76.47-128.19-0.74-2.64-1.49-5.28-2.25-8.01-0.63-3.44-0.63-3.44-1.28-6.99-3.35-6.42-4.3-6.75-10.86-8.98q-5.07-1.29-10.16-2.39-2.69-0.62-5.45-1.28c-110.9-25.24-220.29 9.25-301.63 86.78z"/>
	<path class="s1" d="m989.07 68.94c49.08 42.22 80.23 103.9 85.39 168.45 4.22 72.68-16.66 139.71-65.16 194.7-46.39 51.17-110.36 79.17-179.15 82.82-71.52 2.33-134.88-22.91-187.12-71.31-50.69-48.36-74.98-113.56-76.95-182.73 1.57-71.98 28.8-136.62 80.39-187.12 98.21-87.95 242.13-88.14 342.6-4.81z"/>
	<path class="s2" d="m826.89 145.09c8.1 4.44 14.33 8.7 18.88 16.78 0.55 5.94 0.74 11.41 0.61 17.35 0 1.66-0.02 3.32-0.02 5.04q-0.06 7.95-0.19 15.9-0.06 5.4-0.08 10.8-0.13 13.22-0.32 26.44c3.23-0.06 3.23-0.06 6.55-0.13 8.03-0.17 16.09-0.25 24.12-0.33q5.23-0.07 10.43-0.17 7.52-0.14 15.04-0.19c2.31-0.06 2.31-0.06 4.66-0.13 10.85-0.02 16.87 2.54 25.22 9.34 4.93 6.73 5.18 12.8 4.19 20.98-4.46 8.29-7.84 13.62-16.78 16.78-5.71 0.36-11.18 0.49-16.89 0.42q-2.41-0.02-4.89-0.02-7.73-0.04-15.46-0.14-5.26-0.03-10.49-0.05-12.86-0.07-25.7-0.21 0.05 3.24 0.11 6.57 0.16 12.12 0.23 24.23 0.05 5.24 0.14 10.47 0.1 7.53 0.13 15.09 0.05 2.31 0.1 4.7c0 9.44-1.19 15.35-7 22.86-6.76 5.69-11.18 8.16-19.93 9.57-9.86-1.57-12.99-4.55-19.93-11.66-5.42-7.83-4.75-16.12-4.62-25.29q0.03-2.41 0.02-4.88 0.04-7.73 0.15-15.47 0.02-5.26 0.04-10.49 0.07-12.86 0.21-25.7c-3.36 0.07-3.36 0.07-6.78 0.13-8.3 0.17-16.61 0.25-24.92 0.34q-5.38 0.06-10.76 0.16c-5.19 0.11-10.35 0.15-15.53 0.19-2.39 0.07-2.39 0.07-4.82 0.13-7.85 0-12.24-0.63-18.89-4.95-6.14-6.26-8.16-10.12-9.31-18.82 1.01-8.37 3.88-12.63 9.19-19.14 7.74-5.49 16.15-4.74 25.28-4.61 2.41 0.02 2.41 0.02 4.89 0.02q7.73 0.04 15.46 0.15 5.26 0.02 10.49 0.04 12.87 0.07 25.7 0.21c-0.06-2.23-0.11-4.45-0.17-6.74q-0.28-12.42-0.4-24.84-0.08-5.37-0.23-10.74-0.18-7.71-0.23-15.46c-0.04-1.59-0.1-3.17-0.17-4.8 0-8.46 0.82-13.52 6.26-20.17 8.56-8.47 14.22-11.03 26.41-9.56z"/>
</svg>