<svg version="1.2" xmlns="http://www.w3.org/2000/svg" viewBox="0 0 575 176" width="575" height="176">
	<style>
		.s0 { fill: #fa7643 } 
		.s1 { fill: #f6bf36 } 
		.s2 { fill: #00d2e5 } 
		.s3 { fill: #005d87 } 
		.s4 { fill: #3d3d3d } 
		.s5 { fill: #000000 } 
		.s6 { fill: #767676 } 
	</style>
	<path id="c7" fill-rule="evenodd" class="s0" d="m149 102c-3.32 0-6-2.68-6-6 0-3.32 2.68-6 6-6 3.32 0 6 2.68 6 6 0 3.32-2.68 6-6 6z"/>
	<path id="c6" fill-rule="evenodd" class="s1" d="m184 29c-3.32 0-6-2.68-6-6 0-3.32 2.68-6 6-6 3.32 0 6 2.68 6 6 0 3.32-2.68 6-6 6z"/>
	<path id="c5" class="s2" d="m57.01 68.26c0.88-11.2 10.29-19.92 21.57-19.92 3.64 0 7.22 0.93 10.39 2.68q0.42-1.18 0.98-2.57c-1.18-1.18-1.86-2.79-1.86-4.46 0-3.48 2.84-6.32 6.32-6.32 3.48 0 6.31 2.84 6.31 6.32 0 3.48-2.83 6.31-6.31 6.31q-0.19 0-0.37-0.01-0.95 2.39-1.67 4.84c-0.21 0.71-0.75 1.26-1.45 1.5-0.7 0.23-1.47 0.1-2.06-0.34-3-2.26-6.56-3.45-10.28-3.45-4.58 0-8.88 1.78-12.12 5.03-3.24 3.24-5.03 7.55-5.03 12.1q0.01 0.13 0.01 0.25c0.03 1.17-0.86 2.17-2.02 2.28l-0.76 0.08c-13.53 1.44-19.06 12.02-18.54 21.86 0.51 9.65 7.3 20.04 21.01 20.04h62.08v-48.91h-7.59c-0.91 0-1.73-0.54-2.07-1.39-0.35-0.84-0.16-1.8 0.48-2.44l21.11-21.11c0.81-0.81 2.36-0.81 3.17 0l21.05 21.06c0.65 0.64 0.84 1.6 0.49 2.44-0.35 0.85-1.16 1.39-2.07 1.39h-6.47v21.98c3.48 1 5.89 4.17 5.89 7.82 0 4.49-3.65 8.14-8.14 8.14-4.49 0-8.14-3.65-8.14-8.14 0-3.65 2.41-6.82 5.89-7.82v-24.23c0-1.23 1.01-2.24 2.25-2.24h3.3l-15.64-15.63-15.68 15.68h4.42c1.24 0 2.24 1.01 2.24 2.25v53.4c0 1.23-1 2.24-2.24 2.24h-64.34c-16.62 0-24.86-12.59-25.49-24.29-0.59-11.2 5.85-24.18 21.38-26.42zm95.7 27.06c0-2.01-1.64-3.65-3.65-3.65-2.01 0-3.65 1.64-3.65 3.65 0 2.02 1.64 3.65 3.65 3.65 2.01 0 3.65-1.63 3.65-3.65z"/>
	<path id="c4" class="s0" d="m207.2 56.63c-0.7-0.23-1.24-0.79-1.45-1.5-2.9-9.82-8.41-18.71-15.95-25.72-1.47 1.21-3.29 1.87-5.17 1.87-4.49 0-8.15-3.65-8.15-8.14 0-4.49 3.66-8.14 8.15-8.14 4.48 0 8.14 3.65 8.14 8.14q0 1.29-0.42 2.53c7.63 6.94 13.43 15.69 16.8 25.35 3.17-1.75 6.75-2.68 10.39-2.68 11.28 0 20.69 8.72 21.57 19.92 15.53 2.24 21.97 15.23 21.38 26.42-0.63 11.7-8.87 24.29-25.49 24.29h-3.35c-0.93 2.45-3.26 4.07-5.9 4.07-3.48 0-6.32-2.83-6.32-6.31 0-3.49 2.84-6.32 6.32-6.32 2.64 0 4.97 1.62 5.9 4.07h3.35c13.7 0 20.49-10.39 21-20.04 0.52-9.84-5.01-20.42-18.54-21.86l-0.75-0.08c-1.16-0.11-2.06-1.11-2.03-2.27q0-0.14 0.01-0.25c0-9.45-7.69-17.14-17.15-17.14-3.72 0-7.28 1.19-10.28 3.45-0.59 0.44-1.36 0.57-2.06 0.34zm-18.93-33.49c0-2.01-1.63-3.65-3.65-3.65-2.01 0-3.65 1.64-3.65 3.65 0 2.01 1.64 3.65 3.65 3.65 2.02 0 3.65-1.64 3.65-3.65z"/>
	<path id="c3" class="s3" d="m101.24 36.17c0.65 0 1.3-0.28 1.75-0.83 11.38-13.79 28.16-21.7 46.02-21.7 1.25 0 2.27-1.01 2.27-2.27 0-1.25-1.02-2.26-2.27-2.26-19.22 0-37.27 8.51-49.52 23.35-0.8 0.96-0.66 2.39 0.31 3.19 0.42 0.35 0.93 0.52 1.44 0.52z"/>
	<path id="c2" class="s4" d="m172.83 18.39c0.89 0 1.73-0.52 2.1-1.39 0.48-1.16-0.07-2.48-1.22-2.97-4-1.66-8.18-2.93-12.43-3.75-1.23-0.24-2.42 0.56-2.65 1.79-0.24 1.23 0.56 2.42 1.79 2.66 3.95 0.77 7.83 1.94 11.54 3.49q0.43 0.18 0.87 0.17z"/>
	<path id="c1" class="s1" d="m137.2 143.38c0.35-0.84 1.17-1.38 2.08-1.38h7.53v-23.09c-2.36-0.91-4.03-3.19-4.03-5.87 0-3.47 2.81-6.28 6.28-6.28 3.47 0 6.29 2.81 6.29 6.28 0 2.68-1.68 4.96-4.04 5.87v25.33c0 1.24-1.01 2.25-2.25 2.25h-4.36l15.9 15.9 16.15-16.15h-4.48c-1.24 0-2.25-1.01-2.25-2.25v-27.26c0-1.24 1.01-2.25 2.25-2.25h34.09c1.24 0 2.25 1.01 2.25 2.25 0 1.24-1.01 2.24-2.25 2.24h-31.85v22.78h7.66c0.91 0 1.72 0.54 2.07 1.38 0.35 0.84 0.16 1.8-0.49 2.45l-21.57 21.57c-0.42 0.42-0.98 0.66-1.58 0.66-0.6 0-1.17-0.24-1.59-0.66l-21.32-21.32c-0.64-0.64-0.84-1.6-0.49-2.45z"/>
	<path id="Metadata" fill-rule="evenodd" class="s5" d="m319.15 38.51v10.69q-4.17-1.86-8.13-2.81-3.96-0.94-7.48-0.94-4.67 0-6.91 1.28-2.23 1.29-2.23 4 0 2.03 1.49 3.18 1.52 1.12 5.48 1.93l5.55 1.12q8.44 1.69 11.99 5.15 3.56 3.45 3.56 9.81 0 8.37-4.98 12.46-4.95 4.07-15.14 4.07-4.8 0-9.65-0.92-4.84-0.91-9.68-2.71v-11q4.84 2.57 9.34 3.89 4.54 1.29 8.74 1.29 4.27 0 6.54-1.42 2.26-1.42 2.26-4.06 0-2.37-1.55-3.66-1.53-1.29-6.13-2.3l-5.05-1.12q-7.58-1.63-11.1-5.18-3.49-3.56-3.49-9.58 0-7.55 4.88-11.62 4.87-4.06 14.01-4.06 4.17 0 8.57 0.64 4.4 0.61 9.11 1.87zm37.91-2.51q12.19 0 19.1 6.97 6.9 6.98 6.9 19.27 0 12.26-6.9 19.23-6.91 6.98-19.1 6.98-12.16 0-19.1-6.98-6.9-6.97-6.9-19.23 0-12.29 6.9-19.27 6.94-6.97 19.1-6.97zm0 9.45q-5.96 0-9.24 4.4-3.29 4.4-3.29 12.39 0 7.96 3.29 12.36 3.28 4.4 9.24 4.4 5.99 0 9.28-4.4 3.28-4.4 3.28-12.36 0-7.99-3.28-12.39-3.29-4.4-9.28-4.4zm35.91 42.02v-50.56h13.03v40.7h22.89v9.86zm77.86 0l-3.18-9.21h-20.38l-3.22 9.21h-13.1l18.72-50.56h15.54l18.72 50.56zm-13.37-38.71l-6.94 20.12h13.85zm41.21 38.7l-18.72-50.55h13.1l13.41 37.31 13.37-37.31h13.1l-18.72 50.55z"/>
	<path id="SOLAV" fill-rule="evenodd" class="s6" d="m281 138.47v-40.1h8.08l10.23 27.29 10.29-27.29h8.08v40.1h-5.29v-35.21l-10.34 27.5h-5.45l-10.34-27.5v35.21zm72.51-16.28v2.42h-22.71q0.32 5.1 3.06 7.79 2.76 2.66 7.68 2.66 2.84 0 5.5-0.7 2.69-0.7 5.32-2.1v4.67q-2.66 1.13-5.45 1.72-2.79 0.59-5.67 0.59-7.19 0-11.41-4.18-4.19-4.19-4.19-11.34 0-7.38 3.97-11.71 4.01-4.35 10.77-4.35 6.07 0 9.59 3.93 3.54 3.89 3.54 10.6zm-22.55-1.42l17.61-0.03q-0.05-4.05-2.28-6.47-2.2-2.42-5.85-2.42-4.14 0-6.64 2.34-2.47 2.34-2.84 6.58zm30.75-20.92h4.97v8.54h10.17v3.84h-10.17v16.33q0 3.68 0.99 4.72 1.02 1.05 4.11 1.05h5.07v4.14h-5.07q-5.72 0-7.9-2.13-2.17-2.14-2.17-7.78v-16.33h-3.63v-3.84h3.63zm44.6 21.46v17.15h-4.94v-4.56q-1.69 2.74-4.21 4.05-2.53 1.29-6.18 1.29-4.62 0-7.36-2.57-2.71-2.61-2.71-6.96 0-5.07 3.38-7.65 3.41-2.58 10.15-2.58h6.93v-0.48q0-3.41-2.25-5.27-2.23-1.88-6.29-1.88-2.58 0-5.02 0.62-2.44 0.62-4.7 1.85v-4.56q2.71-1.05 5.26-1.56 2.56-0.54 4.97-0.54 6.53 0 9.75 3.39 3.22 3.38 3.22 10.26zm-4.94 2.04h-4.91q-5.99 0-8.3 1.37-2.31 1.37-2.31 4.67 0 2.63 1.72 4.19 1.74 1.53 4.72 1.53 4.11 0 6.58-2.9 2.5-2.93 2.5-7.76zm35.21-10.4v-16.27h4.94v41.79h-4.94v-4.52q-1.56 2.69-3.95 4.01-2.36 1.28-5.69 1.28-5.45 0-8.89-4.35-3.41-4.35-3.41-11.44 0-7.08 3.41-11.43 3.44-4.36 8.89-4.36 3.33 0 5.69 1.32 2.39 1.29 3.95 3.97zm-16.84 10.5q0 5.46 2.23 8.57 2.26 3.09 6.18 3.09 3.92 0 6.17-3.09 2.26-3.11 2.26-8.57 0-5.45-2.26-8.53-2.25-3.12-6.17-3.12-3.92 0-6.18 3.12-2.23 3.08-2.23 8.53zm55.57-2.14v17.16h-4.94v-4.57q-1.69 2.74-4.21 4.06-2.53 1.28-6.18 1.28-4.62 0-7.36-2.57-2.71-2.61-2.71-6.96 0-5.07 3.38-7.65 3.41-2.58 10.15-2.58h6.93v-0.48q0-3.41-2.25-5.27-2.23-1.88-6.29-1.88-2.58 0-5.02 0.62-2.44 0.62-4.7 1.85v-4.56q2.71-1.05 5.26-1.56 2.56-0.54 4.97-0.54 6.53 0 9.75 3.39 3.22 3.38 3.22 10.26zm-4.94 2.04h-4.91q-5.99 0-8.3 1.37-2.31 1.37-2.31 4.67 0 2.63 1.72 4.19 1.74 1.53 4.72 1.53 4.11 0 6.58-2.9 2.5-2.93 2.5-7.76zm15.34-23.5h4.97v8.54h10.17v3.84h-10.17v16.33q0 3.68 0.99 4.72 1.02 1.05 4.11 1.05h5.07v4.14h-5.07q-5.72 0-7.9-2.12-2.17-2.15-2.17-7.79v-16.33h-3.63v-3.84h3.63zm44.6 21.46v17.16h-4.94v-4.57q-1.69 2.74-4.21 4.06-2.53 1.29-6.18 1.29-4.62 0-7.36-2.58-2.71-2.61-2.71-6.96 0-5.07 3.38-7.65 3.41-2.58 10.15-2.58h6.93v-0.48q0-3.41-2.25-5.27-2.23-1.88-6.29-1.88-2.58 0-5.02 0.62-2.44 0.62-4.7 1.85v-4.56q2.71-1.05 5.26-1.56 2.56-0.53 4.97-0.53 6.53 0 9.75 3.38 3.22 3.38 3.22 10.26zm-4.94 2.04h-4.91q-5.99 0-8.3 1.37-2.31 1.37-2.31 4.67 0 2.63 1.72 4.19 1.74 1.53 4.72 1.53 4.11 0 6.58-2.9 2.5-2.93 2.5-7.76z"/>
</svg>