<svg version="1.2" xmlns="http://www.w3.org/2000/svg" viewBox="0 0 1080 1080" width="1080" height="1080">
	<style>
		.s0 { fill: #f58220 } 
		.s1 { fill: #604894 } 
		.s2 { fill: #2079b5 } 
		.s3 { fill: #a9306f } 
		.s4 { fill: #3e9a3c } 
	</style>
	<path class="s0" d="m721.55 454.7c26.05-7.68 57.26 0.84 72.74 24.01 46.27 77.66 80.84 168.76 64.94 260.47-15.07 95.78-82.16 173.14-155.5 231.9-30.37 23.83-61.4 46.81-92.91 69.02-26.83 20.88-70.04 16.5-91.22-10.44-22.99-26.95-17.59-72.98 11.64-93.27 71.48-49.63 150.58-99.57 189.59-180.65 31.57-68.6 2.16-144.7-34.27-204.89-23.1-33.67-4.14-84.99 34.99-96.15z"/>
	<path class="s1" d="m608.72 30.99c58.58-8.04 117.81-3.78 176.75-4.44 31.03-0.72 61.09 22.14 65.84 53.35 8.94 39.19-26.11 79.94-66.2 76.82-81.08-4.32-166.07-8.34-242.71 23.11-57.25 24.06-92.48 82.16-102.68 141.64-9.49 34.27-2.59 80.36-39.07 100.28-39.86 26.59-100.23-5.28-99.15-53.47 7.74-88.82 34.81-181.01 99.45-245.53 54.79-55.51 131.67-82.58 207.77-91.76z"/>
	<path class="s2" d="m187.23 71.44c33.91-11.88 74 10.32 82.7 45.01 8.4 29.83-10.14 57.2-17.82 84.98-23.47 70.76-46.94 148.3-26.23 222.54 19.2 65.18 80.42 104.37 139.6 129.52 30.9 9.96 52.03 43.99 44.17 76.16-6.96 36.13-48.38 60.43-83.24 47.71-76.89-32.29-151.97-79.64-195.84-152.74-40.57-66.26-48.67-147.76-36.61-223.38 8.95-64.82 30.61-126.87 51.32-188.69 6.12-19.74 22.32-35.11 41.95-41.11z"/>
	<path class="s3" d="m632.49 234.86c91.64-17.4 193.55-5.7 268.81 53.12 80.72 62.47 122.43 160.24 152.08 255.07 7.98 29.46 27.19 59.95 15.24 91.1-11.94 36.25-58.45 54.55-91.64 35.29-17.17-8.4-28.81-25.03-33.37-43.27-19.2-68.36-40.87-137.8-82.58-196.25-22.51-32.05-55.58-57.08-93.63-67.22-45.85-12.43-94.1-5.52-139.71 4.44-30.97 9.18-68.18-8.28-78.51-39.43-10.2-25.51-1.02-56.06 19.57-73.52 17.94-14.59 42.01-15.25 63.74-19.33z"/>
	<path class="s4" d="m47.99 641.11c21.61-9.36 48.13-6.54 66.8 8.04 63.2 47.54 129.21 96.63 207.47 115.17 58.04 13.87 118.72-9.48 160.73-49.75 17.4-14.52 31.93-31.93 47.05-48.67 23.65-27.79 71.3-26.95 95.37-0.18 21.54 22.86 23.46 62.23 2.34 85.94-48.8 54.08-104.97 105.33-175.25 128.92-76.58 28.38-162.64 17.1-235.86-15.85-64.52-27.91-121.72-69.26-178.43-110.13-18.55-12.54-28.81-34.63-31.21-56.29 5.7-23.23 16.98-48.08 40.99-57.2z"/>
</svg>